<svg class="main-svg" xmlns="http://www.w3.org/2000/svg" xmlns:xlink="http://www.w3.org/1999/xlink" width="2200" height="1000" style="" viewBox="0 0 1100 500"><rect x="0" y="0" width="1100" height="500" style="fill: rgb(255, 255, 255); fill-opacity: 1;"/><defs id="defs-75e5bd"><g class="clips"><clipPath id="clip75e5bdxyplot" class="plotclip"><rect width="1006" height="385"/></clipPath><clipPath class="axesclip" id="clip75e5bdx"><rect x="68" y="0" width="1006" height="500"/></clipPath><clipPath class="axesclip" id="clip75e5bdy"><rect x="0" y="50" width="1100" height="385"/></clipPath><clipPath class="axesclip" id="clip75e5bdxy"><rect x="68" y="50" width="1006" height="385"/></clipPath></g><g class="gradients"/><g class="patterns"/></defs><g class="bglayer"/><g class="layer-below"><g class="imagelayer"/><g class="shapelayer"/></g><g class="cartesianlayer"><g class="subplot xy"><g class="layer-subplot"><g class="shapelayer"/><g class="imagelayer"/></g><g class="minor-gridlayer"><g class="x"/><g class="y"/></g><g class="gridlayer"><g class="x"><path class="xgrid crisp" transform="translate(269.2,0)" d="M0,50v385" style="stroke: rgb(0, 0, 0); stroke-opacity: 0.05; stroke-width: 1px;"/><path class="xgrid crisp" transform="translate(470.4,0)" d="M0,50v385" style="stroke: rgb(0, 0, 0); stroke-opacity: 0.05; stroke-width: 1px;"/><path class="xgrid crisp" transform="translate(671.6,0)" d="M0,50v385" style="stroke: rgb(0, 0, 0); stroke-opacity: 0.05; stroke-width: 1px;"/><path class="xgrid crisp" transform="translate(872.8,0)" d="M0,50v385" style="stroke: rgb(0, 0, 0); stroke-opacity: 0.05; stroke-width: 1px;"/></g><g class="y"><path class="ygrid crisp" transform="translate(0,379.08)" d="M68,0h1006" style="stroke: rgb(0, 0, 0); stroke-opacity: 0.05; stroke-width: 1px;"/><path class="ygrid crisp" transform="translate(0,323.17)" d="M68,0h1006" style="stroke: rgb(0, 0, 0); stroke-opacity: 0.05; stroke-width: 1px;"/><path class="ygrid crisp" transform="translate(0,267.25)" d="M68,0h1006" style="stroke: rgb(0, 0, 0); stroke-opacity: 0.05; stroke-width: 1px;"/><path class="ygrid crisp" transform="translate(0,211.34)" d="M68,0h1006" style="stroke: rgb(0, 0, 0); stroke-opacity: 0.05; stroke-width: 1px;"/><path class="ygrid crisp" transform="translate(0,155.42000000000002)" d="M68,0h1006" style="stroke: rgb(0, 0, 0); stroke-opacity: 0.05; stroke-width: 1px;"/><path class="ygrid crisp" transform="translate(0,99.50999999999999)" d="M68,0h1006" style="stroke: rgb(0, 0, 0); stroke-opacity: 0.05; stroke-width: 1px;"/></g></g><g class="zerolinelayer"><path class="xzl zl crisp" transform="translate(68,0)" d="M0,50v385" style="stroke: rgb(0, 0, 0); stroke-opacity: 0.05; stroke-width: 2px;"/><path class="yzl zl crisp" transform="translate(0,435)" d="M68,0h1006" style="stroke: rgb(0, 0, 0); stroke-opacity: 0.05; stroke-width: 2px;"/></g><g class="layer-between"><g class="shapelayer"/><g class="imagelayer"/></g><path class="xlines-below"/><path class="ylines-below"/><g class="overlines-below"/><g class="xaxislayer-below"/><g class="yaxislayer-below"/><g class="overaxes-below"/><g class="overplot"><g class="xy" transform="translate(68,50)" clip-path="url(#clip75e5bdxyplot)"><g class="scatterlayer mlayer"><g class="trace scatter traced88886" style="stroke-miterlimit: 2; opacity: 1;"><g class="fills"/><g class="errorbars"/><g class="lines"><path class="js-line" d="M0,385L171.02,384.32L181.08,383.79L201.2,381.37L211.26,379L221.32,375.56L231.38,370.77L241.44,364.39L251.5,356.21L261.56,346.15L271.62,334.37L291.74,306.46L301.8,291.04L331.98,241.88L342.04,225.04L372.22,175.52L382.28,160.41L402.4,133.48L412.46,122.38L422.52,113.11L432.58,105.43L452.7,92.91L462.76,87.35L482.88,78.14L492.94,74.01L513.06,65.12L523.12,60.28L533.18,54.93L543.24,48.34L563.36,34.71L573.42,30.7L583.48,30.19L593.54,33.54L603.6,41.44L613.66,54.25L623.72,71.39L633.78,92.38L643.84,117.21L653.9,145.04L684.08,233.65L694.14,260.64L704.2,284.54L714.26,304.83L724.32,321.1L734.38,333.87L744.44,343.9L754.5,351.86L764.56,358.18L774.62,363.31L794.74,371.23L804.8,374.24L824.92,378.87L834.98,380.54L855.1,382.79L865.16,383.49L895.34,384.63L905.4,384.81L995.94,384.99L1006,385" style="vector-effect: none; fill: none; stroke: rgb(240, 173, 78); stroke-opacity: 1; stroke-width: 2px; opacity: 1;"/></g><g class="points"/><g class="text"/></g><g class="trace scatter trace645449" style="stroke-miterlimit: 2; opacity: 1;"><g class="fills"/><g class="errorbars"/><g class="lines"><path class="js-line" d="M0,385L171.02,384.35L181.08,383.84L201.2,381.48L211.26,379.19L221.32,375.81L231.38,371.11L241.44,364.85L251.5,356.84L261.56,347.01L271.62,335.35L281.68,322.12L291.74,307.63L311.86,276.11L321.92,259.78L372.22,176.18L382.28,161.03L402.4,134.09L412.46,123.06L422.52,113.75L432.58,105.98L452.7,93.52L462.76,88.17L482.88,79.16L492.94,74.93L523.12,61.35L533.18,55.82L563.36,35.69L573.42,31.57L583.48,31.02L593.54,34.3L603.6,42.02L613.66,54.85L623.72,72.1L633.78,93.07L643.84,117.92L653.9,145.71L694.14,261.44L704.2,285.33L714.26,305.56L724.32,321.74L734.38,334.44L744.44,344.46L754.5,352.35L764.56,358.65L774.62,363.74L784.68,367.94L804.8,374.42L814.86,376.86L834.98,380.42L845.04,381.63L875.22,383.69L885.28,384.03L935.58,384.55L945.64,384.52L975.82,383.86L985.88,383.01L995.94,380.42L1006,353.81" style="vector-effect: none; fill: none; stroke: rgb(240, 173, 78); stroke-opacity: 1; stroke-width: 2px; opacity: 1;"/></g><g class="points"/><g class="text"/></g><g class="trace scatter trace669b6b" style="stroke-miterlimit: 2; opacity: 1;"><g class="fills"/><g class="errorbars"/><g class="lines"><path class="js-line" d="M0,385L171.02,384.32L181.08,383.79L201.2,381.34L211.26,379L221.32,375.55L231.38,370.7L241.44,364.28L251.5,356.15L261.56,346.14L271.62,334.33L281.68,321.03L291.74,306.41L321.92,258.67L331.98,242.12L372.22,175.71L382.28,160.76L402.4,133.81L412.46,122.48L422.52,113.06L432.58,105.22L452.7,92.53L462.76,86.73L482.88,77.1L492.94,72.7L523.12,59.18L533.18,53.98L563.36,34.05L573.42,30.42L583.48,30.24L593.54,34.15L603.6,42.42L613.66,55.4L623.72,72.62L633.78,93.91L643.84,118.86L653.9,146.32L684.08,234.51L694.14,261.31L704.2,285.06L714.26,305.1L724.32,321.18L734.38,333.84L744.44,343.84L754.5,351.73L764.56,357.98L774.62,363.08L794.74,370.97L804.8,374L824.92,378.72L834.98,380.4L855.1,382.71L865.16,383.44L895.34,384.61L905.4,384.8L995.94,384.99L1006,385" style="vector-effect: none; fill: none; stroke: rgb(240, 173, 78); stroke-opacity: 1; stroke-width: 2px; opacity: 1;"/></g><g class="points"/><g class="text"/></g><g class="trace scatter tracefc955d" style="stroke-miterlimit: 2; opacity: 1;"><g class="fills"/><g class="errorbars"/><g class="lines"><path class="js-line" d="M0,385L171.02,384.34L181.08,383.84L201.2,381.48L211.26,379.18L221.32,375.79L231.38,371.11L241.44,364.82L251.5,356.76L261.56,346.94L271.62,335.3L291.74,307.67L301.8,292.27L331.98,243.6L342.04,226.77L372.22,176.91L382.28,161.91L402.4,134.78L412.46,123.65L422.52,114.29L432.58,106.34L452.7,93.65L462.76,87.98L472.82,82.76L482.88,78.47L513.06,65.28L523.12,60.57L533.18,55.31L543.24,48.87L563.36,35.64L573.42,31.94L583.48,31.65L593.54,35.28L603.6,43.45L613.66,56.5L623.72,73.75L633.78,94.93L643.84,119.9L653.9,147.46L684.08,235.35L694.14,262.11L704.2,285.8L714.26,305.83L724.32,321.88L734.38,334.42L744.44,344.34L754.5,352.17L764.56,358.42L774.62,363.49L794.74,371.22L804.8,374.18L824.92,378.68L834.98,380.3L855.1,382.5L865.16,383.18L895.34,384.3L905.4,384.47L965.76,384.47L975.82,384.16L985.88,383.4L995.94,381.03L1006,334.06" style="vector-effect: none; fill: none; stroke: rgb(240, 173, 78); stroke-opacity: 1; stroke-width: 2px; opacity: 1;"/></g><g class="points"/><g class="text"/></g><g class="trace scatter trace3136ff" style="stroke-miterlimit: 2; opacity: 1;"><g class="fills"/><g class="errorbars"/><g class="lines"><path class="js-line" d="M0,385L171.02,384.34L181.08,383.83L201.2,381.51L211.26,379.25L221.32,375.93L231.38,371.29L241.44,365.13L251.5,357.26L261.56,347.65L271.62,336.3L281.68,323.48L291.74,309.43L311.86,278.85L321.92,262.9L382.28,166.24L392.34,152.18L402.4,139.3L412.46,127.78L422.52,118.18L432.58,109.88L452.7,96.42L462.76,90.39L482.88,79.93L492.94,75.16L523.12,59.24L533.18,53.03L563.36,30.72L573.42,26.28L583.48,25.23L593.54,28.18L603.6,35.83L613.66,48.56L623.72,65.54L633.78,86.67L643.84,111.86L653.9,139.8L694.14,257.15L704.2,281.46L714.26,302.16L724.32,318.86L734.38,331.98L744.44,342.27L754.5,350.35L764.56,356.84L774.62,362.16L784.68,366.58L804.8,373.48L814.86,376.15L834.98,380.15L845.04,381.52L865.16,383.35L875.22,383.92L915.46,384.9L925.52,384.96L1006,385" style="vector-effect: none; fill: none; stroke: rgb(240, 173, 78); stroke-opacity: 1; stroke-width: 2px; opacity: 1;"/></g><g class="points"/><g class="text"/></g><g class="trace scatter traced08942" style="stroke-miterlimit: 2; opacity: 1;"><g class="fills"/><g class="errorbars"/><g class="lines"><path class="js-line" d="M0,385L171.02,384.37L181.08,383.87L201.2,381.62L211.26,379.42L221.32,376.19L231.38,371.68L241.44,365.65L251.5,357.92L261.56,348.46L271.62,337.28L281.68,324.63L291.74,310.71L311.86,280.39L321.92,264.51L372.22,182.51L382.28,167.5L402.4,140.2L412.46,128.85L422.52,119.33L432.58,111.21L452.7,97.79L462.76,91.83L482.88,81.32L492.94,76.47L523.12,60.78L533.18,54.72L563.36,32.38L573.42,27.71L583.48,26.55L593.54,29.44L603.6,36.87L613.66,49.47L623.72,66.55L633.78,87.69L643.84,112.76L653.9,140.65L694.14,257.94L704.2,282.38L714.26,302.98L724.32,319.5L734.38,332.58L744.44,342.81L754.5,350.87L764.56,357.37L774.62,362.58L784.68,366.92L804.8,373.73L814.86,376.3L834.98,380.1L845.04,381.4L875.22,383.63L885.28,384L935.58,384.6L945.64,384.58L975.82,384.06L985.88,383.24L995.94,380.6L1006,333.53" style="vector-effect: none; fill: none; stroke: rgb(240, 173, 78); stroke-opacity: 1; stroke-width: 2px; opacity: 1;"/></g><g class="points"/><g class="text"/></g><g class="trace scatter trace866758" style="stroke-miterlimit: 2; opacity: 1;"><g class="fills"/><g class="errorbars"/><g class="lines"><path class="js-line" d="M0,385L171.02,384.36L181.08,383.85L201.2,381.56L211.26,379.33L221.32,376.04L231.38,371.48L241.44,365.39L251.5,357.58L261.56,348.02L271.62,336.73L281.68,323.97L291.74,309.99L311.86,279.4L321.92,263.33L382.28,164.8L392.34,150.34L402.4,137.04L412.46,125.44L422.52,115.61L432.58,107.29L452.7,93.62L462.76,87.66L482.88,77.63L492.94,72.84L523.12,57.79L533.18,51.89L563.36,30.67L573.42,26.41L583.48,25.64L593.54,28.96L603.6,36.99L613.66,49.9L623.72,67.23L633.78,88.71L643.84,114.04L653.9,142.18L684.08,231.84L694.14,259.16L704.2,283.36L714.26,303.85L724.32,320.23L734.38,333.13L744.44,343.31L754.5,351.33L764.56,357.72L774.62,362.9L794.74,370.85L804.8,373.91L824.92,378.67L834.98,380.37L855.1,382.7L865.16,383.43L895.34,384.61L905.4,384.79L985.88,384.99L995.94,384.99L1006,385" style="vector-effect: none; fill: none; stroke: rgb(240, 173, 78); stroke-opacity: 1; stroke-width: 2px; opacity: 1;"/></g><g class="points"/><g class="text"/></g><g class="trace scatter traced77734" style="stroke-miterlimit: 2; opacity: 1;"><g class="fills"/><g class="errorbars"/><g class="lines"><path class="js-line" d="M0,385L171.02,384.37L181.08,383.89L201.2,381.64L211.26,379.45L221.32,376.22L231.38,371.73L241.44,365.74L251.5,358.04L261.56,348.58L271.62,337.36L291.74,310.68L301.8,295.77L331.98,247.55L342.04,230.78L372.22,180.63L382.28,165.19L402.4,137.33L412.46,125.8L422.52,116.04L432.58,107.72L452.7,94.23L462.76,88.26L482.88,78.09L492.94,73.46L523.12,58.41L533.18,52.57L563.36,31.44L573.42,27.18L583.48,26.4L593.54,29.53L603.6,37.36L613.66,50.39L623.72,67.82L633.78,89.14L643.84,114.41L653.9,142.51L684.08,232.23L694.14,259.53L704.2,283.72L714.26,304.13L724.32,320.48L734.38,333.38L744.44,343.51L754.5,351.51L764.56,357.89L774.62,363.05L794.74,370.91L804.8,373.94L824.92,378.59L834.98,380.25L855.1,382.51L865.16,383.21L905.4,384.55L915.46,384.66L975.82,384.46L985.88,384.06L995.94,382.83L1006,364.03" style="vector-effect: none; fill: none; stroke: rgb(240, 173, 78); stroke-opacity: 1; stroke-width: 2px; opacity: 1;"/></g><g class="points"/><g class="text"/></g><g class="trace scatter trace7f705b" style="stroke-miterlimit: 2; opacity: 1;"><g class="fills"/><g class="errorbars"/><g class="lines"><path class="js-line" d="M0,385L171.02,384.35L181.08,383.85L201.2,381.53L211.26,379.29L221.32,375.99L231.38,371.39L241.44,365.3L251.5,357.49L261.56,347.88L271.62,336.51L291.74,309.55L301.8,294.58L331.98,246.3L342.04,229.58L372.22,179.77L382.28,164.26L402.4,136.65L412.46,125.06L422.52,115.44L432.58,107.18L452.7,93.42L462.76,87.37L482.88,77.12L492.94,72.36L523.12,56.9L533.18,51L563.36,29.65L573.42,25.73L583.48,25.26L593.54,28.8L603.6,36.99L613.66,50.22L623.72,67.91L633.78,89.63L643.84,115.15L653.9,143.45L684.08,233.33L694.14,260.47L704.2,284.44L714.26,304.76L724.32,320.99L734.38,333.82L744.44,343.9L754.5,351.77L764.56,358.08L774.62,363.24L794.74,371.16L804.8,374.2L824.92,378.85L834.98,380.52L855.1,382.79L865.16,383.49L895.34,384.63L905.4,384.81L995.94,384.99L1006,384.99" style="vector-effect: none; fill: none; stroke: rgb(240, 173, 78); stroke-opacity: 1; stroke-width: 2px; opacity: 1;"/></g><g class="points"/><g class="text"/></g><g class="trace scatter trace7e0323" style="stroke-miterlimit: 2; opacity: 1;"><g class="fills"/><g class="errorbars"/><g class="lines"><path class="js-line" d="M0,385L171.02,384.38L181.08,383.89L201.2,381.63L211.26,379.42L221.32,376.16L231.38,371.67L241.44,365.65L251.5,357.93L261.56,348.43L271.62,337.15L291.74,310.34L301.8,295.39L331.98,247.05L342.04,230.18L372.22,180.14L382.28,164.76L402.4,136.99L412.46,125.42L422.52,115.7L432.58,107.42L452.7,93.84L462.76,87.91L482.88,77.64L492.94,72.93L523.12,57.58L533.18,51.61L563.36,30.38L573.42,26.38L583.48,25.81L593.54,29.33L603.6,37.51L613.66,50.72L623.72,68.49L633.78,90.17L643.84,115.67L653.9,144.01L684.08,233.78L694.14,260.97L704.2,284.96L714.26,305.2L724.32,321.4L734.38,334.11L744.44,344.11L754.5,352L764.56,358.31L774.62,363.4L794.74,371.21L804.8,374.17L824.92,378.73L834.98,380.34L855.1,382.51L865.16,383.19L895.34,384.29L905.4,384.45L965.76,384.37L975.82,384.03L985.88,383.31L995.94,381.09L1006,367.71" style="vector-effect: none; fill: none; stroke: rgb(240, 173, 78); stroke-opacity: 1; stroke-width: 2px; opacity: 1;"/></g><g class="points"/><g class="text"/></g><g class="trace scatter trace603556" style="stroke-miterlimit: 2; opacity: 1;"><g class="fills"/><g class="errorbars"/><g class="lines"><path class="js-line" d="M0,385L171.02,384.39L181.08,383.92L201.2,381.72L211.26,379.58L221.32,376.44L231.38,372.09L241.44,366.31L251.5,358.83L261.56,349.69L271.62,338.89L281.68,326.53L291.74,312.96L311.86,283.27L321.92,267.53L352.1,217.94L362.16,201.14L382.28,169.35L392.34,154.73L402.4,141.17L412.46,129.14L422.52,118.97L432.58,110.22L452.7,95.63L462.76,89.13L482.88,77.97L492.94,72.93L523.12,56.43L533.18,50.15L563.36,27.56L573.42,22.94L583.48,21.88L593.54,24.88L603.6,32.7L613.66,45.56L623.72,62.86L633.78,84.37L643.84,109.91L653.9,138.31L694.14,256.45L704.2,280.98L714.26,301.79L724.32,318.49L734.38,331.64L744.44,341.99L754.5,350.15L764.56,356.67L784.68,366.4L794.74,370.16L814.86,376L824.92,378.26L845.04,381.45L855.1,382.52L885.28,384.28L895.34,384.56L945.64,384.99L955.7,384.99L1006,384.99" style="vector-effect: none; fill: none; stroke: rgb(240, 173, 78); stroke-opacity: 1; stroke-width: 2px; opacity: 1;"/></g><g class="points"/><g class="text"/></g><g class="trace scatter trace7eb366" style="stroke-miterlimit: 2; opacity: 1;"><g class="fills"/><g class="errorbars"/><g class="lines"><path class="js-line" d="M0,385L171.02,384.4L181.08,383.94L201.2,381.82L211.26,379.74L221.32,376.67L231.38,372.39L241.44,366.69L251.5,359.36L261.56,350.3L271.62,339.59L281.68,327.38L291.74,313.96L311.86,284.27L321.92,268.56L352.1,218.91L362.16,202.08L382.28,170.21L392.34,155.44L402.4,141.75L412.46,129.77L422.52,119.62L432.58,110.91L452.7,96.34L462.76,89.97L482.88,78.75L492.94,73.64L523.12,57.06L533.18,50.9L563.36,28.31L573.42,23.72L583.48,22.72L593.54,25.66L603.6,33.35L613.66,46.15L623.72,63.56L633.78,85.01L643.84,110.33L653.9,138.67L684.08,229.41L694.14,257L704.2,281.45L714.26,302.21L724.32,318.85L734.38,331.91L744.44,342.19L754.5,350.29L764.56,356.79L774.62,362.06L794.74,370.17L804.8,373.31L824.92,378.15L834.98,379.91L855.1,382.29L865.16,383.05L895.34,384.29L905.4,384.49L965.76,384.6L975.82,384.43L985.88,383.98L995.94,382.71L1006,356.24" style="vector-effect: none; fill: none; stroke: rgb(240, 173, 78); stroke-opacity: 1; stroke-width: 2px; opacity: 1;"/></g><g class="points"/><g class="text"/></g><g class="trace scatter trace588c24" style="stroke-miterlimit: 2; opacity: 1;"><g class="fills"/><g class="errorbars"/><g class="lines"><path class="js-line" d="M0,385L171.02,384.4L181.08,383.94L201.2,381.82L211.26,379.74L221.32,376.69L231.38,372.46L241.44,366.81L251.5,359.52L261.56,350.59L271.62,340L281.68,327.88L291.74,314.56L311.86,285.25L321.92,269.61L352.1,220.33L362.16,203.42L382.28,171.52L392.34,156.71L402.4,142.96L412.46,130.9L422.52,120.66L432.58,111.73L452.7,96.77L462.76,90.03L482.88,78.62L492.94,73.34L523.12,55.86L533.18,49.2L563.36,25.79L573.42,20.86L583.48,19.54L593.54,22.33L603.6,29.96L613.66,42.81L623.72,60.09L633.78,81.67L643.84,107.3L653.9,135.84L684.08,227.41L694.14,255.27L704.2,280.02L714.26,301L724.32,317.82L734.38,331.07L744.44,341.49L754.5,349.7L764.56,356.27L774.62,361.63L794.74,369.93L804.8,373.14L824.92,378.17L834.98,379.98L855.1,382.48L865.16,383.26L895.34,384.57L905.4,384.77L985.88,384.99L995.94,384.99L1006,384.99" style="vector-effect: none; fill: none; stroke: rgb(240, 173, 78); stroke-opacity: 1; stroke-width: 2px; opacity: 1;"/></g><g class="points"/><g class="text"/></g><g class="trace scatter trace295b12" style="stroke-miterlimit: 2; opacity: 1;"><g class="fills"/><g class="errorbars"/><g class="lines"><path class="js-line" d="M0,385L171.02,384.42L181.08,383.98L201.2,381.92L211.26,379.9L221.32,376.92L231.38,372.77L241.44,367.22L251.5,360.04L261.56,351.22L271.62,340.79L281.68,328.83L291.74,315.6L311.86,286.44L321.92,270.94L352.1,221.44L362.16,204.64L382.28,172.65L392.34,157.78L402.4,144.06L412.46,131.88L422.52,121.5L432.58,112.63L452.7,97.88L462.76,91.25L482.88,79.85L492.94,74.36L523.12,57.18L533.18,50.55L563.36,26.81L573.42,21.88L583.48,20.5L593.54,23.12L603.6,30.55L613.66,43.22L623.72,60.53L633.78,82.04L643.84,107.46L653.9,135.84L694.14,255.41L704.2,280.12L714.26,301.04L724.32,317.92L734.38,331.18L744.44,341.59L754.5,349.8L764.56,356.38L774.62,361.7L784.68,366.17L804.8,373.12L814.86,375.8L834.98,379.8L845.04,381.19L865.16,383L875.22,383.58L915.46,384.6L925.52,384.66L975.82,384.37L985.88,383.8L995.94,381.7L1006,352.9" style="vector-effect: none; fill: none; stroke: rgb(217, 83, 79); stroke-opacity: 1; stroke-width: 2px; opacity: 1;"/></g><g class="points"/><g class="text"/></g><g class="trace scatter tracefca66e" style="stroke-miterlimit: 2; opacity: 1;"><g class="fills"/><g class="errorbars"/><g class="lines"><path class="js-line" d="M0,385L171.02,384.3L181.08,383.75L201.2,381.38L211.26,378.95L221.32,375.44L231.38,370.62L241.44,364.23L251.5,356.07L261.56,345.73L271.62,333.46L291.74,305.14L301.8,289.49L352.1,206.05L362.16,189.07L382.28,157.92L392.34,143.54L402.4,130.97L412.46,120.15L422.52,110.43L432.58,102.31L452.7,89.65L462.76,84.49L482.88,75.23L492.94,71.14L533.18,53.58L543.24,47.29L553.3,40.74L563.36,35.1L573.42,32.31L583.48,33.2L593.54,37.28L603.6,45.9L613.66,59.13L623.72,76.71L633.78,98.89L643.84,124.24L663.96,179.79L674.02,209.54L684.08,238.12L694.14,263.7L704.2,286.58L714.26,306.25L724.32,322.19L734.38,334.47L744.44,344.29L754.5,352.19L764.56,358.2L774.62,363.17L794.74,370.93L804.8,374.03L824.92,378.66L834.98,380.36L855.1,382.73L865.16,383.44L895.34,384.61L905.4,384.78L985.88,384.99L995.94,384.99L1006,384.99" style="vector-effect: none; fill: none; stroke: rgb(240, 173, 78); stroke-opacity: 1; stroke-width: 2px; opacity: 1;"/></g><g class="points"/><g class="text"/></g><g class="trace scatter trace638399" style="stroke-miterlimit: 2; opacity: 1;"><g class="fills"/><g class="errorbars"/><g class="lines"><path class="js-line" d="M0,385L171.02,384.33L181.08,383.83L201.2,381.53L211.26,379.26L221.32,375.88L231.38,371.19L241.44,364.89L251.5,356.69L261.56,346.76L271.62,335.06L281.68,321.76L291.74,307L321.92,258.33L331.98,241.2L372.22,174.24L382.28,159L392.34,144.15L402.4,131.28L422.52,111.34L432.58,102.81L442.64,95.8L452.7,90.14L472.82,80.45L482.88,76.45L503,68.5L513.06,64.14L523.12,59.78L533.18,54.39L563.36,36.68L573.42,33.37L583.48,33.26L593.54,37.52L603.6,46.33L613.66,60.01L623.72,78.08L633.78,99.17L643.84,123.61L653.9,150.78L684.08,237.41L694.14,263.9L704.2,287.15L714.26,306.79L724.32,322.41L734.38,334.52L744.44,344.34L754.5,352.15L764.56,358.3L774.62,363.19L794.74,370.96L804.8,373.99L824.92,378.47L834.98,380.17L855.1,382.48L865.16,383.16L895.34,384.3L905.4,384.47L965.76,384.46L975.82,384.17L985.88,383.49L995.94,381.33L1006,351.63" style="vector-effect: none; fill: none; stroke: rgb(240, 173, 78); stroke-opacity: 1; stroke-width: 2px; opacity: 1;"/></g><g class="points"/><g class="text"/></g><g class="trace scatter trace9714e6" style="stroke-miterlimit: 2; opacity: 1;"><g class="fills"/><g class="errorbars"/><g class="lines"><path class="js-line" d="M0,385L171.02,384.38L181.08,383.9L201.2,381.67L211.26,379.5L221.32,376.31L231.38,371.88L241.44,365.98L251.5,358.41L261.56,349.13L271.62,338.14L291.74,311.96L301.8,297.33L321.92,266.21L331.98,249.96L372.22,183.84L382.28,168.43L402.4,140.42L412.46,128.74L422.52,118.83L432.58,110.33L452.7,95.99L462.76,89.67L482.88,79.01L492.94,73.95L523.12,57.93L533.18,51.76L563.36,29.25L573.42,24.58L583.48,23.53L593.54,26.43L603.6,33.94L613.66,46.63L623.72,63.75L633.78,84.94L643.84,110.15L653.9,138.24L694.14,255.93L704.2,280.46L714.26,301.26L724.32,318.02L734.38,331.21L744.44,341.59L754.5,349.75L764.56,356.27L774.62,361.66L784.68,366.16L804.8,373.13L814.86,375.86L834.98,379.95L845.04,381.37L865.16,383.26L875.22,383.86L915.46,384.89L925.52,384.95L1006,384.99" style="vector-effect: none; fill: none; stroke: rgb(240, 173, 78); stroke-opacity: 1; stroke-width: 2px; opacity: 1;"/></g><g class="points"/><g class="text"/></g><g class="trace scatter trace064a40" style="stroke-miterlimit: 2; opacity: 1;"><g class="fills"/><g class="errorbars"/><g class="lines"><path class="js-line" d="M0,385L171.02,384.39L181.08,383.92L201.2,381.73L211.26,379.59L221.32,376.47L231.38,372.11L241.44,366.27L251.5,358.79L261.56,349.62L271.62,338.69L291.74,312.68L301.8,298.05L321.92,267.04L331.98,250.8L372.22,184.52L382.28,169.06L402.4,141.18L412.46,129.43L422.52,119.44L432.58,110.9L452.7,96.86L462.76,90.57L482.88,79.74L492.94,74.76L523.12,58.71L533.18,52.52L563.36,30.11L573.42,25.48L583.48,24.3L593.54,27.1L603.6,34.54L613.66,47.08L623.72,64.22L633.78,85.45L643.84,110.56L653.9,138.55L694.14,256.3L704.2,280.83L714.26,301.64L724.32,318.32L734.38,331.42L744.44,341.77L754.5,349.98L764.56,356.53L774.62,361.83L784.68,366.26L804.8,373.2L814.86,375.9L834.98,379.89L845.04,381.27L865.16,383.09L875.22,383.66L915.46,384.64L925.52,384.7L985.88,384.2L995.94,383.06L1006,358.13" style="vector-effect: none; fill: none; stroke: rgb(240, 173, 78); stroke-opacity: 1; stroke-width: 2px; opacity: 1;"/></g><g class="points"/><g class="text"/></g><g class="trace scatter trace1edfbf" style="stroke-miterlimit: 2; opacity: 1;"><g class="fills"/><g class="errorbars"/><g class="lines"><path class="js-line" d="M0,385L171.02,384.38L181.08,383.9L201.2,381.67L211.26,379.51L221.32,376.35L231.38,371.97L241.44,366.08L251.5,358.52L261.56,349.28L271.62,338.31L291.74,312.16L301.8,297.56L321.92,266.42L331.98,250.28L372.22,184.24L382.28,168.97L402.4,141.02L412.46,129.28L422.52,119.26L432.58,110.73L452.7,96.34L462.76,89.98L482.88,79.25L492.94,74.09L523.12,57.54L533.18,51.2L563.36,28.56L573.42,23.93L583.48,22.79L593.54,25.7L603.6,33.32L613.66,46.04L623.72,63.37L633.78,84.67L643.84,109.86L653.9,138.05L694.14,255.99L704.2,280.49L714.26,301.27L724.32,317.99L734.38,331.13L744.44,341.55L754.5,349.72L764.56,356.23L774.62,361.62L784.68,366.15L804.8,373.14L814.86,375.87L834.98,379.95L845.04,381.38L865.16,383.27L875.22,383.86L915.46,384.89L925.52,384.95L1006,384.99" style="vector-effect: none; fill: none; stroke: rgb(240, 173, 78); stroke-opacity: 1; stroke-width: 2px; opacity: 1;"/></g><g class="points"/><g class="text"/></g><g class="trace scatter trace20ef5e" style="stroke-miterlimit: 2; opacity: 1;"><g class="fills"/><g class="errorbars"/><g class="lines"><path class="js-line" d="M0,385L171.02,384.39L181.08,383.92L201.2,381.76L211.26,379.62L221.32,376.48L231.38,372.13L241.44,366.34L251.5,358.92L261.56,349.75L271.62,338.83L281.68,326.44L291.74,312.85L311.86,283.02L321.92,267.29L352.1,217.79L362.16,201.17L382.28,169.68L392.34,155.19L402.4,141.79L412.46,130.04L422.52,119.99L432.58,111.32L452.7,97.16L462.76,90.87L482.88,79.9L492.94,74.79L523.12,58.36L533.18,52.02L563.36,29.22L573.42,24.61L583.48,23.57L593.54,26.46L603.6,33.88L613.66,46.5L623.72,63.78L633.78,85.12L643.84,110.39L653.9,138.49L694.14,256.53L704.2,281.02L714.26,301.73L724.32,318.41L734.38,331.52L744.44,341.85L754.5,349.99L764.56,356.51L774.62,361.85L784.68,366.3L804.8,373.23L814.86,375.92L834.98,379.89L845.04,381.27L865.16,383.09L875.22,383.67L915.46,384.65L925.52,384.71L975.82,384.5L985.88,383.96L995.94,381.8L1006,357.4" style="vector-effect: none; fill: none; stroke: rgb(240, 173, 78); stroke-opacity: 1; stroke-width: 2px; opacity: 1;"/></g><g class="points"/><g class="text"/></g><g class="trace scatter trace4ce822" style="stroke-miterlimit: 2; opacity: 1;"><g class="fills"/><g class="errorbars"/><g class="lines"><path class="js-line" d="M0,385L171.02,384.34L181.08,383.84L201.2,381.46L211.26,379.2L221.32,375.8L231.38,371.14L241.44,364.98L251.5,357.09L261.56,347.47L271.62,336L291.74,309L301.8,293.91L331.98,246.02L342.04,229.31L372.22,179.85L382.28,164.7L402.4,137.46L412.46,126.04L422.52,116.66L432.58,108.41L442.64,100.94L452.7,94.48L472.82,83.11L482.88,78.2L513.06,63.44L523.12,58.11L533.18,52.32L543.24,45.38L563.36,31.39L573.42,27.28L583.48,26.47L593.54,29.69L603.6,37.8L613.66,50.81L623.72,68.13L633.78,89.23L643.84,114.31L653.9,142.38L694.14,258.65L704.2,282.79L714.26,303.38L724.32,319.79L734.38,332.65L744.44,342.86L754.5,350.81L764.56,357.2L784.68,366.87L794.74,370.55L814.86,376.33L824.92,378.55L845.04,381.6L855.1,382.66L885.28,384.34L895.34,384.61L945.64,384.99L955.7,384.99L1006,385" style="vector-effect: none; fill: none; stroke: rgb(240, 173, 78); stroke-opacity: 1; stroke-width: 2px; opacity: 1;"/></g><g class="points"/><g class="text"/></g><g class="trace scatter trace0a1cec" style="stroke-miterlimit: 2; opacity: 1;"><g class="fills"/><g class="errorbars"/><g class="lines"><path class="js-line" d="M0,385L171.02,384.36L181.08,383.86L201.2,381.59L211.26,379.37L221.32,376.13L231.38,371.54L241.44,365.51L251.5,357.78L261.56,348.22L271.62,336.9L291.74,309.99L301.8,295.12L331.98,247.28L342.04,230.62L372.22,180.67L382.28,165.79L402.4,138.34L412.46,126.64L422.52,116.98L432.58,108.94L452.7,95.09L462.76,89.27L482.88,78.76L492.94,74.21L513.06,64.02L523.12,58.65L533.18,53.14L543.24,46.15L563.36,32.01L573.42,27.89L583.48,27.26L593.54,30.42L603.6,38.2L613.66,50.96L623.72,68.44L633.78,89.73L643.84,114.72L653.9,142.63L694.14,259L704.2,283.15L714.26,303.6L724.32,319.99L734.38,332.91L744.44,343.16L754.5,351.18L764.56,357.54L784.68,367.08L794.74,370.7L814.86,376.34L824.92,378.45L845.04,381.46L855.1,382.45L885.28,384.07L895.34,384.33L955.7,384.67L965.76,384.61L985.88,383.86L995.94,382.31L1006,357.55" style="vector-effect: none; fill: none; stroke: rgb(240, 173, 78); stroke-opacity: 1; stroke-width: 2px; opacity: 1;"/></g><g class="points"/><g class="text"/></g><g class="trace scatter trace16250d" style="stroke-miterlimit: 2; opacity: 1;"><g class="fills"/><g class="errorbars"/><g class="lines"><path class="js-line" d="M0,385L171.02,384.35L181.08,383.84L201.2,381.52L211.26,379.25L221.32,375.89L231.38,371.3L241.44,365.21L251.5,357.36L261.56,347.7L271.62,336.3L291.74,309.22L301.8,294.19L331.98,246.06L342.04,229.44L372.22,180.22L382.28,165.08L402.4,137.65L412.46,126L422.52,116.34L432.58,108.18L452.7,94.4L462.76,88.4L482.88,77.84L492.94,73.14L523.12,57.96L533.18,52.09L563.36,30.88L573.42,26.93L583.48,26.35L593.54,29.59L603.6,37.4L613.66,50.16L623.72,67.54L633.78,89.08L643.84,114.36L653.9,142.31L694.14,258.89L704.2,283.05L714.26,303.5L724.32,319.88L734.38,332.76L744.44,342.95L754.5,350.99L764.56,357.4L784.68,367L794.74,370.72L814.86,376.43L824.92,378.59L845.04,381.65L855.1,382.69L885.28,384.35L895.34,384.61L955.7,385L965.76,385L1006,385" style="vector-effect: none; fill: none; stroke: rgb(240, 173, 78); stroke-opacity: 1; stroke-width: 2px; opacity: 1;"/></g><g class="points"/><g class="text"/></g><g class="trace scatter traceeae4b8" style="stroke-miterlimit: 2; opacity: 1;"><g class="fills"/><g class="errorbars"/><g class="lines"><path class="js-line" d="M0,385L171.02,384.39L181.08,383.9L201.2,381.62L211.26,379.41L221.32,376.17L231.38,371.68L241.44,365.65L251.5,357.92L261.56,348.42L271.62,337.23L281.68,324.46L291.74,310.36L311.86,279.74L321.92,263.77L372.22,181.03L382.28,165.85L402.4,138.14L412.46,126.61L422.52,116.8L432.58,108.61L452.7,95L462.76,88.9L472.82,83.26L482.88,78.56L503,68.97L513.06,63.74L533.18,52.76L543.24,45.65L563.36,31.73L573.42,27.38L583.48,26.64L593.54,29.84L603.6,37.66L613.66,50.51L623.72,67.83L633.78,89.29L643.84,114.44L653.9,142.36L684.08,231.85L694.14,259.15L704.2,283.41L714.26,303.86L724.32,320.22L734.38,333.11L744.44,343.28L754.5,351.29L764.56,357.67L774.62,362.84L794.74,370.86L804.8,373.9L824.92,378.55L834.98,380.22L855.1,382.51L865.16,383.22L895.34,384.36L905.4,384.53L965.76,384.6L975.82,384.39L985.88,383.87L995.94,382.31L1006,359.93" style="vector-effect: none; fill: none; stroke: rgb(240, 173, 78); stroke-opacity: 1; stroke-width: 2px; opacity: 1;"/></g><g class="points"/><g class="text"/></g><g class="trace scatter trace92ee23" style="stroke-miterlimit: 2; opacity: 1;"><g class="fills"/><g class="errorbars"/><g class="lines"><path class="js-line" d="M0,385L171.02,384.35L181.08,383.84L201.2,381.51L211.26,379.24L221.32,375.9L231.38,371.3L241.44,365.14L251.5,357.22L261.56,347.53L271.62,336.08L291.74,308.94L301.8,293.86L331.98,245.35L342.04,228.61L372.22,178.8L382.28,163.57L402.4,136.11L412.46,124.75L422.52,115.29L432.58,107.22L452.7,93.95L462.76,88.2L472.82,82.88L482.88,78.42L513.06,64.41L523.12,59.29L533.18,53.38L543.24,46.3L553.3,38.77L563.36,32.22L573.42,27.94L583.48,27.04L593.54,30.11L603.6,37.78L613.66,50.53L623.72,67.73L633.78,88.89L643.84,113.97L663.96,171.5L674.02,201.85L694.14,258.93L704.2,283.19L714.26,303.76L724.32,320.23L734.38,333.22L744.44,343.45L754.5,351.47L764.56,357.88L774.62,363.09L784.68,367.43L804.8,374.1L814.86,376.65L834.98,380.46L845.04,381.75L865.16,383.46L875.22,383.99L915.46,384.9L925.52,384.96L1006,385" style="vector-effect: none; fill: none; stroke: rgb(240, 173, 78); stroke-opacity: 1; stroke-width: 2px; opacity: 1;"/></g><g class="points"/><g class="text"/></g><g class="trace scatter tracecb5c3f" style="stroke-miterlimit: 2; opacity: 1;"><g class="fills"/><g class="errorbars"/><g class="lines"><path class="js-line" d="M0,385L171.02,384.38L181.08,383.89L201.2,381.62L211.26,379.41L221.32,376.2L231.38,371.68L241.44,365.6L251.5,357.84L261.56,348.31L271.62,336.99L281.68,324.09L291.74,309.93L311.86,279.08L321.92,262.96L372.22,179.54L382.28,164.33L402.4,136.75L412.46,125.32L422.52,115.83L432.58,107.78L452.7,94.63L462.76,88.97L482.88,79.38L492.94,74.9L523.12,60.25L533.18,54.61L563.36,33.08L573.42,28.7L583.48,27.91L593.54,31.02L603.6,38.61L613.66,51.39L623.72,68.58L633.78,89.71L643.84,114.78L653.9,142.77L684.08,232.52L694.14,259.89L704.2,284.08L714.26,304.55L724.32,320.94L734.38,333.87L744.44,344.05L754.5,352.03L764.56,358.42L774.62,363.56L794.74,371.37L804.8,374.29L824.92,378.8L834.98,380.38L855.1,382.5L865.16,383.16L905.4,384.4L915.46,384.48L965.76,384.27L975.82,383.88L985.88,383.07L995.94,380.69L1006,350.74" style="vector-effect: none; fill: none; stroke: rgb(240, 173, 78); stroke-opacity: 1; stroke-width: 2px; opacity: 1;"/></g><g class="points"/><g class="text"/></g><g class="trace scatter trace5ed727" style="stroke-miterlimit: 2; opacity: 1;"><g class="fills"/><g class="errorbars"/><g class="lines"><path class="js-line" d="M0,385L171.02,384.38L181.08,383.88L201.2,381.63L211.26,379.42L221.32,376.17L231.38,371.65L241.44,365.64L251.5,357.89L261.56,348.4L271.62,337.18L281.68,324.44L291.74,310.42L311.86,279.79L321.92,263.63L382.28,163.95L392.34,149.26L402.4,135.72L412.46,123.99L422.52,114.2L432.58,105.77L452.7,92.22L462.76,86.32L482.88,76.41L492.94,71.87L523.12,57.22L533.18,51.6L563.36,30.75L573.42,26.66L583.48,26.04L593.54,29.41L603.6,37.45L613.66,50.49L623.72,67.89L633.78,89.42L643.84,114.71L653.9,142.85L684.08,232.74L694.14,260.03L704.2,284.16L714.26,304.56L724.32,320.91L734.38,333.82L744.44,343.96L754.5,351.9L764.56,358.23L774.62,363.37L794.74,371.26L804.8,374.26L824.92,378.88L834.98,380.52L855.1,382.78L865.16,383.48L895.34,384.63L905.4,384.8L985.88,384.99L995.94,384.99L1006,385" style="vector-effect: none; fill: none; stroke: rgb(240, 173, 78); stroke-opacity: 1; stroke-width: 2px; opacity: 1;"/></g><g class="points"/><g class="text"/></g><g class="trace scatter traced33b2c" style="stroke-miterlimit: 2; opacity: 1;"><g class="fills"/><g class="errorbars"/><g class="lines"><path class="js-line" d="M0,385L171.02,384.4L181.08,383.92L201.2,381.73L211.26,379.57L221.32,376.39L231.38,371.97L241.44,366.04L251.5,358.42L261.56,349.04L271.62,337.91L291.74,311.21L301.8,296.33L321.92,264.29L331.98,247.65L372.22,179.94L382.28,164.28L402.4,136.01L412.46,124.32L422.52,114.36L432.58,105.96L452.7,92.4L462.76,86.67L482.88,76.94L492.94,72.49L523.12,57.79L533.18,52.2L563.36,31.16L573.42,27.2L583.48,26.72L593.54,29.99L603.6,37.94L613.66,50.97L623.72,68.5L633.78,90.04L643.84,115.46L653.9,143.75L684.08,233.72L694.14,261L704.2,285.12L714.26,305.44L724.32,321.71L734.38,334.52L744.44,344.55L754.5,352.41L764.56,358.74L774.62,363.86L794.74,371.57L804.8,374.49L824.92,378.92L834.98,380.47L855.1,382.57L865.16,383.24L905.4,384.46L915.46,384.55L975.82,384.06L985.88,383.45L995.94,381.77L1006,361.47" style="vector-effect: none; fill: none; stroke: rgb(240, 173, 78); stroke-opacity: 1; stroke-width: 2px; opacity: 1;"/></g><g class="points"/><g class="text"/></g><g class="trace scatter trace0a9ac3" style="stroke-miterlimit: 2; opacity: 1;"><g class="fills"/><g class="errorbars"/><g class="lines"><path class="js-line" d="M0,385L171.02,384.36L181.08,383.86L201.2,381.52L211.26,379.26L221.32,375.97L231.38,371.36L241.44,365.16L251.5,357.19L261.56,347.49L271.62,336.02L291.74,308.72L301.8,293.42L331.98,244.62L342.04,227.91L372.22,178.11L382.28,162.89L402.4,135.23L412.46,123.73L422.52,114.07L432.58,106.07L452.7,92.55L462.76,86.49L482.88,76.26L492.94,71.81L523.12,57.42L533.18,52.06L563.36,32.06L573.42,28.26L583.48,28.05L593.54,31.75L603.6,40.01L613.66,53.07L623.72,70.56L633.78,92.01L643.84,117.15L653.9,145.17L684.08,233.68L694.14,260.55L704.2,284.44L714.26,304.71L724.32,320.84L734.38,333.54L744.44,343.55L754.5,351.42L764.56,357.71L774.62,362.87L794.74,370.83L804.8,373.88L824.92,378.65L834.98,380.36L855.1,382.7L865.16,383.44L895.34,384.62L905.4,384.8L995.94,384.99L1006,385" style="vector-effect: none; fill: none; stroke: rgb(240, 173, 78); stroke-opacity: 1; stroke-width: 2px; opacity: 1;"/></g><g class="points"/><g class="text"/></g><g class="trace scatter trace0b21e4" style="stroke-miterlimit: 2; opacity: 1;"><g class="fills"/><g class="errorbars"/><g class="lines"><path class="js-line" d="M0,385L171.02,384.39L181.08,383.9L201.2,381.67L211.26,379.46L221.32,376.21L231.38,371.65L241.44,365.62L251.5,357.87L261.56,348.29L271.62,337.02L281.68,324.13L291.74,309.85L311.86,278.83L321.92,262.66L372.22,179.25L382.28,163.78L402.4,136.32L412.46,124.73L422.52,115.15L432.58,106.88L452.7,93.43L462.76,87.51L482.88,77.36L492.94,72.72L523.12,58.23L533.18,52.79L563.36,32.95L573.42,29.14L583.48,28.81L593.54,32.28L603.6,40.5L613.66,53.66L623.72,71.22L633.78,92.73L643.84,117.84L653.9,145.69L684.08,234.32L694.14,261.23L704.2,285.13L714.26,305.17L724.32,321.24L734.38,333.89L744.44,343.84L754.5,351.68L764.56,357.98L774.62,363.1L794.74,370.93L804.8,373.94L824.92,378.51L834.98,380.15L855.1,382.33L865.16,383.02L895.34,384.14L905.4,384.3L965.76,384.17L975.82,383.74L985.88,382.85L995.94,380.5L1006,353.75" style="vector-effect: none; fill: none; stroke: rgb(240, 173, 78); stroke-opacity: 1; stroke-width: 2px; opacity: 1;"/></g><g class="points"/><g class="text"/></g><g class="trace scatter trace6f2877" style="stroke-miterlimit: 2; opacity: 1;"><g class="fills"/><g class="errorbars"/><g class="lines"><path class="js-line" d="M0,385L171.02,384.38L181.08,383.9L201.2,381.71L211.26,379.56L221.32,376.38L231.38,372L241.44,366.21L251.5,358.73L261.56,349.53L271.62,338.59L281.68,326.26L291.74,312.71L311.86,282.84L321.92,267.17L382.28,168.96L392.34,154.34L402.4,141.08L412.46,129.31L422.52,119.25L432.58,110.7L452.7,96.61L462.76,90.21L482.88,79.69L492.94,74.83L523.12,58.61L533.18,52.36L563.36,29.43L573.42,24.47L583.48,23.08L593.54,25.67L603.6,32.88L613.66,45.24L623.72,62.25L633.78,83.31L643.84,108.28L653.9,136.42L694.14,254.77L704.2,279.47L714.26,300.52L724.32,317.4L734.38,330.75L744.44,341.21L754.5,349.47L764.56,356.14L784.68,366.05L794.74,369.88L814.86,375.87L824.92,378.17L845.04,381.4L855.1,382.49L885.28,384.29L895.34,384.57L945.64,384.99L955.7,384.99L1006,385" style="vector-effect: none; fill: none; stroke: rgb(240, 173, 78); stroke-opacity: 1; stroke-width: 2px; opacity: 1;"/></g><g class="points"/><g class="text"/></g><g class="trace scatter trace7ee0f6" style="stroke-miterlimit: 2; opacity: 1;"><g class="fills"/><g class="errorbars"/><g class="lines"><path class="js-line" d="M0,385L171.02,384.4L181.08,383.93L201.2,381.79L211.26,379.7L221.32,376.62L231.38,372.33L241.44,366.57L251.5,359.19L261.56,350.1L271.62,339.28L281.68,327.02L291.74,313.54L311.86,283.85L321.92,268.14L352.1,218.19L362.16,201.39L382.28,169.66L392.34,155.08L402.4,141.5L412.46,129.48L422.52,119.55L432.58,111.1L452.7,96.92L462.76,90.87L482.88,80.27L492.94,75.34L523.12,59.19L533.18,53.01L563.36,30.01L573.42,25.07L583.48,23.63L593.54,25.96L603.6,33.12L613.66,45.65L623.72,62.51L633.78,83.56L643.84,108.64L653.9,136.6L694.14,255.06L704.2,279.86L714.26,300.76L724.32,317.61L734.38,330.95L744.44,341.4L754.5,349.59L764.56,356.21L784.68,366.16L794.74,369.95L814.86,375.89L824.92,378.11L845.04,381.24L855.1,382.32L885.28,384.07L895.34,384.34L945.64,384.74L955.7,384.73L985.88,384.17L995.94,383.09L1006,364.45" style="vector-effect: none; fill: none; stroke: rgb(240, 173, 78); stroke-opacity: 1; stroke-width: 2px; opacity: 1;"/></g><g class="points"/><g class="text"/></g><g class="trace scatter trace43337b" style="stroke-miterlimit: 2; opacity: 1;"><g class="fills"/><g class="errorbars"/><g class="lines"><path class="js-line" d="M0,385L171.02,384.41L181.08,383.95L201.2,381.83L211.26,379.74L221.32,376.68L231.38,372.47L241.44,366.84L251.5,359.56L261.56,350.61L271.62,340.05L281.68,328.04L291.74,314.77L311.86,285.53L321.92,270.03L352.1,220.89L362.16,204.15L382.28,172.43L392.34,157.68L402.4,144.06L412.46,132.08L422.52,121.85L432.58,112.92L452.7,97.72L462.76,91L482.88,79.34L492.94,73.97L523.12,56.32L533.18,49.68L563.36,25.63L573.42,20.6L583.48,19.25L593.54,21.93L603.6,29.31L613.66,41.82L623.72,58.94L633.78,80.4L643.84,106L653.9,134.58L694.14,254.22L704.2,279.09L714.26,300.19L724.32,317.15L734.38,330.56L744.44,341.08L754.5,349.34L764.56,355.96L774.62,361.38L784.68,365.92L804.8,372.98L814.86,375.76L834.98,379.89L845.04,381.32L865.16,383.22L875.22,383.82L915.46,384.88L925.52,384.95L1006,384.99" style="vector-effect: none; fill: none; stroke: rgb(240, 173, 78); stroke-opacity: 1; stroke-width: 2px; opacity: 1;"/></g><g class="points"/><g class="text"/></g><g class="trace scatter trace4472ce" style="stroke-miterlimit: 2; opacity: 1;"><g class="fills"/><g class="errorbars"/><g class="lines"><path class="js-line" d="M0,385L171.02,384.43L181.08,383.98L201.2,381.91L211.26,379.89L221.32,376.91L231.38,372.76L241.44,367.22L251.5,360.07L261.56,351.22L271.62,340.72L281.68,328.77L291.74,315.57L311.86,286.43L321.92,270.94L352.1,221.76L362.16,204.96L382.28,173.07L392.34,158.22L402.4,144.67L412.46,132.61L422.52,122.15L432.58,113.27L452.7,98.34L462.76,91.73L482.88,80.03L492.94,74.48L523.12,56.99L533.18,50.29L563.36,26.3L573.42,21.26L583.48,19.8L593.54,22.31L603.6,29.67L613.66,42.33L623.72,59.63L633.78,81.11L643.84,106.59L653.9,135.12L694.14,254.81L704.2,279.69L714.26,300.76L724.32,317.62L734.38,330.9L744.44,341.39L754.5,349.63L764.56,356.25L774.62,361.62L784.68,366.09L804.8,373.06L814.86,375.78L834.98,379.81L845.04,381.2L865.16,383.04L875.22,383.62L915.46,384.64L925.52,384.7L985.88,384.12L995.94,382.88L1006,357.36" style="vector-effect: none; fill: none; stroke: rgb(217, 83, 79); stroke-opacity: 1; stroke-width: 2px; opacity: 1;"/></g><g class="points"/><g class="text"/></g><g class="trace scatter trace5310d6" style="stroke-miterlimit: 2; opacity: 1;"><g class="fills"/><g class="errorbars"/><g class="lines"><path class="js-line" d="M0,385L171.02,384.39L181.08,383.93L201.2,381.76L211.26,379.67L221.32,376.58L231.38,372.27L241.44,366.55L251.5,359.2L261.56,350.13L271.62,339.39L291.74,313.77L301.8,299.35L321.92,268.49L331.98,252.27L382.28,170.19L392.34,155.45L402.4,141.75L412.46,129.65L422.52,119.41L432.58,110.63L452.7,95.71L462.76,89.22L482.88,78.1L492.94,72.93L523.12,56.27L533.18,49.9L563.36,27.09L573.42,22.32L583.48,21.19L593.54,24.1L603.6,31.86L613.66,44.67L623.72,61.97L633.78,83.51L643.84,108.95L653.9,137.22L694.14,255.96L704.2,280.56L714.26,301.45L724.32,318.15L734.38,331.32L744.44,341.75L754.5,349.95L764.56,356.49L774.62,361.83L784.68,366.3L804.8,373.25L814.86,375.94L834.98,379.98L845.04,381.39L865.16,383.25L875.22,383.84L915.46,384.88L925.52,384.95L1006,384.99" style="vector-effect: none; fill: none; stroke: rgb(240, 173, 78); stroke-opacity: 1; stroke-width: 2px; opacity: 1;"/></g><g class="points"/><g class="text"/></g><g class="trace scatter tracebb6b8b" style="stroke-miterlimit: 2; opacity: 1;"><g class="fills"/><g class="errorbars"/><g class="lines"><path class="js-line" d="M0,385L171.02,384.42L181.08,383.96L201.2,381.86L211.26,379.81L221.32,376.8L231.38,372.57L241.44,366.91L251.5,359.67L261.56,350.73L271.62,340.15L281.68,327.97L291.74,314.58L311.86,285.17L321.92,269.48L352.1,219.81L362.16,202.94L382.28,170.85L392.34,156.05L402.4,142.44L412.46,130.39L422.52,120.1L432.58,111.28L452.7,96.5L462.76,90.18L482.88,78.91L492.94,73.67L523.12,57.06L533.18,50.71L563.36,27.84L573.42,23.29L583.48,22.2L593.54,24.98L603.6,32.49L613.66,45.21L623.72,62.58L633.78,84.06L643.84,109.48L653.9,137.79L694.14,256.38L704.2,281.05L714.26,301.91L724.32,318.6L734.38,331.74L744.44,342.07L754.5,350.19L764.56,356.74L774.62,362.08L784.68,366.49L804.8,373.3L814.86,375.95L834.98,379.89L845.04,381.26L875.22,383.63L885.28,384.03L935.58,384.7L945.64,384.69L985.88,384.03L995.94,382.73L1006,353.68" style="vector-effect: none; fill: none; stroke: rgb(240, 173, 78); stroke-opacity: 1; stroke-width: 2px; opacity: 1;"/></g><g class="points"/><g class="text"/></g><g class="trace scatter tracea7ed17" style="stroke-miterlimit: 2; opacity: 1;"><g class="fills"/><g class="errorbars"/><g class="lines"><path class="js-line" d="M0,385L171.02,384.36L181.08,383.86L201.2,381.56L211.26,379.38L221.32,376.13L231.38,371.52L241.44,365.5L251.5,357.85L261.56,348.35L271.62,337.1L291.74,310.42L301.8,295.62L331.98,248.16L342.04,231.73L372.22,182.54L382.28,167.39L402.4,140.02L412.46,128.6L422.52,118.86L432.58,110.68L452.7,97.25L462.76,91.2L503,70.88L513.06,65.93L533.18,54.1L543.24,46.94L563.36,31.74L573.42,26.8L583.48,25.45L593.54,28.08L603.6,35.22L613.66,47.27L623.72,63.97L633.78,84.72L643.84,109.53L653.9,137.28L694.14,254.74L704.2,279.43L714.26,300.46L724.32,317.28L734.38,330.46L744.44,340.85L754.5,349.11L764.56,355.8L774.62,361.26L784.68,365.83L804.8,372.9L814.86,375.7L834.98,379.89L845.04,381.33L865.16,383.24L875.22,383.85L915.46,384.88L925.52,384.95L1006,385" style="vector-effect: none; fill: none; stroke: rgb(240, 173, 78); stroke-opacity: 1; stroke-width: 2px; opacity: 1;"/></g><g class="points"/><g class="text"/></g><g class="trace scatter trace1ce6b3" style="stroke-miterlimit: 2; opacity: 1;"><g class="fills"/><g class="errorbars"/><g class="lines"><path class="js-line" d="M0,385L171.02,384.37L181.08,383.9L201.2,381.72L211.26,379.53L221.32,376.29L231.38,371.83L241.44,365.92L251.5,358.31L261.56,348.94L271.62,337.83L291.74,311.51L301.8,296.73L321.92,265.61L331.98,249.12L372.22,183.51L382.28,168.28L392.34,153.94L402.4,140.96L412.46,129.49L422.52,119.64L432.58,111.43L442.64,104.32L462.76,91.94L472.82,86.85L492.94,77.38L503,72.16L523.12,61.54L533.18,55.44L563.36,32.75L573.42,28.16L583.48,26.41L593.54,28.66L603.6,35.74L613.66,47.57L623.72,63.99L633.78,84.64L643.84,109.38L653.9,137.21L694.14,255.07L704.2,279.66L714.26,300.47L724.32,317.24L734.38,330.6L744.44,341.18L754.5,349.38L764.56,355.98L774.62,361.41L784.68,365.93L804.8,372.94L814.86,375.71L834.98,379.76L845.04,381.2L865.16,383.06L875.22,383.62L915.46,384.65L925.52,384.7L975.82,384.52L985.88,384.08L995.94,382.75L1006,355.05" style="vector-effect: none; fill: none; stroke: rgb(240, 173, 78); stroke-opacity: 1; stroke-width: 2px; opacity: 1;"/></g><g class="points"/><g class="text"/></g><g class="trace scatter trace557b15" style="stroke-miterlimit: 2; opacity: 1;"><g class="fills"/><g class="errorbars"/><g class="lines"><path class="js-line" d="M0,385L171.02,384.39L181.08,383.91L201.2,381.71L211.26,379.57L221.32,376.43L231.38,372.05L241.44,366.25L251.5,358.81L261.56,349.63L271.62,338.77L291.74,312.9L301.8,298.46L321.92,267.68L331.98,251.64L382.28,171L392.34,156.54L402.4,143.23L412.46,131.6L422.52,121.59L432.58,113.01L452.7,98.54L462.76,92.01L482.88,80.79L492.94,75.41L523.12,58.19L533.18,51.6L563.36,27.83L573.42,22.61L583.48,21.04L593.54,23.64L603.6,30.86L613.66,43.22L623.72,60.12L633.78,81.32L643.84,106.53L653.9,134.72L694.14,253.94L704.2,278.81L714.26,299.94L724.32,316.92L734.38,330.33L744.44,340.88L754.5,349.16L764.56,355.84L784.68,365.84L794.74,369.7L814.86,375.73L824.92,378.04L845.04,381.32L855.1,382.44L885.28,384.26L895.34,384.56L945.64,384.99L955.7,384.99L1006,384.99" style="vector-effect: none; fill: none; stroke: rgb(240, 173, 78); stroke-opacity: 1; stroke-width: 2px; opacity: 1;"/></g><g class="points"/><g class="text"/></g><g class="trace scatter trace9ee9e4" style="stroke-miterlimit: 2; opacity: 1;"><g class="fills"/><g class="errorbars"/><g class="lines"><path class="js-line" d="M0,385L171.02,384.4L181.08,383.93L201.2,381.79L211.26,379.7L221.32,376.6L231.38,372.3L241.44,366.55L251.5,359.17L261.56,350.13L271.62,339.39L291.74,313.67L301.8,299.31L321.92,268.66L331.98,252.64L372.22,186.98L382.28,171.72L402.4,143.97L412.46,132.25L422.52,122.37L432.58,113.81L452.7,99.39L462.76,92.89L482.88,81.79L492.94,76.37L523.12,59.05L533.18,52.55L563.36,28.68L573.42,23.61L583.48,21.92L593.54,24.22L603.6,31.32L613.66,43.72L623.72,60.69L633.78,81.76L643.84,106.93L653.9,135.16L694.14,254.45L704.2,279.36L714.26,300.41L724.32,317.31L734.38,330.61L744.44,341.13L754.5,349.41L764.56,356.06L774.62,361.51L784.68,366.01L804.8,373.04L814.86,375.75L834.98,379.81L845.04,381.21L865.16,383.06L875.22,383.64L915.46,384.65L925.52,384.7L975.82,384.53L985.88,384.07L995.94,382.62L1006,354.89" style="vector-effect: none; fill: none; stroke: rgb(217, 83, 79); stroke-opacity: 1; stroke-width: 2px; opacity: 1;"/></g><g class="points"/><g class="text"/></g><g class="trace scatter tracecfcecd" style="stroke-miterlimit: 2; opacity: 1;"><g class="fills"/><g class="errorbars"/><g class="lines"><path class="js-line" d="M0,385L171.02,384.39L181.08,383.9L201.2,381.72L211.26,379.58L221.32,376.43L231.38,372.08L241.44,366.29L251.5,358.8L261.56,349.59L271.62,338.74L281.68,326.41L291.74,312.87L311.86,283.33L321.92,267.64L382.28,170.33L392.34,155.84L402.4,142.41L412.46,130.66L422.52,120.75L432.58,112.19L452.7,97.74L462.76,91.3L482.88,80.23L492.94,74.99L523.12,58.01L533.18,51.44L563.36,28.01L573.42,23.13L583.48,21.66L593.54,24.15L603.6,31.41L613.66,43.91L623.72,60.93L633.78,82.05L643.84,107.32L653.9,135.57L694.14,254.51L704.2,279.26L714.26,300.35L724.32,317.22L734.38,330.59L744.44,341.14L754.5,349.42L764.56,356.03L774.62,361.44L784.68,365.99L804.8,373.05L814.86,375.8L834.98,379.93L845.04,381.35L865.16,383.25L875.22,383.84L915.46,384.88L925.52,384.95L1006,384.99" style="vector-effect: none; fill: none; stroke: rgb(217, 83, 79); stroke-opacity: 1; stroke-width: 2px; opacity: 1;"/></g><g class="points"/><g class="text"/></g><g class="trace scatter tracecf2213" style="stroke-miterlimit: 2; opacity: 1;"><g class="fills"/><g class="errorbars"/><g class="lines"><path class="js-line" d="M0,385L171.02,384.4L181.08,383.93L201.2,381.8L211.26,379.69L221.32,376.62L231.38,372.34L241.44,366.59L251.5,359.24L261.56,350.2L271.62,339.43L291.74,313.71L301.8,299.3L321.92,268.52L331.98,252.45L382.28,171.15L392.34,156.53L402.4,143.35L412.46,131.74L422.52,121.7L432.58,113L452.7,98.59L462.76,92.25L482.88,81.26L492.94,76.08L523.12,58.91L533.18,52.46L563.36,28.93L573.42,24L583.48,22.52L593.54,24.93L603.6,32.07L613.66,44.43L623.72,61.39L633.78,82.46L643.84,107.77L653.9,136L694.14,254.87L704.2,279.63L714.26,300.71L724.32,317.63L734.38,330.91L744.44,341.39L754.5,349.64L764.56,356.26L774.62,361.67L784.68,366.16L804.8,373.11L814.86,375.82L834.98,379.84L845.04,381.23L865.16,383.05L875.22,383.63L915.46,384.64L925.52,384.7L985.88,384.08L995.94,382.75L1006,352.47" style="vector-effect: none; fill: none; stroke: rgb(217, 83, 79); stroke-opacity: 1; stroke-width: 2px; opacity: 1;"/></g><g class="points"/><g class="text"/></g><g class="trace scatter trace2f2542" style="stroke-miterlimit: 2; opacity: 1;"><g class="fills"/><g class="errorbars"/><g class="lines"><path class="js-line" d="M0,385L171.02,384.39L181.08,383.93L201.2,381.73L211.26,379.61L221.32,376.51L231.38,372.17L241.44,366.42L251.5,359.02L261.56,349.93L271.62,339.18L291.74,313.59L301.8,299.25L321.92,268.71L331.98,252.75L382.28,172.07L392.34,157.62L402.4,144.24L412.46,132.5L422.52,122.44L432.58,113.8L452.7,99.42L462.76,92.75L472.82,86.56L482.88,81.32L503,70.4L513.06,64.66L533.18,51.76L543.24,43.7L563.36,27.58L573.42,22.28L583.48,20.39L593.54,22.6L603.6,29.64L613.66,41.81L623.72,58.56L633.78,79.62L643.84,104.89L653.9,133.16L694.14,252.82L704.2,277.81L714.26,299.11L724.32,316.3L734.38,329.83L744.44,340.48L754.5,348.84L764.56,355.54L774.62,361.03L784.68,365.65L804.8,372.83L814.86,375.64L834.98,379.84L845.04,381.28L865.16,383.22L875.22,383.82L915.46,384.88L925.52,384.95L1006,384.99" style="vector-effect: none; fill: none; stroke: rgb(240, 173, 78); stroke-opacity: 1; stroke-width: 2px; opacity: 1;"/></g><g class="points"/><g class="text"/></g><g class="trace scatter trace7ecb20" style="stroke-miterlimit: 2; opacity: 1;"><g class="fills"/><g class="errorbars"/><g class="lines"><path class="js-line" d="M0,385L171.02,384.4L181.08,383.94L201.2,381.83L211.26,379.77L221.32,376.73L231.38,372.49L241.44,366.81L251.5,359.53L261.56,350.56L271.62,339.93L281.68,327.87L291.74,314.6L311.86,285.31L321.92,269.83L352.1,220.88L362.16,204.26L382.28,172.91L392.34,158.42L402.4,145.15L412.46,133.34L422.52,123.26L432.58,114.62L452.7,100.01L462.76,93.61L482.88,82.15L492.94,76.84L523.12,59.33L533.18,52.53L563.36,28.2L573.42,22.84L583.48,20.86L593.54,23.1L603.6,30.02L613.66,42.15L623.72,59L633.78,80.03L643.84,105.17L653.9,133.42L694.14,253.24L704.2,278.24L714.26,299.49L724.32,316.63L734.38,330.1L744.44,340.7L754.5,349.08L764.56,355.77L774.62,361.24L784.68,365.81L804.8,372.86L814.86,375.65L834.98,379.74L845.04,381.16L865.16,383.02L875.22,383.61L915.46,384.65L925.52,384.71L985.88,384.18L995.94,382.97L1006,355.21" style="vector-effect: none; fill: none; stroke: rgb(217, 83, 79); stroke-opacity: 1; stroke-width: 2px; opacity: 1;"/></g><g class="points"/><g class="text"/></g><g class="trace scatter trace73bbba" style="stroke-miterlimit: 2; opacity: 1;"><g class="fills"/><g class="errorbars"/><g class="lines"><path class="js-line" d="M0,385L171.02,384.36L181.08,383.87L201.2,381.59L211.26,379.38L221.32,376.15L231.38,371.66L241.44,365.68L251.5,357.99L261.56,348.56L271.62,337.45L281.68,324.81L291.74,310.94L311.86,280.8L321.92,264.96L382.28,167.46L392.34,153.01L402.4,139.7L412.46,128.08L422.52,118.29L432.58,109.86L452.7,95.57L462.76,89.17L482.88,78.43L492.94,73.32L523.12,57.28L533.18,51.21L563.36,29.33L573.42,25.07L583.48,24.14L593.54,27.25L603.6,35.05L613.66,47.85L623.72,65.18L633.78,86.54L643.84,111.77L653.9,139.92L694.14,257.3L704.2,281.62L714.26,302.3L724.32,318.9L734.38,331.95L744.44,342.23L754.5,350.35L764.56,356.84L784.68,366.54L794.74,370.27L814.86,376.07L824.92,378.31L845.04,381.47L855.1,382.54L885.28,384.3L895.34,384.58L945.64,384.99L955.7,384.99L1006,384.99" style="vector-effect: none; fill: none; stroke: rgb(240, 173, 78); stroke-opacity: 1; stroke-width: 2px; opacity: 1;"/></g><g class="points"/><g class="text"/></g><g class="trace scatter trace5a62bc" style="stroke-miterlimit: 2; opacity: 1;"><g class="fills"/><g class="errorbars"/><g class="lines"><path class="js-line" d="M0,385L171.02,384.38L181.08,383.9L201.2,381.7L211.26,379.54L221.32,376.37L231.38,371.95L241.44,366.06L251.5,358.52L261.56,349.22L271.62,338.2L281.68,325.69L291.74,311.93L311.86,281.83L321.92,266.03L352.1,216.36L362.16,199.69L382.28,168.3L392.34,153.83L402.4,140.62L412.46,128.84L422.52,118.9L432.58,110.44L452.7,96.24L462.76,89.96L482.88,79.12L492.94,74.03L523.12,58.13L533.18,52.1L563.36,30.06L573.42,25.51L583.48,24.68L593.54,27.77L603.6,35.49L613.66,48.36L623.72,65.78L633.78,87.2L643.84,112.41L653.9,140.41L694.14,257.82L704.2,282.16L714.26,302.76L724.32,319.22L734.38,332.23L744.44,342.5L754.5,350.61L764.56,357.09L784.68,366.67L794.74,370.37L814.86,376.1L824.92,378.27L845.04,381.34L855.1,382.38L885.28,384.1L895.34,384.37L945.64,384.76L955.7,384.75L985.88,384.16L995.94,382.74L1006,353.75" style="vector-effect: none; fill: none; stroke: rgb(240, 173, 78); stroke-opacity: 1; stroke-width: 2px; opacity: 1;"/></g><g class="points"/><g class="text"/></g><g class="trace scatter trace376243" style="stroke-miterlimit: 2; opacity: 1;"><g class="fills"/><g class="errorbars"/><g class="lines"><path class="js-line" d="M0,385L171.02,384.35L181.08,383.85L201.2,381.5L211.26,379.22L221.32,375.89L231.38,371.3L241.44,365.16L251.5,357.22L261.56,347.57L271.62,336.27L291.74,309.18L301.8,294.17L331.98,246.21L342.04,229.74L372.22,180.54L382.28,165.49L402.4,138.18L412.46,126.85L422.52,117.18L432.58,109.1L452.7,95.47L462.76,89.28L482.88,78.87L492.94,73.93L523.12,58.65L533.18,52.64L563.36,31.22L573.42,26.79L583.48,25.94L593.54,28.98L603.6,36.63L613.66,49.39L623.72,66.65L633.78,87.9L643.84,112.96L653.9,140.91L684.08,230.62L694.14,257.97L704.2,282.29L714.26,302.88L724.32,319.47L734.38,332.5L744.44,342.75L754.5,350.8L764.56,357.19L774.62,362.5L794.74,370.62L804.8,373.72L824.92,378.57L834.98,380.3L855.1,382.68L865.16,383.41L895.34,384.61L905.4,384.79L985.88,384.99L995.94,384.99L1006,385" style="vector-effect: none; fill: none; stroke: rgb(240, 173, 78); stroke-opacity: 1; stroke-width: 2px; opacity: 1;"/></g><g class="points"/><g class="text"/></g><g class="trace scatter trace4bc8ea" style="stroke-miterlimit: 2; opacity: 1;"><g class="fills"/><g class="errorbars"/><g class="lines"><path class="js-line" d="M0,385L171.02,384.37L181.08,383.89L201.2,381.62L211.26,379.38L221.32,376.12L231.38,371.6L241.44,365.55L251.5,357.77L261.56,348.26L271.62,336.98L291.74,310.21L301.8,295.2L331.98,247.15L342.04,230.6L372.22,181.43L382.28,166.25L392.34,151.73L402.4,138.73L412.46,127.54L422.52,117.82L432.58,109.54L442.64,102.34L462.76,89.96L472.82,84.42L503,69.72L513.06,64.59L533.18,53.51L543.24,46.13L553.3,38.27L563.36,31.6L573.42,27.39L583.48,26.37L593.54,29.34L603.6,37.04L613.66,49.78L623.72,67L633.78,88.24L643.84,113.37L663.96,170.9L674.02,201.48L694.14,258.52L704.2,282.89L714.26,303.41L724.32,319.9L734.38,332.92L744.44,343.09L754.5,351.11L764.56,357.57L774.62,362.82L784.68,367.18L804.8,373.86L814.86,376.42L834.98,380.22L845.04,381.5L875.22,383.7L885.28,384.07L935.58,384.66L945.64,384.66L975.82,384.3L985.88,383.76L995.94,382.17L1006,359.63" style="vector-effect: none; fill: none; stroke: rgb(240, 173, 78); stroke-opacity: 1; stroke-width: 2px; opacity: 1;"/></g><g class="points"/><g class="text"/></g><g class="trace scatter trace488d98" style="stroke-miterlimit: 2; opacity: 1;"><g class="fills"/><g class="errorbars"/><g class="lines"><path class="js-line" d="M0,385L171.02,384.32L181.08,383.78L201.2,381.34L211.26,378.95L221.32,375.43L231.38,370.61L241.44,364.24L251.5,355.98L261.56,345.93L271.62,334.25L281.68,320.95L291.74,306.32L311.86,275.28L321.92,258.87L372.22,176.94L382.28,161.94L392.34,148.03L402.4,135.4L412.46,124.25L422.52,114.91L432.58,107.37L442.64,100.77L462.76,88.77L472.82,83.69L523.12,60.94L533.18,55.49L563.36,34.26L573.42,30.31L583.48,29.82L593.54,33.1L603.6,40.86L613.66,53.7L623.72,70.94L633.78,91.74L643.84,116.25L653.9,143.69L694.14,259.39L704.2,283.24L714.26,303.45L724.32,319.81L734.38,332.72L744.44,342.91L754.5,350.9L764.56,357.29L774.62,362.48L784.68,366.8L804.8,373.63L814.86,376.29L834.98,380.22L845.04,381.57L865.16,383.38L875.22,383.94L915.46,384.9L925.52,384.96L1006,385" style="vector-effect: none; fill: none; stroke: rgb(240, 173, 78); stroke-opacity: 1; stroke-width: 2px; opacity: 1;"/></g><g class="points"/><g class="text"/></g><g class="trace scatter trace76df51" style="stroke-miterlimit: 2; opacity: 1;"><g class="fills"/><g class="errorbars"/><g class="lines"><path class="js-line" d="M0,385L171.02,384.34L181.08,383.83L201.2,381.43L211.26,379.16L221.32,375.81L231.38,371.07L241.44,364.78L251.5,356.75L261.56,346.93L271.62,335.22L291.74,307.69L301.8,292.39L321.92,260.25L331.98,243.69L372.22,178.16L382.28,163.15L392.34,149.09L402.4,136.36L412.46,125.27L422.52,115.92L432.58,108.08L442.64,101.43L462.76,89.82L472.82,84.67L513.06,66.81L523.12,61.7L533.18,55.94L543.24,49.03L563.36,34.96L573.42,30.74L583.48,30.2L593.54,33.43L603.6,40.97L613.66,53.64L623.72,70.73L633.78,91.57L643.84,116.25L653.9,143.89L694.14,259.37L704.2,283.45L714.26,303.75L724.32,320.03L734.38,332.88L744.44,343.07L754.5,351.13L764.56,357.55L774.62,362.69L784.68,366.97L804.8,373.72L814.86,376.33L834.98,380.13L845.04,381.43L865.16,383.17L875.22,383.69L915.46,384.63L925.52,384.69L975.82,384.42L985.88,383.94L995.94,382.56L1006,353.89" style="vector-effect: none; fill: none; stroke: rgb(240, 173, 78); stroke-opacity: 1; stroke-width: 2px; opacity: 1;"/></g><g class="points"/><g class="text"/></g><g class="trace scatter trace80ef43" style="stroke-miterlimit: 2; opacity: 1;"><g class="fills"/><g class="errorbars"/><g class="lines"><path class="js-line" d="M0,385L171.02,384.33L181.08,383.81L201.2,381.53L211.26,379.25L221.32,375.93L231.38,371.19L241.44,365.03L251.5,357.21L261.56,347.5L271.62,336.11L281.68,323.31L291.74,308.81L321.92,261.6L331.98,245.02L352.1,211.88L362.16,194.42L372.22,177.9L382.28,162.92L402.4,135.12L412.46,124L422.52,114.51L432.58,106.51L452.7,92.55L462.76,86.69L482.88,77.6L492.94,73.35L523.12,59.5L533.18,53.08L543.24,46.83L553.3,39.49L563.36,32.94L573.42,28.74L583.48,28.12L593.54,31.77L603.6,39L613.66,51.61L623.72,69.13L633.78,90.25L643.84,114.8L653.9,143.04L684.08,232.33L694.14,259.44L704.2,283.03L714.26,303.47L724.32,320.4L734.38,333.3L744.44,343.09L754.5,351.15L764.56,357.66L774.62,362.87L794.74,370.92L804.8,373.98L824.92,378.68L834.98,380.35L855.1,382.69L865.16,383.42L895.34,384.61L905.4,384.81L995.94,384.99L1006,385" style="vector-effect: none; fill: none; stroke: rgb(240, 173, 78); stroke-opacity: 1; stroke-width: 2px; opacity: 1;"/></g><g class="points"/><g class="text"/></g><g class="trace scatter tracebb7218" style="stroke-miterlimit: 2; opacity: 1;"><g class="fills"/><g class="errorbars"/><g class="lines"><path class="js-line" d="M0,385L171.02,384.35L181.08,383.87L201.2,381.63L211.26,379.44L221.32,376.2L231.38,371.67L241.44,365.51L251.5,357.71L261.56,348.24L271.62,336.82L291.74,309.77L301.8,294.76L342.04,229.04L352.1,212.11L382.28,163.07L392.34,148.87L412.46,124.29L422.52,114.6L442.64,99.98L452.7,94.25L472.82,83.23L482.88,78.52L503,69.04L513.06,65.15L523.12,60.65L533.18,54.69L563.36,33.56L573.42,29.4L583.48,28.59L593.54,31.8L603.6,39.62L613.66,51.79L623.72,69.12L633.78,90.38L643.84,115.33L653.9,143.84L694.14,259.68L704.2,283.98L714.26,304.49L724.32,320.73L734.38,333.65L744.44,343.73L754.5,351.78L764.56,358.31L774.62,363.35L784.68,367.36L804.8,373.98L814.86,376.58L834.98,380.29L845.04,381.54L865.16,383.2L875.22,383.68L915.46,384.55L925.52,384.6L975.82,384.06L985.88,383.42L995.94,381.63L1006,359.1" style="vector-effect: none; fill: none; stroke: rgb(240, 173, 78); stroke-opacity: 1; stroke-width: 2px; opacity: 1;"/></g><g class="points"/><g class="text"/></g><g class="trace scatter tracee5902b" style="stroke-miterlimit: 2; opacity: 1;"><g class="fills"/><g class="errorbars"/><g class="lines"><path class="js-line" d="M0,385L171.02,384.38L181.08,383.9L201.2,381.68L211.26,379.5L221.32,376.29L231.38,371.86L241.44,365.92L251.5,358.29L261.56,348.92L271.62,337.81L281.68,325.14L291.74,311.25L311.86,280.76L321.92,264.83L352.1,214.48L362.16,197.52L382.28,165.61L392.34,150.9L402.4,137.39L412.46,125.54L422.52,115.54L432.58,107.01L452.7,92.67L462.76,86.53L482.88,75.93L492.94,71.12L523.12,56.12L533.18,50.14L563.36,29.65L573.42,25.61L583.48,25.2L593.54,28.81L603.6,36.87L613.66,49.92L623.72,67.55L633.78,89.22L643.84,114.61L653.9,142.73L694.14,259.48L704.2,283.5L714.26,303.83L724.32,320.2L734.38,333L744.44,343.07L754.5,351.05L764.56,357.4L774.62,362.62L784.68,366.95L804.8,373.7L814.86,376.31L834.98,380.25L845.04,381.6L875.22,383.95L885.28,384.34L935.58,384.98L945.64,384.99L1006,385" style="vector-effect: none; fill: none; stroke: rgb(240, 173, 78); stroke-opacity: 1; stroke-width: 2px; opacity: 1;"/></g><g class="points"/><g class="text"/></g><g class="trace scatter tracec65dea" style="stroke-miterlimit: 2; opacity: 1;"><g class="fills"/><g class="errorbars"/><g class="lines"><path class="js-line" d="M0,385L171.02,384.4L181.08,383.95L201.2,381.8L211.26,379.67L221.32,376.54L231.38,372.19L241.44,366.36L251.5,358.88L261.56,349.63L271.62,338.62L291.74,312.38L301.8,297.68L331.98,249.66L342.04,232.72L372.22,182.21L382.28,166.59L402.4,138.26L412.46,126.26L422.52,116.19L432.58,107.7L452.7,93.58L462.76,87.29L472.82,81.63L482.88,76.96L513.06,61.87L523.12,56.74L533.18,51.14L543.24,44.31L553.3,36.85L563.36,30.48L573.42,26.47L583.48,26.05L593.54,29.54L603.6,37.53L613.66,50.75L623.72,68.25L633.78,89.68L643.84,115.12L663.96,173.07L674.02,203.5L684.08,232.94L694.14,260.02L704.2,284.01L714.26,304.35L724.32,320.68L734.38,333.46L744.44,343.51L754.5,351.43L764.56,357.77L774.62,362.86L794.74,370.74L804.8,373.79L824.92,378.43L834.98,380.06L855.1,382.31L865.16,383.02L905.4,384.35L915.46,384.44L965.76,384.26L975.82,383.89L985.88,383.08L995.94,380.9L1006,354.67" style="vector-effect: none; fill: none; stroke: rgb(240, 173, 78); stroke-opacity: 1; stroke-width: 2px; opacity: 1;"/></g><g class="points"/><g class="text"/></g><g class="trace scatter trace03e770" style="stroke-miterlimit: 2; opacity: 1;"><g class="fills"/><g class="errorbars"/><g class="lines"><path class="js-line" d="M0,385L171.02,384.37L181.08,383.87L201.2,381.58L211.26,379.36L221.32,376.06L231.38,371.5L241.44,365.39L251.5,357.59L261.56,347.99L271.62,336.56L281.68,323.67L291.74,309.48L311.86,278.75L321.92,262.57L372.22,179.11L382.28,163.67L402.4,135.8L412.46,124.19L422.52,114.4L432.58,106.1L452.7,92.39L462.76,86.28L482.88,76.33L492.94,71.6L523.12,57.06L533.18,51.44L563.36,31.21L573.42,27.41L583.48,27.05L593.54,30.57L603.6,38.89L613.66,52.21L623.72,69.62L633.78,91.21L643.84,116.55L653.9,144.47L684.08,233.25L694.14,260.31L704.2,284.25L714.26,304.44L724.32,320.63L734.38,333.42L744.44,343.45L754.5,351.32L764.56,357.6L774.62,362.72L794.74,370.73L804.8,373.82L824.92,378.58L834.98,380.29L855.1,382.66L865.16,383.41L895.34,384.61L905.4,384.8L995.94,384.99L1006,385" style="vector-effect: none; fill: none; stroke: rgb(240, 173, 78); stroke-opacity: 1; stroke-width: 2px; opacity: 1;"/></g><g class="points"/><g class="text"/></g><g class="trace scatter traceca1c67" style="stroke-miterlimit: 2; opacity: 1;"><g class="fills"/><g class="errorbars"/><g class="lines"><path class="js-line" d="M0,385L171.02,384.39L181.08,383.91L201.2,381.69L211.26,379.5L221.32,376.28L231.38,371.78L241.44,365.81L251.5,358.12L261.56,348.62L271.62,337.38L281.68,324.57L291.74,310.5L311.86,279.73L321.92,263.68L382.28,164.29L392.34,149.77L402.4,136.51L412.46,124.8L422.52,114.87L432.58,106.5L452.7,92.93L462.76,86.99L482.88,76.67L492.94,72.17L513.06,62.69L523.12,57.54L533.18,51.93L543.24,45.16L553.3,37.93L563.36,31.67L573.42,27.82L583.48,27.53L593.54,31.07L603.6,39.08L613.66,52.33L623.72,69.9L633.78,91.33L643.84,116.65L663.96,174.23L674.02,204.38L684.08,233.75L694.14,260.74L704.2,284.63L714.26,304.74L724.32,320.85L734.38,333.57L744.44,343.61L754.5,351.5L764.56,357.8L774.62,362.91L794.74,370.79L804.8,373.81L824.92,378.49L834.98,380.16L855.1,382.43L865.16,383.15L895.34,384.3L905.4,384.48L965.76,384.5L975.82,384.25L985.88,383.66L995.94,382.16L1006,364.94" style="vector-effect: none; fill: none; stroke: rgb(240, 173, 78); stroke-opacity: 1; stroke-width: 2px; opacity: 1;"/></g><g class="points"/><g class="text"/></g><g class="trace scatter tracec87daa" style="stroke-miterlimit: 2; opacity: 1;"><g class="fills"/><g class="errorbars"/><g class="lines"><path class="js-line" d="M0,385L171.02,384.35L181.08,383.83L201.2,381.53L211.26,379.26L221.32,375.93L231.38,371.34L241.44,365.16L251.5,357.22L261.56,347.53L271.62,336.05L281.68,323.03L291.74,308.75L311.86,277.68L321.92,261.45L382.28,162.71L392.34,148.22L402.4,135.25L412.46,123.79L422.52,114.14L432.58,105.91L452.7,92.42L462.76,86.46L482.88,76.73L492.94,72.27L523.12,58.23L533.18,52.65L563.36,32.54L573.42,28.87L583.48,28.64L593.54,32.14L603.6,40.27L613.66,53.39L623.72,70.67L633.78,91.8L643.84,116.89L653.9,144.64L684.08,233.14L694.14,259.97L704.2,283.85L714.26,304.11L724.32,320.32L734.38,333.05L744.44,343.06L754.5,350.97L764.56,357.34L774.62,362.52L794.74,370.52L804.8,373.64L824.92,378.46L834.98,380.2L855.1,382.61L865.16,383.37L895.34,384.6L905.4,384.79L985.88,384.99L995.94,384.99L1006,384.99" style="vector-effect: none; fill: none; stroke: rgb(240, 173, 78); stroke-opacity: 1; stroke-width: 2px; opacity: 1;"/></g><g class="points"/><g class="text"/></g><g class="trace scatter trace3df4c5" style="stroke-miterlimit: 2; opacity: 1;"><g class="fills"/><g class="errorbars"/><g class="lines"><path class="js-line" d="M0,385L171.02,384.38L181.08,383.89L201.2,381.63L211.26,379.43L221.32,376.22L231.38,371.69L241.44,365.64L251.5,357.89L261.56,348.31L271.62,336.92L291.74,309.94L301.8,294.78L331.98,246.03L342.04,229.1L372.22,179.09L382.28,163.65L392.34,149.09L402.4,135.87L412.46,124.32L422.52,114.47L442.64,99.27L452.7,92.85L472.82,81.69L482.88,77.04L523.12,58.39L533.18,53.05L563.36,33.23L573.42,29.45L583.48,28.98L593.54,32.26L603.6,40.36L613.66,53.6L623.72,70.96L633.78,92.2L643.84,117.08L653.9,144.74L684.08,233.39L694.14,260.28L704.2,284.06L714.26,304.23L724.32,320.41L734.38,333.06L744.44,343.14L754.5,351.08L764.56,357.42L774.62,362.6L794.74,370.53L804.8,373.59L824.92,378.34L834.98,380.04L855.1,382.38L865.16,383.1L905.4,384.48L915.46,384.58L975.82,384.28L985.88,383.76L995.94,382.44L1006,366.36" style="vector-effect: none; fill: none; stroke: rgb(240, 173, 78); stroke-opacity: 1; stroke-width: 2px; opacity: 1;"/></g><g class="points"/><g class="text"/></g><g class="trace scatter trace1c990b" style="stroke-miterlimit: 2; opacity: 1;"><g class="fills"/><g class="errorbars"/><g class="lines"><path class="js-line" d="M0,385L171.02,384.36L181.08,383.86L201.2,381.65L211.26,379.51L221.32,376.29L231.38,371.73L241.44,365.84L251.5,358.36L261.56,348.99L271.62,337.9L291.74,311.6L301.8,296.91L331.98,249.84L342.04,233.15L372.22,183.56L382.28,168.25L392.34,153.57L402.4,140.73L412.46,129.43L422.52,119.64L442.64,103.68L452.7,96.99L472.82,85.27L482.88,80.29L503,70.38L513.06,64.89L533.18,53.17L543.24,45.31L553.3,37.12L563.36,29.94L573.42,25.04L583.48,23.7L593.54,26.31L603.6,33.53L613.66,45.96L623.72,62.73L633.78,83.9L643.84,108.59L653.9,136.48L663.96,166.79L684.08,226.9L694.14,254.9L704.2,279.75L714.26,300.69L724.32,317.43L734.38,330.82L744.44,341.25L754.5,349.46L764.56,356.14L774.62,361.48L794.74,369.93L804.8,373.09L824.92,378.1L834.98,379.96L855.1,382.53L865.16,383.29L895.34,384.57L905.4,384.78L985.88,384.98L995.94,384.98L1006,384.99" style="vector-effect: none; fill: none; stroke: rgb(240, 173, 78); stroke-opacity: 1; stroke-width: 2px; opacity: 1;"/></g><g class="points"/><g class="text"/></g><g class="trace scatter tracea44172" style="stroke-miterlimit: 2; opacity: 1;"><g class="fills"/><g class="errorbars"/><g class="lines"><path class="js-line" d="M0,385L171.02,384.36L181.08,383.9L201.2,381.73L211.26,379.56L221.32,376.46L231.38,372.13L241.44,366.29L251.5,358.77L261.56,349.42L271.62,338.47L281.68,326.12L291.74,312.58L311.86,282.54L321.92,266.73L352.1,217.33L362.16,200.49L382.28,169.15L392.34,154.8L402.4,141.24L412.46,129.88L422.52,120.07L432.58,111.4L442.64,103.82L452.7,97.68L472.82,85.92L482.88,81.18L503,71.3L513.06,65.97L533.18,53.47L543.24,45.72L563.36,30.33L573.42,25.82L583.48,24.27L593.54,26.15L603.6,33.58L613.66,45.96L623.72,62.76L633.78,83.85L643.84,108.77L653.9,136.83L694.14,255.17L704.2,279.69L714.26,300.82L724.32,317.73L734.38,331L744.44,341.56L754.5,349.73L764.56,356.27L774.62,361.68L784.68,366.21L804.8,373.08L814.86,375.81L834.98,379.8L845.04,381.23L865.16,383.06L875.22,383.64L915.46,384.63L925.52,384.69L985.88,384.09L995.94,383L1006,364.4" style="vector-effect: none; fill: none; stroke: rgb(240, 173, 78); stroke-opacity: 1; stroke-width: 2px; opacity: 1;"/></g><g class="points"/><g class="text"/></g><g class="trace scatter trace0de057" style="stroke-miterlimit: 2; opacity: 1;"><g class="fills"/><g class="errorbars"/><g class="lines"><path class="js-line" d="M0,385L171.02,384.37L181.08,383.88L201.2,381.57L211.26,379.37L221.32,376.12L231.38,371.61L241.44,365.56L251.5,357.85L261.56,348.37L271.62,337.26L281.68,324.56L291.74,310.47L311.86,280.16L321.92,264.05L352.1,214.17L362.16,197.41L382.28,165.96L392.34,151.65L402.4,138.5L412.46,127.18L432.58,109.14L442.64,101.98L462.76,89.62L472.82,84.57L523.12,59.75L533.18,54.11L553.3,38.98L563.36,31.67L573.42,27.26L583.48,26.18L593.54,28.73L603.6,36.3L613.66,48.39L623.72,65.36L633.78,86.65L643.84,111.14L663.96,168.43L674.02,198.78L694.14,256.13L704.2,280.37L714.26,301.16L724.32,317.95L734.38,331.26L744.44,341.76L754.5,349.83L764.56,356.27L774.62,361.63L784.68,366.14L804.8,373.17L814.86,375.91L834.98,380L845.04,381.41L865.16,383.29L875.22,383.88L915.46,384.89L925.52,384.96L1006,385" style="vector-effect: none; fill: none; stroke: rgb(240, 173, 78); stroke-opacity: 1; stroke-width: 2px; opacity: 1;"/></g><g class="points"/><g class="text"/></g><g class="trace scatter trace5fd291" style="stroke-miterlimit: 2; opacity: 1;"><g class="fills"/><g class="errorbars"/><g class="lines"><path class="js-line" d="M0,385L171.02,384.38L181.08,383.89L201.2,381.68L211.26,379.5L221.32,376.32L231.38,371.87L241.44,365.94L251.5,358.3L261.56,349.03L271.62,338L291.74,311.31L301.8,296.55L321.92,265.23L331.98,248.8L372.22,182.11L382.28,166.8L402.4,139.08L412.46,127.5L422.52,117.69L432.58,109.54L452.7,96.18L462.76,90.49L482.88,80.28L492.94,75.8L523.12,60.69L533.18,54.9L563.36,32.82L573.42,28.23L583.48,26.83L593.54,29.51L603.6,36.45L613.66,48.73L623.72,65.73L633.78,86.44L643.84,111.21L653.9,138.8L694.14,255.97L704.2,280.52L714.26,301.32L724.32,317.96L734.38,331.11L744.44,341.63L754.5,349.8L764.56,356.31L774.62,361.67L784.68,366.14L804.8,373.12L814.86,375.84L834.98,379.81L845.04,381.21L865.16,383L875.22,383.57L915.46,384.6L925.52,384.67L985.88,384.13L995.94,383.08L1006,365.82" style="vector-effect: none; fill: none; stroke: rgb(240, 173, 78); stroke-opacity: 1; stroke-width: 2px; opacity: 1;"/></g><g class="points"/><g class="text"/></g><g class="trace scatter trace4a0b36" style="stroke-miterlimit: 2; opacity: 1;"><g class="fills"/><g class="errorbars"/><g class="lines"><path class="js-line" d="M0,385L171.02,384.37L181.08,383.89L201.2,381.65L211.26,379.49L221.32,376.31L231.38,371.86L241.44,365.94L251.5,358.38L261.56,349.07L271.62,338.05L281.68,325.53L291.74,311.81L311.86,281.8L321.92,266.01L352.1,216.2L362.16,199.49L382.28,167.86L392.34,153.35L402.4,139.87L412.46,128.01L422.52,118.09L432.58,109.6L452.7,95.52L462.76,89.31L482.88,78.85L492.94,73.95L523.12,58.29L533.18,52.13L563.36,29.8L573.42,25.17L583.48,24.18L593.54,27.01L603.6,34.38L613.66,47L623.72,64.14L633.78,85.21L643.84,110.31L653.9,138.38L694.14,255.97L704.2,280.58L714.26,301.46L724.32,318.16L734.38,331.34L744.44,341.74L754.5,349.91L764.56,356.45L774.62,361.8L784.68,366.29L804.8,373.25L814.86,375.97L834.98,380.04L845.04,381.44L865.16,383.3L875.22,383.88L915.46,384.89L925.52,384.95L1006,384.99" style="vector-effect: none; fill: none; stroke: rgb(240, 173, 78); stroke-opacity: 1; stroke-width: 2px; opacity: 1;"/></g><g class="points"/><g class="text"/></g><g class="trace scatter trace548f16" style="stroke-miterlimit: 2; opacity: 1;"><g class="fills"/><g class="errorbars"/><g class="lines"><path class="js-line" d="M0,385L171.02,384.4L181.08,383.93L201.2,381.75L211.26,379.62L221.32,376.49L231.38,372.11L241.44,366.31L251.5,358.86L261.56,349.63L271.62,338.73L281.68,326.3L291.74,312.63L311.86,282.72L321.92,266.84L352.1,216.91L362.16,200.03L382.28,168.28L392.34,153.68L402.4,140.21L412.46,128.44L422.52,118.49L432.58,110.01L452.7,96.08L462.76,89.94L482.88,79.21L492.94,74.44L523.12,58.85L533.18,52.82L563.36,30.5L573.42,25.85L583.48,24.53L593.54,27.3L603.6,34.79L613.66,47.37L623.72,64.36L633.78,85.39L643.84,110.38L653.9,138.37L694.14,256.31L704.2,280.88L714.26,301.67L724.32,318.37L734.38,331.51L744.44,341.9L754.5,350.1L764.56,356.64L784.68,366.4L794.74,370.15L814.86,375.99L824.92,378.2L845.04,381.33L855.1,382.38L885.28,384.1L895.34,384.37L945.64,384.76L955.7,384.75L985.88,384.28L995.94,383.37L1006,365.59" style="vector-effect: none; fill: none; stroke: rgb(240, 173, 78); stroke-opacity: 1; stroke-width: 2px; opacity: 1;"/></g><g class="points"/><g class="text"/></g><g class="trace scatter tracee9ad33" style="stroke-miterlimit: 2; opacity: 1;"><g class="fills"/><g class="errorbars"/><g class="lines"><path class="js-line" d="M0,385L171.02,384.33L181.08,383.81L201.2,381.43L211.26,379.11L221.32,375.71L231.38,370.98L241.44,364.7L251.5,356.67L261.56,346.79L271.62,335.11L281.68,321.95L291.74,307.55L311.86,276.46L321.92,260.19L372.22,176.93L382.28,161.68L402.4,134.34L412.46,122.97L422.52,113.49L432.58,105.55L452.7,92.6L462.76,86.88L482.88,77.37L492.94,72.96L523.12,59.12L533.18,53.54L563.36,33.58L573.42,29.71L583.48,29.36L593.54,32.89L603.6,40.82L613.66,53.88L623.72,71.2L633.78,92.37L643.84,117.35L653.9,145.08L684.08,233.53L694.14,260.41L704.2,284.28L714.26,304.49L724.32,320.68L734.38,333.47L744.44,343.55L754.5,351.45L764.56,357.77L774.62,362.91L794.74,370.86L804.8,373.93L824.92,378.67L834.98,380.37L855.1,382.71L865.16,383.43L895.34,384.62L905.4,384.8L995.94,384.99L1006,385" style="vector-effect: none; fill: none; stroke: rgb(240, 173, 78); stroke-opacity: 1; stroke-width: 2px; opacity: 1;"/></g><g class="points"/><g class="text"/></g><g class="trace scatter tracee5ae13" style="stroke-miterlimit: 2; opacity: 1;"><g class="fills"/><g class="errorbars"/><g class="lines"><path class="js-line" d="M0,385L171.02,384.36L181.08,383.86L201.2,381.54L211.26,379.28L221.32,375.95L231.38,371.32L241.44,365.13L251.5,357.2L261.56,347.45L271.62,335.94L281.68,322.88L291.74,308.59L311.86,277.42L321.92,261.2L372.22,177.75L382.28,162.41L392.34,148.01L402.4,134.99L412.46,123.78L422.52,114.26L432.58,106.2L442.64,99.4L462.76,87.6L472.82,82.51L523.12,59.87L533.18,54.45L563.36,34.52L573.42,30.47L583.48,30.03L593.54,33.53L603.6,41.39L613.66,54.26L623.72,71.56L633.78,92.64L643.84,117.48L653.9,145.16L684.08,233.69L694.14,260.65L704.2,284.57L714.26,304.78L724.32,320.95L734.38,333.7L744.44,343.71L754.5,351.61L764.56,357.96L774.62,363.1L794.74,370.96L804.8,373.96L824.92,378.6L834.98,380.24L855.1,382.51L865.16,383.21L895.34,384.36L905.4,384.54L965.76,384.6L975.82,384.38L985.88,383.86L995.94,382.3L1006,359" style="vector-effect: none; fill: none; stroke: rgb(240, 173, 78); stroke-opacity: 1; stroke-width: 2px; opacity: 1;"/></g><g class="points"/><g class="text"/></g><g class="trace scatter trace9969f5" style="stroke-miterlimit: 2; opacity: 1;"><g class="fills"/><g class="errorbars"/><g class="lines"><path class="js-line" d="M0,385L171.02,384.39L181.08,383.91L201.2,381.73L211.26,379.61L221.32,376.47L231.38,372.09L241.44,366.27L251.5,358.89L261.56,349.79L271.62,338.95L281.68,326.66L291.74,313.14L311.86,283.54L321.92,267.83L352.1,218.46L362.16,201.81L382.28,170.29L392.34,155.52L402.4,141.97L412.46,130.19L422.52,120.24L432.58,111.47L452.7,96.74L462.76,90.1L482.88,78.95L492.94,73.58L523.12,56.96L533.18,50.52L563.36,27.46L573.42,22.65L583.48,21.41L593.54,24.32L603.6,31.8L613.66,44.39L623.72,61.6L633.78,83L643.84,108.38L653.9,136.72L694.14,255.46L704.2,280.08L714.26,301.07L724.32,317.85L734.38,331.08L744.44,341.56L754.5,349.79L764.56,356.38L774.62,361.74L784.68,366.22L804.8,373.21L814.86,375.91L834.98,380.01L845.04,381.4L865.16,383.27L875.22,383.86L915.46,384.89L925.52,384.95L1006,384.99" style="vector-effect: none; fill: none; stroke: rgb(240, 173, 78); stroke-opacity: 1; stroke-width: 2px; opacity: 1;"/></g><g class="points"/><g class="text"/></g><g class="trace scatter tracede390f" style="stroke-miterlimit: 2; opacity: 1;"><g class="fills"/><g class="errorbars"/><g class="lines"><path class="js-line" d="M0,385L171.02,384.41L181.08,383.95L201.2,381.84L211.26,379.75L221.32,376.71L231.38,372.46L241.44,366.77L251.5,359.49L261.56,350.51L271.62,339.84L281.68,327.64L291.74,314.19L311.86,284.59L321.92,268.89L352.1,219.49L362.16,202.83L382.28,171.22L392.34,156.45L402.4,142.84L412.46,131.01L422.52,121.01L432.58,112.27L452.7,97.65L462.76,91.13L482.88,79.9L492.94,74.66L523.12,57.95L533.18,51.54L563.36,28.45L573.42,23.77L583.48,22.54L593.54,25.12L603.6,32.57L613.66,45.34L623.72,62.53L633.78,83.72L643.84,109.04L653.9,137.38L694.14,256.15L704.2,280.81L714.26,301.64L724.32,318.34L734.38,331.55L744.44,342L754.5,350.15L764.56,356.68L774.62,362L784.68,366.42L804.8,373.32L814.86,375.97L834.98,379.91L845.04,381.27L865.16,383.06L875.22,383.63L915.46,384.62L925.52,384.68L975.82,384.42L985.88,383.9L995.94,382.28L1006,345.82" style="vector-effect: none; fill: none; stroke: rgb(240, 173, 78); stroke-opacity: 1; stroke-width: 2px; opacity: 1;"/></g><g class="points"/><g class="text"/></g><g class="trace scatter trace841fbe" style="stroke-miterlimit: 2; opacity: 1;"><g class="fills"/><g class="errorbars"/><g class="lines"><path class="js-line" d="M0,385L171.02,384.38L181.08,383.88L201.2,381.65L211.26,379.49L221.32,376.29L231.38,371.85L241.44,365.97L251.5,358.43L261.56,349.1L271.62,338.06L291.74,311.71L301.8,297.1L321.92,265.95L331.98,249.61L382.28,167.86L392.34,153.2L402.4,139.78L412.46,127.94L422.52,117.99L432.58,109.53L452.7,95.26L462.76,88.81L482.88,78.27L492.94,73.23L523.12,57.35L533.18,51.27L563.36,29.11L573.42,24.66L583.48,23.72L593.54,26.73L603.6,34.38L613.66,47.05L623.72,64.38L633.78,85.72L643.84,110.83L653.9,139.09L694.14,256.93L704.2,281.38L714.26,302.1L724.32,318.74L734.38,331.82L744.44,342.15L754.5,350.31L764.56,356.82L774.62,362.1L784.68,366.5L804.8,373.41L814.86,376.07L834.98,380.07L845.04,381.46L865.16,383.31L875.22,383.89L915.46,384.89L925.52,384.95L1006,384.99" style="vector-effect: none; fill: none; stroke: rgb(240, 173, 78); stroke-opacity: 1; stroke-width: 2px; opacity: 1;"/></g><g class="points"/><g class="text"/></g><g class="trace scatter trace2ac586" style="stroke-miterlimit: 2; opacity: 1;"><g class="fills"/><g class="errorbars"/><g class="lines"><path class="js-line" d="M0,385L171.02,384.4L181.08,383.93L201.2,381.78L211.26,379.66L221.32,376.56L231.38,372.24L241.44,366.5L251.5,359.07L261.56,349.86L271.62,339.03L281.68,326.7L291.74,313.09L311.86,283.24L321.92,267.44L352.1,217.58L362.16,200.77L382.28,168.9L392.34,154.33L402.4,140.89L412.46,129.02L422.52,119L432.58,110.57L452.7,96.32L462.76,90.11L482.88,79.46L492.94,74.48L523.12,58.72L533.18,52.54L563.36,30.46L573.42,25.84L583.48,24.93L593.54,27.88L603.6,35.49L613.66,48.22L623.72,65.37L633.78,86.6L643.84,111.84L653.9,140.01L694.14,257.7L704.2,282.09L714.26,302.77L724.32,319.29L734.38,332.28L744.44,342.56L754.5,350.66L764.56,357.18L774.62,362.42L784.68,366.77L804.8,373.54L814.86,376.15L834.98,379.99L845.04,381.33L875.22,383.65L885.28,384.04L935.58,384.69L945.64,384.69L975.82,384.38L985.88,383.81L995.94,381.86L1006,335.69" style="vector-effect: none; fill: none; stroke: rgb(240, 173, 78); stroke-opacity: 1; stroke-width: 2px; opacity: 1;"/></g><g class="points"/><g class="text"/></g><g class="trace scatter trace85bc10" style="stroke-miterlimit: 2; opacity: 1;"><g class="fills"/><g class="errorbars"/><g class="lines"><path class="js-line" d="M0,385L171.02,384.4L181.08,383.94L201.2,381.79L211.26,379.7L221.32,376.6L231.38,372.33L241.44,366.65L251.5,359.33L261.56,350.29L271.62,339.57L281.68,327.35L291.74,313.92L311.86,284.53L321.92,268.86L352.1,219.3L362.16,202.5L382.28,170.63L392.34,155.93L402.4,142.28L412.46,130.25L422.52,119.94L432.58,111.29L452.7,96.5L462.76,89.92L482.88,78.83L492.94,73.56L523.12,56.63L533.18,50.2L563.36,26.86L573.42,22.08L583.48,20.86L593.54,23.54L603.6,31.01L613.66,43.63L623.72,60.77L633.78,82.18L643.84,107.69L653.9,136.09L694.14,255.19L704.2,280.03L714.26,301L724.32,317.78L734.38,331.06L744.44,341.54L754.5,349.79L764.56,356.36L774.62,361.72L784.68,366.18L804.8,373.21L814.86,375.94L834.98,379.97L845.04,381.39L865.16,383.27L875.22,383.85L915.46,384.89L925.52,384.95L1006,385" style="vector-effect: none; fill: none; stroke: rgb(240, 173, 78); stroke-opacity: 1; stroke-width: 2px; opacity: 1;"/></g><g class="points"/><g class="text"/></g><g class="trace scatter trace602445" style="stroke-miterlimit: 2; opacity: 1;"><g class="fills"/><g class="errorbars"/><g class="lines"><path class="js-line" d="M0,385L171.02,384.43L181.08,383.99L201.2,381.89L211.26,379.86L221.32,376.84L231.38,372.62L241.44,367.02L251.5,359.83L261.56,350.93L271.62,340.34L281.68,328.29L291.74,314.94L311.86,285.66L321.92,269.93L352.1,220.3L362.16,203.47L382.28,171.56L392.34,156.74L402.4,143.11L412.46,131.08L422.52,120.73L432.58,111.99L452.7,97.32L462.76,91.13L482.88,79.79L492.94,74.52L523.12,57.76L533.18,51.26L563.36,27.95L573.42,23.26L583.48,21.88L593.54,24.34L603.6,31.67L613.66,44.37L623.72,61.6L633.78,82.97L643.84,108.4L653.9,136.73L694.14,255.75L704.2,280.46L714.26,301.35L724.32,318.16L734.38,331.41L744.44,341.81L754.5,350.05L764.56,356.62L784.68,366.41L794.74,370.15L814.86,375.91L824.92,378.12L845.04,381.23L855.1,382.27L885.28,384L895.34,384.28L945.64,384.67L955.7,384.65L985.88,383.87L995.94,382.33L1006,349.56" style="vector-effect: none; fill: none; stroke: rgb(240, 173, 78); stroke-opacity: 1; stroke-width: 2px; opacity: 1;"/></g><g class="points"/><g class="text"/></g><g class="trace scatter trace2e7f85" style="stroke-miterlimit: 2; opacity: 1;"><g class="fills"/><g class="errorbars"/><g class="lines"><path class="js-line" d="M0,385L171.02,384.4L181.08,383.93L201.2,381.77L211.26,379.66L221.32,376.57L231.38,372.24L241.44,366.42L251.5,358.93L261.56,349.71L271.62,338.85L281.68,326.46L291.74,312.77L311.86,282.51L321.92,266.5L352.1,216.12L362.16,198.99L382.28,166.66L392.34,151.68L402.4,137.76L412.46,125.69L422.52,115.66L432.58,106.97L452.7,92.42L462.76,86.15L482.88,75.58L492.94,70.65L523.12,55.29L533.18,49.46L563.36,28.55L573.42,24.35L583.48,24.01L593.54,27.65L603.6,35.82L613.66,49.05L623.72,66.75L633.78,88.29L643.84,113.71L653.9,142.05L684.08,231.92L694.14,259.13L704.2,283.26L714.26,303.6L724.32,319.86L734.38,332.75L744.44,342.87L754.5,350.8L764.56,357.12L774.62,362.31L794.74,370.38L804.8,373.45L824.92,378.28L834.98,380.06L855.1,382.52L865.16,383.3L895.34,384.57L905.4,384.77L985.88,384.99L995.94,384.99L1006,384.99" style="vector-effect: none; fill: none; stroke: rgb(240, 173, 78); stroke-opacity: 1; stroke-width: 2px; opacity: 1;"/></g><g class="points"/><g class="text"/></g><g class="trace scatter trace42546d" style="stroke-miterlimit: 2; opacity: 1;"><g class="fills"/><g class="errorbars"/><g class="lines"><path class="js-line" d="M0,385L171.02,384.42L181.08,383.96L201.2,381.85L211.26,379.79L221.32,376.77L231.38,372.53L241.44,366.82L251.5,359.48L261.56,350.43L271.62,339.7L281.68,327.34L291.74,313.73L311.86,283.68L321.92,267.7L352.1,216.86L362.16,199.81L382.28,167.42L392.34,152.35L402.4,138.44L412.46,126.42L422.52,116.18L432.58,107.34L452.7,92.8L462.76,86.55L482.88,75.93L492.94,71.11L523.12,55.67L533.18,49.72L563.36,28.66L573.42,24.72L583.48,24.15L593.54,27.59L603.6,35.93L613.66,49.1L623.72,66.79L633.78,88.55L643.84,114.07L653.9,142.37L684.08,232.15L694.14,259.36L704.2,283.49L714.26,303.76L724.32,319.98L734.38,332.8L744.44,342.96L754.5,350.91L764.56,357.22L774.62,362.39L794.74,370.36L804.8,373.47L824.92,378.23L834.98,379.93L855.1,382.32L865.16,383.07L895.34,384.31L905.4,384.5L965.76,384.6L975.82,384.37L985.88,383.86L995.94,382.44L1006,367.96" style="vector-effect: none; fill: none; stroke: rgb(240, 173, 78); stroke-opacity: 1; stroke-width: 2px; opacity: 1;"/></g><g class="points"/><g class="text"/></g><g class="trace scatter trace66a944" style="stroke-miterlimit: 2; opacity: 1;"><g class="fills"/><g class="errorbars"/><g class="lines"><path class="js-line" d="M0,385L171.02,384.39L181.08,383.92L201.2,381.74L211.26,379.61L221.32,376.45L231.38,372.07L241.44,366.19L251.5,358.63L261.56,349.43L271.62,338.46L281.68,325.89L291.74,312.1L311.86,281.97L321.92,265.94L382.28,166.19L392.34,151.31L402.4,137.69L412.46,125.61L422.52,115.59L432.58,107.05L452.7,92.65L462.76,86.32L472.82,80.6L482.88,75.75L513.06,60.93L523.12,55.63L533.18,49.92L543.24,43.07L553.3,35.62L563.36,29.32L573.42,25.24L583.48,24.52L593.54,28.01L603.6,36.22L613.66,49.46L623.72,67.12L633.78,88.79L643.84,114.31L663.96,171.91L674.02,202.27L684.08,231.83L694.14,258.97L704.2,283.14L714.26,303.57L724.32,319.89L734.38,332.77L744.44,342.88L754.5,350.75L764.56,357.08L774.62,362.25L794.74,370.31L804.8,373.42L824.92,378.31L834.98,380.06L855.1,382.52L865.16,383.29L895.34,384.57L905.4,384.77L985.88,384.99L995.94,384.99L1006,385" style="vector-effect: none; fill: none; stroke: rgb(240, 173, 78); stroke-opacity: 1; stroke-width: 2px; opacity: 1;"/></g><g class="points"/><g class="text"/></g><g class="trace scatter traceb35a54" style="stroke-miterlimit: 2; opacity: 1;"><g class="fills"/><g class="errorbars"/><g class="lines"><path class="js-line" d="M0,385L171.02,384.41L181.08,383.95L201.2,381.84L211.26,379.77L221.32,376.7L231.38,372.41L241.44,366.66L251.5,359.26L261.56,350.12L271.62,339.23L291.74,313.16L301.8,298.52L321.92,267.03L331.98,250.49L372.22,182.58L382.28,166.78L402.4,137.93L412.46,126L422.52,115.86L432.58,107.16L452.7,92.95L462.76,86.8L472.82,81.09L482.88,76.26L513.06,61.19L523.12,55.81L533.18,50.11L543.24,43.32L563.36,29.32L573.42,25.17L583.48,24.85L593.54,28.53L603.6,36.58L613.66,49.68L623.72,67.25L633.78,88.95L643.84,114.53L653.9,142.68L684.08,232.27L694.14,259.47L704.2,283.5L714.26,303.75L724.32,320.05L734.38,332.83L744.44,342.91L754.5,350.92L764.56,357.26L774.62,362.37L794.74,370.33L804.8,373.41L824.92,378.22L834.98,379.95L855.1,382.32L865.16,383.07L895.34,384.32L905.4,384.52L965.76,384.61L975.82,384.4L995.94,382.74L1006,368.41" style="vector-effect: none; fill: none; stroke: rgb(240, 173, 78); stroke-opacity: 1; stroke-width: 2px; opacity: 1;"/></g><g class="points"/><g class="text"/></g><g class="trace scatter traced38040" style="stroke-miterlimit: 2; opacity: 1;"><g class="fills"/><g class="errorbars"/><g class="lines"><path class="js-line" d="M0,385L171.02,384.35L181.08,383.84L201.2,381.52L211.26,379.24L221.32,375.91L231.38,371.34L241.44,365.2L251.5,357.33L261.56,347.7L271.62,336.32L291.74,309.57L301.8,294.5L331.98,246.82L342.04,230.23L372.22,181.1L382.28,166L392.34,151.64L402.4,138.66L412.46,127.37L422.52,117.59L432.58,109.39L442.64,102.26L462.76,89.8L472.82,84.33L523.12,59.29L533.18,53.32L563.36,31.57L573.42,27.2L583.48,26.28L593.54,29.18L603.6,36.74L613.66,49.37L623.72,66.41L633.78,87.4L643.84,112.31L653.9,140.2L694.14,257L704.2,281.31L714.26,301.96L724.32,318.57L734.38,331.65L744.44,341.93L754.5,350.06L764.56,356.56L784.68,366.35L794.74,370.12L814.86,376.01L824.92,378.28L845.04,381.46L855.1,382.55L885.28,384.31L895.34,384.58L945.64,384.99L955.7,384.99L1006,385" style="vector-effect: none; fill: none; stroke: rgb(240, 173, 78); stroke-opacity: 1; stroke-width: 2px; opacity: 1;"/></g><g class="points"/><g class="text"/></g><g class="trace scatter tracec97a15" style="stroke-miterlimit: 2; opacity: 1;"><g class="fills"/><g class="errorbars"/><g class="lines"><path class="js-line" d="M0,385L171.02,384.37L181.08,383.88L201.2,381.62L211.26,379.44L221.32,376.18L231.38,371.66L241.44,365.65L251.5,357.97L261.56,348.51L271.62,337.3L291.74,310.65L301.8,295.77L331.98,248.14L342.04,231.56L372.22,182.21L382.28,166.96L402.4,139.57L412.46,128.08L422.52,118.55L432.58,110.29L442.64,103L452.7,96.68L472.82,85.26L482.88,80.44L523.12,60.21L533.18,54.32L563.36,32.57L573.42,28.14L583.48,27.11L593.54,29.71L603.6,37.26L613.66,49.95L623.72,66.9L633.78,87.87L643.84,112.83L653.9,140.57L694.14,257.38L704.2,281.72L714.26,302.36L724.32,318.89L734.38,331.91L744.44,342.19L754.5,350.29L764.56,356.83L774.62,362.1L784.68,366.51L804.8,373.37L814.86,376.03L834.98,379.96L845.04,381.33L865.16,383.11L875.22,383.67L915.46,384.65L925.52,384.71L985.88,384.09L995.94,382.65L1006,348.43" style="vector-effect: none; fill: none; stroke: rgb(240, 173, 78); stroke-opacity: 1; stroke-width: 2px; opacity: 1;"/></g><g class="points"/><g class="text"/></g><g class="trace scatter tracef63c58" style="stroke-miterlimit: 2; opacity: 1;"><g class="fills"/><g class="errorbars"/><g class="lines"><path class="js-line" d="M0,385L171.02,384.35L181.08,383.85L201.2,381.55L211.26,379.3L221.32,376.01L231.38,371.42L241.44,365.31L251.5,357.51L261.56,347.94L271.62,336.66L291.74,309.8L301.8,294.91L331.98,247.1L342.04,230.53L372.22,181.21L382.28,165.95L402.4,138.57L412.46,127.06L422.52,117.37L432.58,109.06L452.7,95.24L462.76,89.08L472.82,83.38L482.88,78.56L513.06,63.53L523.12,58.14L533.18,52.27L543.24,45.07L553.3,37.23L563.36,30.43L573.42,26.19L583.48,25.41L593.54,28.47L603.6,36.22L613.66,49.07L623.72,66.29L633.78,87.59L643.84,112.73L663.96,170.41L674.02,200.82L684.08,230.54L694.14,257.91L704.2,282.21L714.26,302.86L724.32,319.38L734.38,332.41L744.44,342.69L754.5,350.74L764.56,357.18L774.62,362.46L794.74,370.51L804.8,373.62L824.92,378.46L834.98,380.2L855.1,382.6L865.16,383.36L895.34,384.59L905.4,384.78L985.88,384.99L995.94,384.99L1006,385" style="vector-effect: none; fill: none; stroke: rgb(240, 173, 78); stroke-opacity: 1; stroke-width: 2px; opacity: 1;"/></g><g class="points"/><g class="text"/></g><g class="trace scatter trace16c042" style="stroke-miterlimit: 2; opacity: 1;"><g class="fills"/><g class="errorbars"/><g class="lines"><path class="js-line" d="M0,385L171.02,384.37L181.08,383.88L201.2,381.63L211.26,379.44L221.32,376.21L231.38,371.73L241.44,365.75L251.5,358.06L261.56,348.61L271.62,337.39L291.74,310.82L301.8,295.95L331.98,248.13L342.04,231.56L372.22,182.05L382.28,166.79L402.4,139.29L412.46,127.74L422.52,118.04L432.58,109.76L452.7,95.99L462.76,89.93L482.88,79.26L492.94,74.51L523.12,58.95L533.18,53.03L563.36,31.14L573.42,26.79L583.48,25.96L593.54,28.97L603.6,36.64L613.66,49.46L623.72,66.79L633.78,87.97L643.84,113L653.9,141.03L694.14,258.28L704.2,282.56L714.26,303.16L724.32,319.66L734.38,332.67L744.44,342.94L754.5,350.99L764.56,357.41L774.62,362.64L784.68,366.98L804.8,373.7L814.86,376.29L834.98,380.09L845.04,381.4L865.16,383.16L875.22,383.7L915.46,384.65L925.52,384.71L985.88,384.17L995.94,382.88L1006,356.14" style="vector-effect: none; fill: none; stroke: rgb(240, 173, 78); stroke-opacity: 1; stroke-width: 2px; opacity: 1;"/></g><g class="points"/><g class="text"/></g><g class="trace scatter trace047764" style="stroke-miterlimit: 2; opacity: 1;"><g class="fills"/><g class="errorbars"/><g class="lines"><path class="js-line" d="M0,385L171.02,384.36L181.08,383.86L201.2,381.56L211.26,379.33L221.32,376.08L231.38,371.53L241.44,365.47L251.5,357.73L261.56,348.29L271.62,337.04L291.74,310.47L301.8,295.59L331.98,248.26L342.04,231.74L372.22,182.75L382.28,167.67L402.4,140.29L412.46,128.78L422.52,119.05L432.58,110.79L452.7,96.68L462.76,90.32L482.88,79.42L492.94,74.39L523.12,58.15L533.18,52.01L563.36,29.56L573.42,24.99L583.48,23.99L593.54,26.84L603.6,34.41L613.66,47.17L623.72,64.33L633.78,85.55L643.84,110.81L653.9,138.94L694.14,256.72L704.2,281.22L714.26,301.95L724.32,318.65L734.38,331.86L744.44,342.19L754.5,350.32L764.56,356.86L774.62,362.14L784.68,366.57L804.8,373.46L814.86,376.14L834.98,380.12L845.04,381.5L865.16,383.33L875.22,383.9L915.46,384.89L925.52,384.95L1006,384.99" style="vector-effect: none; fill: none; stroke: rgb(240, 173, 78); stroke-opacity: 1; stroke-width: 2px; opacity: 1;"/></g><g class="points"/><g class="text"/></g><g class="trace scatter trace7e8443" style="stroke-miterlimit: 2; opacity: 1;"><g class="fills"/><g class="errorbars"/><g class="lines"><path class="js-line" d="M0,385L171.02,384.37L181.08,383.89L201.2,381.66L211.26,379.48L221.32,376.29L231.38,371.85L241.44,365.9L251.5,358.28L261.56,348.92L271.62,337.82L291.74,311.4L301.8,296.69L331.98,249.2L342.04,232.68L372.22,183.62L382.28,168.53L402.4,140.93L412.46,129.4L422.52,119.79L432.58,111.49L452.7,97.34L462.76,91.08L482.88,80.06L492.94,74.99L523.12,58.77L533.18,52.54L563.36,30.15L573.42,25.54L583.48,24.42L593.54,27.26L603.6,34.77L613.66,47.43L623.72,64.67L633.78,85.96L643.84,111.16L653.9,139.25L694.14,257.14L704.2,281.64L714.26,302.36L724.32,319.03L734.38,332.17L744.44,342.48L754.5,350.59L764.56,357.07L774.62,362.34L784.68,366.76L804.8,373.57L814.86,376.18L834.98,380.05L845.04,381.39L875.22,383.7L885.28,384.09L935.58,384.75L945.64,384.75L985.88,384.23L995.94,383.11L1006,357.15" style="vector-effect: none; fill: none; stroke: rgb(240, 173, 78); stroke-opacity: 1; stroke-width: 2px; opacity: 1;"/></g><g class="points"/><g class="text"/></g></g></g></g><path class="xlines-above crisp" d="M0,0" style="fill: none;"/><path class="ylines-above crisp" d="M0,0" style="fill: none;"/><g class="overlines-above"/><g class="xaxislayer-above"><g class="xtick"><text text-anchor="middle" x="0" y="451" transform="translate(68,0)" style="font-family: 'Lucida Grande', 'Open Sans', verdana, arial, sans-serif; font-size: 10px; fill: rgb(0, 0, 0); fill-opacity: 1; white-space: pre; opacity: 1;">0%</text></g><g class="xtick"><text text-anchor="middle" x="0" y="451" style="font-family: 'Lucida Grande', 'Open Sans', verdana, arial, sans-serif; font-size: 10px; fill: rgb(0, 0, 0); fill-opacity: 1; white-space: pre; opacity: 1;" transform="translate(269.2,0)">20%</text></g><g class="xtick"><text text-anchor="middle" x="0" y="451" style="font-family: 'Lucida Grande', 'Open Sans', verdana, arial, sans-serif; font-size: 10px; fill: rgb(0, 0, 0); fill-opacity: 1; white-space: pre; opacity: 1;" transform="translate(470.4,0)">40%</text></g><g class="xtick"><text text-anchor="middle" x="0" y="451" style="font-family: 'Lucida Grande', 'Open Sans', verdana, arial, sans-serif; font-size: 10px; fill: rgb(0, 0, 0); fill-opacity: 1; white-space: pre; opacity: 1;" transform="translate(671.6,0)">60%</text></g><g class="xtick"><text text-anchor="middle" x="0" y="451" style="font-family: 'Lucida Grande', 'Open Sans', verdana, arial, sans-serif; font-size: 10px; fill: rgb(0, 0, 0); fill-opacity: 1; white-space: pre; opacity: 1;" transform="translate(872.8,0)">80%</text></g><g class="xtick"><text text-anchor="middle" x="0" y="451" style="font-family: 'Lucida Grande', 'Open Sans', verdana, arial, sans-serif; font-size: 10px; fill: rgb(0, 0, 0); fill-opacity: 1; white-space: pre; opacity: 1;" transform="translate(1074,0)">100%</text></g></g><g class="yaxislayer-above"><g class="ytick"><text text-anchor="end" x="62" y="3.5" transform="translate(0,435)" style="font-family: 'Lucida Grande', 'Open Sans', verdana, arial, sans-serif; font-size: 10px; fill: rgb(0, 0, 0); fill-opacity: 1; white-space: pre; opacity: 1;">0%</text></g><g class="ytick"><text text-anchor="end" x="62" y="3.5" style="font-family: 'Lucida Grande', 'Open Sans', verdana, arial, sans-serif; font-size: 10px; fill: rgb(0, 0, 0); fill-opacity: 1; white-space: pre; opacity: 1;" transform="translate(0,379.08)">0.5%</text></g><g class="ytick"><text text-anchor="end" x="62" y="3.5" style="font-family: 'Lucida Grande', 'Open Sans', verdana, arial, sans-serif; font-size: 10px; fill: rgb(0, 0, 0); fill-opacity: 1; white-space: pre; opacity: 1;" transform="translate(0,323.17)">1%</text></g><g class="ytick"><text text-anchor="end" x="62" y="3.5" style="font-family: 'Lucida Grande', 'Open Sans', verdana, arial, sans-serif; font-size: 10px; fill: rgb(0, 0, 0); fill-opacity: 1; white-space: pre; opacity: 1;" transform="translate(0,267.25)">1.5%</text></g><g class="ytick"><text text-anchor="end" x="62" y="3.5" style="font-family: 'Lucida Grande', 'Open Sans', verdana, arial, sans-serif; font-size: 10px; fill: rgb(0, 0, 0); fill-opacity: 1; white-space: pre; opacity: 1;" transform="translate(0,211.34)">2%</text></g><g class="ytick"><text text-anchor="end" x="62" y="3.5" style="font-family: 'Lucida Grande', 'Open Sans', verdana, arial, sans-serif; font-size: 10px; fill: rgb(0, 0, 0); fill-opacity: 1; white-space: pre; opacity: 1;" transform="translate(0,155.42000000000002)">2.5%</text></g><g class="ytick"><text text-anchor="end" x="62" y="3.5" style="font-family: 'Lucida Grande', 'Open Sans', verdana, arial, sans-serif; font-size: 10px; fill: rgb(0, 0, 0); fill-opacity: 1; white-space: pre; opacity: 1;" transform="translate(0,99.50999999999999)">3%</text></g></g><g class="overaxes-above"/></g></g><g class="polarlayer"/><g class="smithlayer"/><g class="ternarylayer"/><g class="geolayer"/><g class="funnelarealayer"/><g class="pielayer"/><g class="iciclelayer"/><g class="treemaplayer"/><g class="sunburstlayer"/><g class="glimages"/><defs id="topdefs-75e5bd"><g class="clips"/></defs><g class="layer-above"><g class="imagelayer"/><g class="shapelayer"/></g><g class="infolayer"><g class="g-gtitle"><text class="gtitle" x="550" y="25" text-anchor="middle" dy="0em" style="opacity: 1; font-family: 'Lucida Grande', 'Open Sans', verdana, arial, sans-serif; font-size: 20px; fill: rgb(42, 63, 95); fill-opacity: 1; white-space: pre;"><tspan class="line" dy="0em" x="550" y="25">FastQC: Per Sequence GC Content</tspan><tspan class="line" dy="1.3em" x="550" y="25">​<tspan style="font-size:70%" dy="-0.6em">Percentages, 82 samples</tspan><tspan dy="0.42em">​</tspan></tspan></text></g><g class="g-xtitle"><text class="xtitle" x="571" y="472.3" text-anchor="middle" style="opacity: 0.3; font-family: 'Lucida Grande', 'Open Sans', verdana, arial, sans-serif; font-size: 14px; fill: rgb(0, 0, 0); fill-opacity: 1; white-space: pre;">% GC</text></g><g class="g-ytitle"><text class="ytitle" transform="rotate(-90,22.19375,242.5)" x="22.19375" y="242.5" text-anchor="middle" style="opacity: 0.3; font-family: 'Lucida Grande', 'Open Sans', verdana, arial, sans-serif; font-size: 14px; fill: rgb(0, 0, 0); fill-opacity: 1; white-space: pre;">Percentage</text></g></g></svg>