<svg class="main-svg" xmlns="http://www.w3.org/2000/svg" xmlns:xlink="http://www.w3.org/1999/xlink" width="2200" height="1000" style="" viewBox="0 0 1100 500"><rect x="0" y="0" width="1100" height="500" style="fill: rgb(255, 255, 255); fill-opacity: 1;"/><defs id="defs-26fcd1"><g class="clips"><clipPath id="clip26fcd1xyplot" class="plotclip"><rect width="1010" height="385"/></clipPath><clipPath class="axesclip" id="clip26fcd1x"><rect x="64" y="0" width="1010" height="500"/></clipPath><clipPath class="axesclip" id="clip26fcd1y"><rect x="0" y="50" width="1100" height="385"/></clipPath><clipPath class="axesclip" id="clip26fcd1xy"><rect x="64" y="50" width="1010" height="385"/></clipPath></g><g class="gradients"/><g class="patterns"/></defs><g class="bglayer"/><g class="layer-below"><g class="imagelayer"/><g class="shapelayer"/></g><g class="cartesianlayer"><g class="subplot xy"><g class="layer-subplot"><g class="shapelayer"/><g class="imagelayer"/></g><g class="minor-gridlayer"><g class="x"/><g class="y"/></g><g class="gridlayer"><g class="x"><path class="xgrid crisp" transform="translate(266,0)" d="M0,50v385" style="stroke: rgb(0, 0, 0); stroke-opacity: 0.05; stroke-width: 1px;"/><path class="xgrid crisp" transform="translate(468,0)" d="M0,50v385" style="stroke: rgb(0, 0, 0); stroke-opacity: 0.05; stroke-width: 1px;"/><path class="xgrid crisp" transform="translate(670,0)" d="M0,50v385" style="stroke: rgb(0, 0, 0); stroke-opacity: 0.05; stroke-width: 1px;"/><path class="xgrid crisp" transform="translate(872,0)" d="M0,50v385" style="stroke: rgb(0, 0, 0); stroke-opacity: 0.05; stroke-width: 1px;"/></g><g class="y"><path class="ygrid crisp" transform="translate(0,361.19)" d="M64,0h1010" style="stroke: rgb(0, 0, 0); stroke-opacity: 0.05; stroke-width: 1px;"/><path class="ygrid crisp" transform="translate(0,287.38)" d="M64,0h1010" style="stroke: rgb(0, 0, 0); stroke-opacity: 0.05; stroke-width: 1px;"/><path class="ygrid crisp" transform="translate(0,213.57)" d="M64,0h1010" style="stroke: rgb(0, 0, 0); stroke-opacity: 0.05; stroke-width: 1px;"/><path class="ygrid crisp" transform="translate(0,139.76)" d="M64,0h1010" style="stroke: rgb(0, 0, 0); stroke-opacity: 0.05; stroke-width: 1px;"/><path class="ygrid crisp" transform="translate(0,65.95)" d="M64,0h1010" style="stroke: rgb(0, 0, 0); stroke-opacity: 0.05; stroke-width: 1px;"/></g></g><g class="zerolinelayer"><path class="xzl zl crisp" transform="translate(64,0)" d="M0,50v385" style="stroke: rgb(0, 0, 0); stroke-opacity: 0.05; stroke-width: 2px;"/><path class="yzl zl crisp" transform="translate(0,435)" d="M64,0h1010" style="stroke: rgb(0, 0, 0); stroke-opacity: 0.05; stroke-width: 2px;"/></g><g class="layer-between"><g class="shapelayer"/><g class="imagelayer"/></g><path class="xlines-below"/><path class="ylines-below"/><g class="overlines-below"/><g class="xaxislayer-below"/><g class="yaxislayer-below"/><g class="overaxes-below"/><g class="overplot"><g class="xy" transform="translate(64,50)" clip-path="url(#clip26fcd1xyplot)"><g class="scatterlayer mlayer"><g class="trace scatter trace304fb5" style="stroke-miterlimit: 2; opacity: 1;"><g class="fills"/><g class="errorbars"/><g class="lines"><path class="js-line" d="M0,385L171.7,384.42L181.8,383.98L202,381.93L212.1,379.93L222.2,377.02L232.3,372.97L242.4,367.57L252.5,360.66L262.6,352.14L272.7,342.18L292.9,318.58L303,305.54L333.3,263.97L343.4,249.73L373.7,207.85L383.8,195.07L404,172.3L414.1,162.91L424.2,155.07L434.3,148.58L454.5,137.99L464.6,133.29L484.8,125.5L494.9,122.01L525.2,110.39L535.3,105.87L565.6,88.77L575.7,85.38L585.8,84.95L595.9,87.79L606,94.47L616.1,105.3L626.2,119.79L636.3,137.54L646.4,158.54L656.5,182.07L686.8,257.01L696.9,279.83L707,300.05L717.1,317.2L727.2,330.97L737.3,341.76L747.4,350.25L757.5,356.98L767.6,362.32L777.7,366.66L797.9,373.36L808,375.9L828.2,379.81L838.3,381.23L868.6,383.72L878.7,384.17L929.2,384.97L939.3,384.99L1010,385" style="vector-effect: none; fill: none; stroke: rgb(240, 173, 78); stroke-opacity: 1; stroke-width: 2px; opacity: 1;"/></g><g class="points"/><g class="text"/></g><g class="trace scatter traced0bd0e" style="stroke-miterlimit: 2; opacity: 1;"><g class="fills"/><g class="errorbars"/><g class="lines"><path class="js-line" d="M0,385L171.7,384.45L181.8,384.02L202,382.03L212.1,380.1L222.2,377.25L232.3,373.28L242.4,368L252.5,361.25L262.6,352.95L272.7,343.12L292.9,319.73L303,306.68L333.3,265.3L343.4,250.94L363.6,222.33L373.7,208.85L393.9,184.17L404,173.34L414.1,164.04L424.2,156.19L434.3,149.63L444.4,144.1L464.6,134.61L474.7,130.55L515.1,116.01L525.2,111.99L535.3,107.32L545.4,101.74L565.6,90.34L575.7,86.86L585.8,86.4L595.9,89.17L606,95.68L616.1,106.5L626.2,121.05L636.3,138.74L646.4,159.7L656.5,183.15L696.9,280.77L707,300.93L717.1,317.99L727.2,331.64L737.3,342.35L747.4,350.8L757.5,357.45L767.6,362.77L787.8,370.61L797.9,373.59L818.1,378.14L828.2,379.82L848.4,382.16L858.5,382.94L888.8,384.18L898.9,384.38L959.5,384.53L969.6,384.37L989.8,383.32L999.9,381.14L1010,358.69" style="vector-effect: none; fill: none; stroke: rgb(240, 173, 78); stroke-opacity: 1; stroke-width: 2px; opacity: 1;"/></g><g class="points"/><g class="text"/></g><g class="trace scatter trace961d4d" style="stroke-miterlimit: 2; opacity: 1;"><g class="fills"/><g class="errorbars"/><g class="lines"><path class="js-line" d="M0,385L181.8,384.55L191.9,384.2L212.1,382.74L222.2,381.45L242.4,377.21L252.5,374.15L272.7,365.95L282.8,360.95L313.1,343.66L323.2,337.51L383.8,300.7L393.9,295.39L414.1,286.31L424.2,282.76L444.4,277.3L454.5,275.05L484.8,269.24L494.9,267.59L535.3,260.55L545.4,258.04L565.6,253.06L575.7,251.69L585.8,251.62L595.9,253.1L606,256.21L616.1,261.08L626.2,267.56L636.3,275.56L656.5,295.27L666.6,306.22L686.8,328.42L696.9,338.5L707,347.43L717.1,354.96L727.2,361.01L737.3,365.77L757.5,372.49L767.6,374.84L787.8,378.37L797.9,379.72L828.2,382.64L838.3,383.27L878.7,384.62L888.8,384.76L999.9,385L1010,385" style="vector-effect: none; fill: none; stroke: rgb(240, 173, 78); stroke-opacity: 1; stroke-width: 2px; opacity: 1;"/></g><g class="points"/><g class="text"/></g><g class="trace scatter trace98cccc" style="stroke-miterlimit: 2; opacity: 1;"><g class="fills"/><g class="errorbars"/><g class="lines"><path class="js-line" d="M0,385L181.8,384.57L191.9,384.24L212.1,382.82L222.2,381.55L242.4,377.45L252.5,374.43L272.7,366.39L282.8,361.45L303,350.29L313.1,344.3L383.8,301.49L393.9,296.19L414.1,287.16L424.2,283.66L444.4,278.19L454.5,275.93L484.8,270.25L494.9,268.66L535.3,261.58L545.4,259.17L565.6,254.22L575.7,252.83L585.8,252.72L595.9,254.08L606,257.14L616.1,262.03L626.2,268.48L636.3,276.41L656.5,296.08L666.6,306.96L686.8,328.98L696.9,339L707,347.86L717.1,355.36L727.2,361.37L737.3,366.06L757.5,372.71L767.6,375.05L787.8,378.53L797.9,379.84L828.2,382.64L838.3,383.24L878.7,384.51L888.8,384.65L969.6,384.8L979.7,384.69L999.9,383.51L1010,365.93" style="vector-effect: none; fill: none; stroke: rgb(240, 173, 78); stroke-opacity: 1; stroke-width: 2px; opacity: 1;"/></g><g class="points"/><g class="text"/></g><g class="trace scatter trace25732c" style="stroke-miterlimit: 2; opacity: 1;"><g class="fills"/><g class="errorbars"/><g class="lines"><path class="js-line" d="M0,385L181.8,384.55L191.9,384.22L212.1,382.78L222.2,381.49L242.4,377.32L252.5,374.28L272.7,366.18L282.8,361.23L303,350L313.1,343.98L383.8,300.47L393.9,295.04L414.1,285.61L424.2,281.9L444.4,275.95L454.5,273.49L484.8,267.12L494.9,265.28L535.3,256.73L545.4,253.85L565.6,248.11L575.7,246.39L585.8,245.98L595.9,247.13L606,250.08L616.1,255L626.2,261.56L636.3,269.72L646.4,279.46L656.5,290.26L696.9,335.6L707,344.99L717.1,352.99L727.2,359.44L737.3,364.51L747.4,368.49L767.6,374.12L777.7,376.18L808,380.55L818.1,381.58L848.4,383.65L858.5,384.07L909,384.92L919.1,384.96L1010,385" style="vector-effect: none; fill: none; stroke: rgb(240, 173, 78); stroke-opacity: 1; stroke-width: 2px; opacity: 1;"/></g><g class="points"/><g class="text"/></g><g class="trace scatter trace3bfead" style="stroke-miterlimit: 2; opacity: 1;"><g class="fills"/><g class="errorbars"/><g class="lines"><path class="js-line" d="M0,385L181.8,384.57L191.9,384.24L212.1,382.85L222.2,381.61L242.4,377.56L252.5,374.58L272.7,366.64L282.8,361.77L303,350.71L313.1,344.75L353.5,319.54L363.6,313.15L393.9,295.83L404,290.82L424.2,282.79L434.3,279.66L464.6,272.2L474.7,270.04L525.2,260.26L535.3,257.93L565.6,249.33L575.7,247.54L585.8,247.09L595.9,248.2L606,251.06L616.1,255.91L626.2,262.48L636.3,270.61L646.4,280.26L656.5,290.99L696.9,336.11L707,345.52L717.1,353.45L727.2,359.8L737.3,364.83L747.4,368.77L767.6,374.37L777.7,376.38L808,380.67L818.1,381.65L848.4,383.61L858.5,383.99L909,384.78L919.1,384.82L989.8,384.32L999.9,383.31L1010,365.2" style="vector-effect: none; fill: none; stroke: rgb(240, 173, 78); stroke-opacity: 1; stroke-width: 2px; opacity: 1;"/></g><g class="points"/><g class="text"/></g><g class="trace scatter trace452bcf" style="stroke-miterlimit: 2; opacity: 1;"><g class="fills"/><g class="errorbars"/><g class="lines"><path class="js-line" d="M0,385L171.7,384.49L181.8,384.08L202,382.26L212.1,380.47L222.2,377.85L232.3,374.21L242.4,369.35L252.5,363.12L262.6,355.49L272.7,346.48L292.9,325.15L303,313.18L333.3,274.78L343.4,261.42L373.7,221.53L383.8,209.3L404,187.15L414.1,177.89L424.2,170.04L434.3,163.4L454.5,152.49L464.6,147.74L484.8,139.74L494.9,135.92L525.2,123.9L535.3,119.2L565.6,102.27L575.7,98.87L585.8,98.26L595.9,100.9L606,107.31L616.1,117.61L626.2,131.44L636.3,148.58L646.4,168.79L656.5,191.24L686.8,262.79L696.9,284.59L707,303.9L717.1,320.24L727.2,333.32L737.3,343.61L747.4,351.73L757.5,358.13L767.6,363.24L777.7,367.36L797.9,373.71L808,376.15L828.2,379.95L838.3,381.3L868.6,383.74L878.7,384.18L929.2,384.97L939.3,384.99L1010,385" style="vector-effect: none; fill: none; stroke: rgb(240, 173, 78); stroke-opacity: 1; stroke-width: 2px; opacity: 1;"/></g><g class="points"/><g class="text"/></g><g class="trace scatter trace730a05" style="stroke-miterlimit: 2; opacity: 1;"><g class="fills"/><g class="errorbars"/><g class="lines"><path class="js-line" d="M0,385L171.7,384.5L181.8,384.11L202,382.33L212.1,380.58L222.2,378L232.3,374.43L242.4,369.66L252.5,363.52L262.6,355.99L272.7,347.06L292.9,325.8L303,313.93L333.3,275.51L343.4,262.15L373.7,222.21L383.8,209.91L404,187.71L414.1,178.53L424.2,170.76L434.3,164.13L454.5,153.38L464.6,148.63L484.8,140.53L494.9,136.84L525.2,124.85L535.3,120.2L565.6,103.37L575.7,99.98L585.8,99.35L595.9,101.85L606,108.09L616.1,118.47L626.2,132.35L636.3,149.33L646.4,169.46L656.5,191.85L696.9,285.06L707,304.33L717.1,320.58L727.2,333.61L737.3,343.88L747.4,351.95L757.5,358.32L767.6,363.41L787.8,370.93L797.9,373.78L818.1,378.22L828.2,379.89L848.4,382.23L858.5,383.02L898.9,384.5L909,384.64L979.7,384.57L989.8,384.25L999.9,383.27L1010,368.29" style="vector-effect: none; fill: none; stroke: rgb(240, 173, 78); stroke-opacity: 1; stroke-width: 2px; opacity: 1;"/></g><g class="points"/><g class="text"/></g><g class="trace scatter traced5ec90" style="stroke-miterlimit: 2; opacity: 1;"><g class="fills"/><g class="errorbars"/><g class="lines"><path class="js-line" d="M0,385L171.7,384.4L181.8,383.92L202,381.75L212.1,379.65L222.2,376.56L232.3,372.26L242.4,366.55L252.5,359.24L262.6,350.24L272.7,339.59L292.9,314.34L303,300.33L333.3,255.12L343.4,239.45L373.7,192.82L383.8,178.29L404,152.44L414.1,141.58L424.2,132.57L434.3,124.83L454.5,111.95L464.6,106.28L484.8,96.69L494.9,92.23L525.2,77.75L535.3,72.22L565.6,52.24L575.7,48.57L585.8,48.12L595.9,51.44L606,59.1L616.1,71.5L626.2,88.06L636.3,108.4L646.4,132.3L656.5,158.8L686.8,242.97L696.9,268.39L707,290.84L717.1,309.86L727.2,325.06L737.3,337.07L747.4,346.51L757.5,353.88L767.6,359.79L777.7,364.62L797.9,372.04L808,374.89L828.2,379.24L838.3,380.8L858.5,382.93L868.6,383.59L909,384.82L919.1,384.91L1010,384.99" style="vector-effect: none; fill: none; stroke: rgb(240, 173, 78); stroke-opacity: 1; stroke-width: 2px; opacity: 1;"/></g><g class="points"/><g class="text"/></g><g class="trace scatter trace8fba67" style="stroke-miterlimit: 2; opacity: 1;"><g class="fills"/><g class="errorbars"/><g class="lines"><path class="js-line" d="M0,385L171.7,384.42L181.8,383.96L202,381.85L212.1,379.78L222.2,376.74L232.3,372.53L242.4,366.9L252.5,359.69L262.6,350.8L272.7,340.25L292.9,315.17L303,301.2L333.3,255.98L343.4,240.2L373.7,193.4L383.8,179.03L404,153.05L414.1,142.23L424.2,133.14L434.3,125.4L454.5,112.7L464.6,107.16L484.8,97.55L494.9,93.14L525.2,78.79L535.3,73.2L565.6,53.35L575.7,49.61L585.8,49.07L595.9,52.36L606,60.02L616.1,72.37L626.2,88.99L636.3,109.27L646.4,133.11L656.5,159.62L686.8,243.57L696.9,269L707,291.44L717.1,310.37L727.2,325.51L737.3,337.4L747.4,346.76L757.5,354.14L767.6,360.03L777.7,364.8L797.9,372.1L808,374.87L828.2,379.13L838.3,380.64L858.5,382.67L868.6,383.31L909,384.49L919.1,384.57L979.7,384.1L989.8,383.42L999.9,381.35L1010,368.83" style="vector-effect: none; fill: none; stroke: rgb(240, 173, 78); stroke-opacity: 1; stroke-width: 2px; opacity: 1;"/></g><g class="points"/><g class="text"/></g><g class="trace scatter trace9ccd58" style="stroke-miterlimit: 2; opacity: 1;"><g class="fills"/><g class="errorbars"/><g class="lines"><path class="js-line" d="M0,385L171.7,384.4L181.8,383.93L202,381.76L212.1,379.65L222.2,376.55L232.3,372.26L242.4,366.55L252.5,359.17L262.6,350.15L272.7,339.49L282.8,327.29L292.9,313.9L313.1,284.59L323.2,269.05L353.5,220.11L363.6,203.53L383.8,172.15L393.9,157.71L404,144.34L414.1,132.46L424.2,122.42L434.3,113.79L454.5,99.38L464.6,92.97L484.8,81.96L494.9,76.98L525.2,60.7L535.3,54.5L565.6,32.2L575.7,27.64L585.8,26.59L595.9,29.56L606,37.27L616.1,49.96L626.2,67.04L636.3,88.27L646.4,113.48L656.5,141.51L696.9,258.12L707,282.33L717.1,302.87L727.2,319.36L737.3,332.33L747.4,342.55L757.5,350.6L767.6,357.04L787.8,366.64L797.9,370.35L818.1,376.12L828.2,378.35L848.4,381.49L858.5,382.55L888.8,384.29L898.9,384.57L949.4,384.99L959.5,384.99L1010,384.99" style="vector-effect: none; fill: none; stroke: rgb(240, 173, 78); stroke-opacity: 1; stroke-width: 2px; opacity: 1;"/></g><g class="points"/><g class="text"/></g><g class="trace scatter traceab3eaa" style="stroke-miterlimit: 2; opacity: 1;"><g class="fills"/><g class="errorbars"/><g class="lines"><path class="js-line" d="M0,385L171.7,384.41L181.8,383.95L202,381.86L212.1,379.82L222.2,376.79L232.3,372.59L242.4,366.97L252.5,359.75L262.6,350.84L272.7,340.28L282.8,328.27L292.9,315.05L313.1,285.82L323.2,270.35L353.5,221.46L363.6,204.89L383.8,173.51L393.9,158.96L404,145.48L414.1,133.69L424.2,123.7L434.3,115.12L454.5,100.77L464.6,94.5L484.8,83.45L494.9,78.43L525.2,62.1L535.3,56.03L565.6,33.79L575.7,29.27L585.8,28.28L595.9,31.19L606,38.75L616.1,51.36L626.2,68.49L636.3,89.61L646.4,114.55L656.5,142.45L686.8,231.8L696.9,258.97L707,283.04L717.1,303.48L727.2,319.86L737.3,332.73L747.4,342.84L757.5,350.82L767.6,357.23L777.7,362.41L797.9,370.4L808,373.49L828.2,378.26L838.3,379.98L858.5,382.33L868.6,383.08L898.9,384.3L909,384.5L969.6,384.61L979.7,384.43L989.8,384L999.9,382.74L1010,356.68" style="vector-effect: none; fill: none; stroke: rgb(240, 173, 78); stroke-opacity: 1; stroke-width: 2px; opacity: 1;"/></g><g class="points"/><g class="text"/></g><g class="trace scatter tracee91787" style="stroke-miterlimit: 2; opacity: 1;"><g class="fills"/><g class="errorbars"/><g class="lines"><path class="js-line" d="M0,385L171.7,384.47L181.8,384.05L202,382.14L212.1,380.28L222.2,377.55L232.3,373.75L242.4,368.68L252.5,362.14L262.6,354.13L272.7,344.63L292.9,321.8L303,309L323.2,281.48L333.3,267.1L383.8,193.47L393.9,180.19L404,167.86L414.1,157.04L424.2,147.85L434.3,139.84L454.5,126.42L464.6,120.37L484.8,110.13L494.9,105.39L525.2,89.71L535.3,83.74L565.6,62.74L575.7,58.32L585.8,57.13L595.9,59.63L606,66.48L616.1,78.01L626.2,93.51L636.3,112.87L646.4,135.86L656.5,161.47L686.8,243.62L696.9,268.61L707,290.81L717.1,309.64L727.2,324.73L737.3,336.62L747.4,345.96L757.5,353.33L767.6,359.22L777.7,364.03L797.9,371.48L808,374.36L828.2,378.87L838.3,380.5L858.5,382.74L868.6,383.44L898.9,384.61L909,384.79L989.8,384.99L999.9,384.99L1010,384.99" style="vector-effect: none; fill: none; stroke: rgb(240, 173, 78); stroke-opacity: 1; stroke-width: 2px; opacity: 1;"/></g><g class="points"/><g class="text"/></g><g class="trace scatter traced80ee5" style="stroke-miterlimit: 2; opacity: 1;"><g class="fills"/><g class="errorbars"/><g class="lines"><path class="js-line" d="M0,385L171.7,384.48L181.8,384.08L202,382.24L212.1,380.44L222.2,377.77L232.3,374.06L242.4,369.09L252.5,362.67L262.6,354.77L272.7,345.44L282.8,334.74L292.9,322.9L313.1,296.81L323.2,282.94L353.5,238.65L363.6,223.61L383.8,194.99L393.9,181.69L404,169.41L414.1,158.52L424.2,149.23L434.3,141.29L454.5,128.09L464.6,122.16L484.8,111.96L494.9,107.05L525.2,91.68L535.3,85.75L565.6,64.5L575.7,60.09L585.8,58.86L595.9,61.2L606,67.85L616.1,79.18L626.2,94.68L636.3,113.92L646.4,136.66L656.5,162.06L696.9,269.04L707,291.16L717.1,309.88L727.2,324.98L737.3,336.85L747.4,346.16L757.5,353.5L767.6,359.39L787.8,368.15L797.9,371.54L818.1,376.76L828.2,378.75L848.4,381.59L858.5,382.53L888.8,384.11L898.9,384.36L959.5,384.69L969.6,384.62L989.8,383.93L999.9,382.05L1010,356.28" style="vector-effect: none; fill: none; stroke: rgb(217, 83, 79); stroke-opacity: 1; stroke-width: 2px; opacity: 1;"/></g><g class="points"/><g class="text"/></g><g class="trace scatter tracead2d5c" style="stroke-miterlimit: 2; opacity: 1;"><g class="fills"/><g class="errorbars"/><g class="lines"><path class="js-line" d="M0,385L242.4,384.27L252.5,383.99L313.1,381.08L323.2,380.5L424.2,375.39L434.3,375.1L575.7,372.65L585.8,372.68L616.1,373.59L626.2,374.21L666.6,377.82L676.7,378.86L717.1,382.24L727.2,382.8L777.7,384.24L787.8,384.38L888.8,384.98L898.9,384.99L1010,385" style="vector-effect: none; fill: none; stroke: rgb(240, 173, 78); stroke-opacity: 1; stroke-width: 2px; opacity: 1;"/></g><g class="points"/><g class="text"/></g><g class="trace scatter tracefd4fe9" style="stroke-miterlimit: 2; opacity: 1;"><g class="fills"/><g class="errorbars"/><g class="lines"><path class="js-line" d="M0,385L242.4,384.3L252.5,384.01L303,381.72L313.1,381.17L414.1,375.78L424.2,375.45L494.9,374.1L505,373.95L595.9,372.87L606,373.18L636.3,375.02L646.4,375.87L717.1,382.27L727.2,382.81L777.7,384.24L787.8,384.38L888.8,384.97L898.9,384.98L999.9,384.87L1010,383.83" style="vector-effect: none; fill: none; stroke: rgb(240, 173, 78); stroke-opacity: 1; stroke-width: 2px; opacity: 1;"/></g><g class="points"/><g class="text"/></g><g class="trace scatter trace0af2ef" style="stroke-miterlimit: 2; opacity: 1;"><g class="fills"/><g class="errorbars"/><g class="lines"><path class="js-line" d="M0,385L171.7,384.46L181.8,384.05L202,382.11L212.1,380.23L222.2,377.46L232.3,373.62L242.4,368.5L252.5,361.94L262.6,353.89L272.7,344.36L292.9,321.65L303,308.96L333.3,267.87L343.4,253.52L373.7,210.52L383.8,197.16L404,172.86L414.1,162.73L424.2,154.13L434.3,146.76L454.5,134.33L464.6,128.84L484.8,119.59L494.9,115.2L525.2,101.31L535.3,95.96L565.6,76.44L575.7,72.39L585.8,71.47L595.9,73.99L606,80.51L616.1,91.51L626.2,106.36L636.3,124.73L646.4,146.61L656.5,170.97L696.9,273.05L707,294.33L717.1,312.37L727.2,326.9L737.3,338.34L747.4,347.35L757.5,354.43L767.6,360.08L787.8,368.66L797.9,371.91L818.1,377.08L828.2,379.04L848.4,381.85L858.5,382.8L888.8,384.37L898.9,384.62L959.5,384.99L969.6,384.99L1010,384.99" style="vector-effect: none; fill: none; stroke: rgb(240, 173, 78); stroke-opacity: 1; stroke-width: 2px; opacity: 1;"/></g><g class="points"/><g class="text"/></g><g class="trace scatter trace9ccebe" style="stroke-miterlimit: 2; opacity: 1;"><g class="fills"/><g class="errorbars"/><g class="lines"><path class="js-line" d="M0,385L171.7,384.47L181.8,384.06L202,382.17L212.1,380.32L222.2,377.62L232.3,373.85L242.4,368.79L252.5,362.32L262.6,354.38L272.7,344.92L292.9,322.42L303,309.75L323.2,282.92L333.3,268.86L373.7,211.5L383.8,198.13L404,174L414.1,163.83L424.2,155.18L434.3,147.8L454.5,135.65L464.6,130.2L484.8,120.83L494.9,116.52L525.2,102.63L535.3,97.27L565.6,77.88L575.7,73.87L585.8,72.85L595.9,75.28L606,81.71L616.1,92.56L626.2,107.4L636.3,125.77L646.4,147.5L656.5,171.72L696.9,273.63L707,294.85L717.1,312.86L727.2,327.29L737.3,338.63L747.4,347.59L757.5,354.69L767.6,360.36L787.8,368.78L797.9,372.03L818.1,377.12L828.2,379.04L848.4,381.78L858.5,382.69L888.8,384.2L898.9,384.44L959.5,384.77L969.6,384.73L989.8,384.3L999.9,383.32L1010,361.75" style="vector-effect: none; fill: none; stroke: rgb(240, 173, 78); stroke-opacity: 1; stroke-width: 2px; opacity: 1;"/></g><g class="points"/><g class="text"/></g><g class="trace scatter tracec82af2" style="stroke-miterlimit: 2; opacity: 1;"><g class="fills"/><g class="errorbars"/><g class="lines"><path class="js-line" d="M0,385L171.7,384.43L181.8,383.98L202,381.92L212.1,379.92L222.2,377.01L232.3,372.96L242.4,367.51L252.5,360.53L262.6,351.99L272.7,341.85L292.9,317.68L303,304.19L333.3,260.49L343.4,245.25L373.7,199.47L383.8,185.35L404,159.52L414.1,148.67L424.2,139.42L434.3,131.53L454.5,118.23L464.6,112.35L484.8,102.43L494.9,97.67L525.2,82.37L535.3,76.52L565.6,55.59L575.7,51.31L585.8,50.26L595.9,52.95L606,59.98L616.1,71.74L626.2,87.76L636.3,107.44L646.4,130.72L656.5,156.77L696.9,265.78L707,288.41L717.1,307.62L727.2,323.07L737.3,335.22L747.4,344.85L757.5,352.4L767.6,358.41L787.8,367.58L797.9,371.07L818.1,376.56L828.2,378.65L848.4,381.66L858.5,382.67L888.8,384.33L898.9,384.6L959.5,384.99L969.6,384.99L1010,384.99" style="vector-effect: none; fill: none; stroke: rgb(240, 173, 78); stroke-opacity: 1; stroke-width: 2px; opacity: 1;"/></g><g class="points"/><g class="text"/></g><g class="trace scatter tracee2a726" style="stroke-miterlimit: 2; opacity: 1;"><g class="fills"/><g class="errorbars"/><g class="lines"><path class="js-line" d="M0,385L171.7,384.44L181.8,384.01L202,382.01L212.1,380.04L222.2,377.14L232.3,373.13L242.4,367.8L252.5,360.95L262.6,352.49L272.7,342.43L292.9,318.47L303,305.03L333.3,261.61L343.4,246.3L373.7,200.62L383.8,186.46L404,160.74L414.1,149.91L424.2,140.63L434.3,132.64L454.5,119.58L464.6,113.78L484.8,103.67L494.9,98.95L525.2,83.8L535.3,77.96L565.6,56.93L575.7,52.68L585.8,51.72L595.9,54.39L606,61.24L616.1,72.87L626.2,88.8L636.3,108.48L646.4,131.78L656.5,157.69L696.9,266.53L707,289.12L717.1,308.22L727.2,323.59L737.3,335.69L747.4,345.21L757.5,352.72L767.6,358.73L787.8,367.76L797.9,371.23L818.1,376.63L828.2,378.67L848.4,381.56L858.5,382.54L888.8,384.15L898.9,384.4L959.5,384.73L969.6,384.69L989.8,384.04L999.9,382.05L1010,359.55" style="vector-effect: none; fill: none; stroke: rgb(240, 173, 78); stroke-opacity: 1; stroke-width: 2px; opacity: 1;"/></g><g class="points"/><g class="text"/></g><g class="trace scatter trace825d03" style="stroke-miterlimit: 2; opacity: 1;"><g class="fills"/><g class="errorbars"/><g class="lines"><path class="js-line" d="M0,385L202,384.33L212.1,383.91L232.3,382.39L242.4,381.23L262.6,377.94L272.7,375.78L303,367.87L313.1,364.93L393.9,340.9L404,338.44L424.2,334.53L434.3,332.98L464.6,329.27L474.7,328.22L545.4,321.13L555.5,319.76L575.7,317.72L585.8,317.57L595.9,318.18L606,319.7L616.1,322.15L626.2,325.41L646.4,334.09L656.5,339.37L696.9,361.24L707,365.78L727.2,372.74L737.3,375.15L757.5,378.57L767.6,379.77L797.9,382.28L808,382.87L848.4,384.36L858.5,384.56L939.3,385L949.4,385L1010,385" style="vector-effect: none; fill: none; stroke: rgb(240, 173, 78); stroke-opacity: 1; stroke-width: 2px; opacity: 1;"/></g><g class="points"/><g class="text"/></g><g class="trace scatter trace9fa20f" style="stroke-miterlimit: 2; opacity: 1;"><g class="fills"/><g class="errorbars"/><g class="lines"><path class="js-line" d="M0,385L202,384.36L212.1,383.94L232.3,382.47L242.4,381.34L262.6,378.1L272.7,375.97L303,368.13L313.1,365.19L393.9,341.21L404,338.72L424.2,334.71L434.3,333.2L464.6,329.51L474.7,328.45L545.4,321.42L555.5,320L575.7,317.99L585.8,317.87L595.9,318.47L606,319.93L616.1,322.32L626.2,325.6L646.4,334.28L656.5,339.52L696.9,361.36L707,365.89L727.2,372.8L737.3,375.23L757.5,378.65L767.6,379.85L797.9,382.32L808,382.89L848.4,384.33L858.5,384.52L939.3,384.94L949.4,384.94L999.9,384.5L1010,379.85" style="vector-effect: none; fill: none; stroke: rgb(240, 173, 78); stroke-opacity: 1; stroke-width: 2px; opacity: 1;"/></g><g class="points"/><g class="text"/></g><g class="trace scatter trace71d08f" style="stroke-miterlimit: 2; opacity: 1;"><g class="fills"/><g class="errorbars"/><g class="lines"><path class="js-line" d="M0,385L181.8,384.54L191.9,384.2L212.1,382.73L222.2,381.4L242.4,377.19L252.5,374.08L272.7,365.77L282.8,360.63L303,349.13L313.1,342.96L353.5,316.95L363.6,310.41L383.8,298.14L393.9,292.52L414.1,282.71L424.2,278.89L444.4,272.77L454.5,270.22L484.8,263.68L494.9,261.83L535.3,253.51L545.4,250.7L565.6,245.14L575.7,243.58L585.8,243.35L595.9,244.63L606,247.71L616.1,252.75L626.2,259.62L636.3,268.12L656.5,289.15L666.6,300.79L686.8,324.43L696.9,335.19L707,344.73L717.1,352.81L727.2,359.28L737.3,364.37L747.4,368.39L757.5,371.57L777.7,376.15L787.8,377.89L818.1,381.62L828.2,382.47L858.5,384.09L868.6,384.37L929.2,384.98L939.3,384.99L1010,385" style="vector-effect: none; fill: none; stroke: rgb(240, 173, 78); stroke-opacity: 1; stroke-width: 2px; opacity: 1;"/></g><g class="points"/><g class="text"/></g><g class="trace scatter trace387c2b" style="stroke-miterlimit: 2; opacity: 1;"><g class="fills"/><g class="errorbars"/><g class="lines"><path class="js-line" d="M0,385L181.8,384.57L191.9,384.23L212.1,382.8L222.2,381.52L242.4,377.37L252.5,374.33L272.7,366.17L282.8,361.14L303,349.65L313.1,343.51L353.5,317.51L363.6,310.92L383.8,298.62L393.9,292.92L414.1,283.15L424.2,279.29L444.4,273.26L454.5,270.7L484.8,264.22L494.9,262.39L535.3,254.05L545.4,251.24L565.6,245.76L575.7,244.04L585.8,243.75L595.9,245.01L606,248.1L616.1,253.16L626.2,259.99L636.3,268.45L646.4,278.36L656.5,289.36L696.9,335.4L707,344.96L717.1,353.02L727.2,359.47L737.3,364.55L747.4,368.56L767.6,374.23L777.7,376.27L797.9,379.43L808,380.62L838.3,383.12L848.4,383.63L888.8,384.65L898.9,384.75L979.7,384.76L989.8,384.55L999.9,383.94L1010,375.12" style="vector-effect: none; fill: none; stroke: rgb(240, 173, 78); stroke-opacity: 1; stroke-width: 2px; opacity: 1;"/></g><g class="points"/><g class="text"/></g><g class="trace scatter tracee83c3a" style="stroke-miterlimit: 2; opacity: 1;"><g class="fills"/><g class="errorbars"/><g class="lines"><path class="js-line" d="M0,385L171.7,384.46L181.8,384.04L202,382.1L212.1,380.21L222.2,377.44L232.3,373.61L242.4,368.49L252.5,361.91L262.6,353.86L272.7,344.35L292.9,321.79L303,309.26L333.3,268.95L343.4,255.03L373.7,213.65L383.8,200.99L404,178.17L414.1,168.73L424.2,160.87L434.3,154.16L454.5,143.13L464.6,138.36L484.8,130.23L494.9,126.54L525.2,114.33L535.3,109.42L565.6,91.84L575.7,88.28L585.8,87.53L595.9,90.08L606,96.45L616.1,107.05L626.2,121.34L636.3,138.93L646.4,159.77L656.5,182.99L696.9,280.23L707,300.39L717.1,317.49L727.2,331.17L737.3,341.97L747.4,350.47L757.5,357.14L767.6,362.46L787.8,370.4L797.9,373.42L818.1,378.06L828.2,379.83L848.4,382.3L858.5,383.13L888.8,384.47L898.9,384.69L969.6,385L979.7,385L1010,385" style="vector-effect: none; fill: none; stroke: rgb(240, 173, 78); stroke-opacity: 1; stroke-width: 2px; opacity: 1;"/></g><g class="points"/><g class="text"/></g><g class="trace scatter trace39e5e7" style="stroke-miterlimit: 2; opacity: 1;"><g class="fills"/><g class="errorbars"/><g class="lines"><path class="js-line" d="M0,385L171.7,384.48L181.8,384.08L202,382.2L212.1,380.37L222.2,377.71L232.3,373.96L242.4,368.92L252.5,362.49L262.6,354.59L272.7,345.22L292.9,322.79L303,310.25L333.3,270.16L343.4,256.18L373.7,214.74L383.8,202.13L404,179.28L414.1,169.81L424.2,161.94L434.3,155.27L454.5,144.37L464.6,139.68L484.8,131.73L494.9,128.02L525.2,115.88L535.3,111.21L565.6,93.37L575.7,89.74L585.8,89.08L595.9,91.66L606,97.94L616.1,108.54L626.2,122.79L636.3,140.3L646.4,161.07L656.5,184.26L686.8,258.64L696.9,281.32L707,301.37L717.1,318.33L727.2,331.91L737.3,342.63L747.4,351.06L757.5,357.68L767.6,362.97L777.7,367.23L797.9,373.71L808,376.13L828.2,379.86L838.3,381.17L868.6,383.47L878.7,383.88L929.2,384.61L939.3,384.61L979.7,384.07L989.8,383.4L999.9,381.43L1010,356.6" style="vector-effect: none; fill: none; stroke: rgb(240, 173, 78); stroke-opacity: 1; stroke-width: 2px; opacity: 1;"/></g><g class="points"/><g class="text"/></g><g class="trace scatter trace36dc3f" style="stroke-miterlimit: 2; opacity: 1;"><g class="fills"/><g class="errorbars"/><g class="lines"><path class="js-line" d="M0,385L171.7,384.54L181.8,384.17L202,382.5L212.1,380.87L222.2,378.46L232.3,375.11L242.4,370.66L252.5,364.92L262.6,357.88L272.7,349.58L292.9,329.75L303,318.63L333.3,282.78L343.4,270.17L373.7,232.79L383.8,221.24L404,200.32L414.1,191.63L424.2,184.38L434.3,178.13L454.5,168.1L464.6,163.72L484.8,156.39L494.9,153.02L525.2,142.16L535.3,138L565.6,122.55L575.7,119.52L585.8,119.07L595.9,121.56L606,127.52L616.1,137.18L626.2,150.07L636.3,166.02L646.4,184.76L656.5,205.6L686.8,272.2L696.9,292.42L707,310.29L717.1,325.41L727.2,337.52L737.3,347.08L747.4,354.59L757.5,360.48L767.6,365.17L777.7,368.98L797.9,374.82L808,377.04L828.2,380.46L838.3,381.68L868.6,383.87L878.7,384.26L929.2,384.97L939.3,384.99L1010,385" style="vector-effect: none; fill: none; stroke: rgb(240, 173, 78); stroke-opacity: 1; stroke-width: 2px; opacity: 1;"/></g><g class="points"/><g class="text"/></g><g class="trace scatter tracec62769" style="stroke-miterlimit: 2; opacity: 1;"><g class="fills"/><g class="errorbars"/><g class="lines"><path class="js-line" d="M0,385L171.7,384.56L181.8,384.2L202,382.58L212.1,380.99L222.2,378.63L232.3,375.36L242.4,370.98L252.5,365.35L262.6,358.41L272.7,350.18L292.9,330.44L303,319.43L333.3,283.43L343.4,270.88L373.7,233.37L383.8,221.79L404,200.88L414.1,192.24L424.2,184.88L434.3,178.67L454.5,168.64L464.6,164.41L484.8,157.21L494.9,153.92L525.2,143.05L535.3,138.91L565.6,123.36L575.7,120.43L585.8,120.07L595.9,122.49L606,128.37L616.1,138.01L626.2,150.97L636.3,166.9L646.4,185.69L656.5,206.61L686.8,273.14L696.9,293.31L707,311.14L717.1,326.17L727.2,338.2L737.3,347.67L747.4,355.09L757.5,360.9L767.6,365.58L777.7,369.37L797.9,375.07L808,377.23L828.2,380.5L838.3,381.65L868.6,383.7L878.7,384.05L929.2,384.7L939.3,384.71L979.7,384.3L989.8,383.85L999.9,382.61L1010,367.6" style="vector-effect: none; fill: none; stroke: rgb(240, 173, 78); stroke-opacity: 1; stroke-width: 2px; opacity: 1;"/></g><g class="points"/><g class="text"/></g><g class="trace scatter trace8cfb07" style="stroke-miterlimit: 2; opacity: 1;"><g class="fills"/><g class="errorbars"/><g class="lines"><path class="js-line" d="M0,385L181.8,384.52L191.9,384.15L212.1,382.56L222.2,381.16L242.4,376.57L252.5,373.19L272.7,364.2L282.8,358.65L303,346.11L313.1,339.34L383.8,290.67L393.9,284.53L414.1,274.04L424.2,269.94L444.4,263.57L454.5,260.8L474.7,255.88L484.8,253.88L525.2,245.88L535.3,243.6L565.6,235.11L575.7,233.49L585.8,233.41L595.9,234.98L606,238.48L616.1,244.03L626.2,251.46L636.3,260.57L646.4,271.25L656.5,283.14L696.9,332.15L707,342.29L717.1,350.9L727.2,357.75L737.3,363.15L747.4,367.4L767.6,373.41L777.7,375.6L797.9,378.98L808,380.28L838.3,383.03L848.4,383.59L888.8,384.73L898.9,384.84L1010,385" style="vector-effect: none; fill: none; stroke: rgb(240, 173, 78); stroke-opacity: 1; stroke-width: 2px; opacity: 1;"/></g><g class="points"/><g class="text"/></g><g class="trace scatter trace934d55" style="stroke-miterlimit: 2; opacity: 1;"><g class="fills"/><g class="errorbars"/><g class="lines"><path class="js-line" d="M0,385L181.8,384.54L191.9,384.19L212.1,382.65L222.2,381.27L242.4,376.79L252.5,373.51L272.7,364.67L282.8,359.21L303,346.71L313.1,340.02L353.5,311.78L363.6,304.66L383.8,291.29L393.9,285.2L414.1,274.74L424.2,270.68L444.4,264.15L454.5,261.48L484.8,254.68L494.9,252.71L535.3,244.27L545.4,241.53L565.6,235.86L575.7,234.25L585.8,234.11L595.9,235.58L606,239.06L616.1,244.63L626.2,252.07L636.3,261.19L646.4,271.83L656.5,283.62L696.9,332.57L707,342.69L717.1,351.18L727.2,357.99L737.3,363.35L747.4,367.56L767.6,373.55L777.7,375.72L797.9,379.04L808,380.31L838.3,382.94L848.4,383.47L888.8,384.53L898.9,384.64L979.7,384.47L989.8,384.09L999.9,383.09L1010,371.76" style="vector-effect: none; fill: none; stroke: rgb(240, 173, 78); stroke-opacity: 1; stroke-width: 2px; opacity: 1;"/></g><g class="points"/><g class="text"/></g><g class="trace scatter trace0e01f0" style="stroke-miterlimit: 2; opacity: 1;"><g class="fills"/><g class="errorbars"/><g class="lines"><path class="js-line" d="M0,385L191.9,384.49L202,384.13L222.2,382.72L232.3,381.56L252.5,378.06L262.6,375.62L282.8,369.47L292.9,365.89L323.2,353.85L333.3,349.55L383.8,327.9L393.9,324.03L414.1,317.42L424.2,314.76L444.4,310.55L454.5,308.77L484.8,304.3L494.9,303.02L535.3,297.08L545.4,295.03L565.6,291.02L575.7,289.71L585.8,289.34L595.9,290.02L606,291.93L616.1,295.2L626.2,299.69L636.3,305.26L656.5,319.3L666.6,327.18L696.9,350.58L707,357.11L717.1,362.67L727.2,367.13L747.4,373.43L757.5,375.61L777.7,378.79L787.8,379.99L818.1,382.59L828.2,383.19L868.6,384.54L878.7,384.7L969.6,385L979.7,385L1010,385" style="vector-effect: none; fill: none; stroke: rgb(240, 173, 78); stroke-opacity: 1; stroke-width: 2px; opacity: 1;"/></g><g class="points"/><g class="text"/></g><g class="trace scatter traced01d1c" style="stroke-miterlimit: 2; opacity: 1;"><g class="fills"/><g class="errorbars"/><g class="lines"><path class="js-line" d="M0,385L191.9,384.5L202,384.15L222.2,382.79L232.3,381.66L252.5,378.19L262.6,375.79L282.8,369.7L292.9,366.15L323.2,354.17L333.3,349.87L383.8,328.18L393.9,324.33L414.1,317.58L424.2,314.96L454.5,308.99L464.6,307.39L545.4,295.39L555.5,293.24L575.7,290.03L585.8,289.65L595.9,290.26L606,292.15L616.1,295.46L626.2,299.91L636.3,305.46L646.4,312.08L666.6,327.28L676.7,335.4L696.9,350.71L707,357.26L717.1,362.77L727.2,367.22L747.4,373.5L757.5,375.66L777.7,378.83L787.8,380.03L818.1,382.6L828.2,383.18L868.6,384.5L878.7,384.65L969.6,384.92L979.7,384.88L999.9,384.5L1010,379.58" style="vector-effect: none; fill: none; stroke: rgb(240, 173, 78); stroke-opacity: 1; stroke-width: 2px; opacity: 1;"/></g><g class="points"/><g class="text"/></g><g class="trace scatter tracee12d78" style="stroke-miterlimit: 2; opacity: 1;"><g class="fills"/><g class="errorbars"/><g class="lines"><path class="js-line" d="M0,385L171.7,384.45L181.8,384.03L202,382.07L212.1,380.14L222.2,377.3L232.3,373.4L242.4,368.19L252.5,361.45L262.6,353.17L272.7,343.4L282.8,332.28L292.9,320.01L313.1,292.94L323.2,278.6L353.5,233.12L363.6,217.64L383.8,188.27L393.9,174.63L404,162.02L414.1,150.93L424.2,141.47L434.3,133.2L454.5,119.14L464.6,112.92L484.8,102.12L494.9,97.16L525.2,80.82L535.3,74.67L565.6,52.42L575.7,47.76L585.8,46.51L595.9,48.99L606,55.82L616.1,67.41L626.2,83.25L636.3,103.1L646.4,126.8L656.5,153.25L696.9,263.97L707,286.99L717.1,306.51L727.2,322.21L737.3,334.62L747.4,344.35L757.5,352L767.6,358.12L787.8,367.34L797.9,370.87L818.1,376.45L828.2,378.57L848.4,381.59L858.5,382.62L888.8,384.31L898.9,384.58L949.4,384.99L959.5,384.99L1010,384.99" style="vector-effect: none; fill: none; stroke: rgb(240, 173, 78); stroke-opacity: 1; stroke-width: 2px; opacity: 1;"/></g><g class="points"/><g class="text"/></g><g class="trace scatter trace8f6e3e" style="stroke-miterlimit: 2; opacity: 1;"><g class="fills"/><g class="errorbars"/><g class="lines"><path class="js-line" d="M0,385L171.7,384.47L181.8,384.06L202,382.14L212.1,380.28L222.2,377.53L232.3,373.7L242.4,368.58L252.5,361.98L262.6,353.81L272.7,344.12L282.8,333.08L292.9,320.89L313.1,293.99L323.2,279.69L353.5,234.28L363.6,218.77L383.8,189.32L393.9,175.61L404,163.1L414.1,151.97L424.2,142.31L434.3,134.11L454.5,120.33L464.6,114.23L484.8,103.42L494.9,98.29L525.2,82.15L535.3,75.96L565.6,53.81L575.7,49.16L585.8,47.81L595.9,50.13L606,56.92L616.1,68.61L626.2,84.58L636.3,104.42L646.4,127.95L656.5,154.29L696.9,264.79L707,287.77L717.1,307.22L727.2,322.79L737.3,335.05L747.4,344.73L757.5,352.34L767.6,358.45L787.8,367.54L797.9,371.04L818.1,376.48L828.2,378.56L848.4,381.49L858.5,382.48L888.8,384.11L898.9,384.37L949.4,384.74L959.5,384.72L989.8,384.19L999.9,383.05L1010,359.48" style="vector-effect: none; fill: none; stroke: rgb(217, 83, 79); stroke-opacity: 1; stroke-width: 2px; opacity: 1;"/></g><g class="points"/><g class="text"/></g><g class="trace scatter trace69b72b" style="stroke-miterlimit: 2; opacity: 1;"><g class="fills"/><g class="errorbars"/><g class="lines"><path class="js-line" d="M0,385L171.7,384.53L181.8,384.17L202,382.49L212.1,380.86L222.2,378.46L232.3,375.11L242.4,370.68L252.5,364.97L262.6,357.93L272.7,349.59L292.9,329.7L303,318.51L323.2,294.55L333.3,281.96L383.8,218.24L393.9,206.79L404,196.16L414.1,186.77L424.2,178.81L434.3,172L454.5,160.42L464.6,155.38L484.8,146.75L494.9,142.74L525.2,129.8L535.3,124.86L565.6,107.15L575.7,103.44L585.8,102.57L595.9,104.83L606,110.85L616.1,120.79L626.2,134.23L636.3,150.95L646.4,170.7L656.5,192.64L696.9,284.82L707,303.92L717.1,320.14L727.2,333.11L737.3,343.32L747.4,351.43L757.5,357.79L767.6,362.86L787.8,370.48L797.9,373.4L818.1,377.97L828.2,379.71L848.4,382.2L858.5,383.04L888.8,384.43L898.9,384.66L959.5,384.99L969.6,385L1010,384.99" style="vector-effect: none; fill: none; stroke: rgb(240, 173, 78); stroke-opacity: 1; stroke-width: 2px; opacity: 1;"/></g><g class="points"/><g class="text"/></g><g class="trace scatter tracea210a3" style="stroke-miterlimit: 2; opacity: 1;"><g class="fills"/><g class="errorbars"/><g class="lines"><path class="js-line" d="M0,385L171.7,384.55L181.8,384.2L202,382.57L212.1,380.98L222.2,378.65L232.3,375.38L242.4,371L252.5,365.39L262.6,358.46L272.7,350.28L292.9,330.48L303,319.41L323.2,295.56L333.3,283.03L383.8,219.19L393.9,207.73L404,197.19L414.1,187.86L424.2,179.9L434.3,173.07L454.5,161.63L464.6,156.73L484.8,148.01L494.9,143.95L525.2,131.09L535.3,126.17L565.6,108.47L575.7,104.94L585.8,104.09L595.9,106.25L606,112.07L616.1,121.92L626.2,135.36L636.3,151.99L646.4,171.67L656.5,193.59L696.9,285.42L707,304.51L717.1,320.66L727.2,333.59L737.3,343.76L747.4,351.76L757.5,358.05L767.6,363.12L787.8,370.67L797.9,373.52L818.1,378L828.2,379.69L848.4,382.1L858.5,382.91L888.8,384.25L898.9,384.46L959.5,384.75L969.6,384.71L989.8,384.25L999.9,383.25L1010,360.75" style="vector-effect: none; fill: none; stroke: rgb(240, 173, 78); stroke-opacity: 1; stroke-width: 2px; opacity: 1;"/></g><g class="points"/><g class="text"/></g><g class="trace scatter tracede7643" style="stroke-miterlimit: 2; opacity: 1;"><g class="fills"/><g class="errorbars"/><g class="lines"><path class="js-line" d="M0,385L202,384.29L212.1,383.84L232.3,382.22L242.4,380.98L262.6,377.44L272.7,375.12L303,366.56L313.1,363.37L393.9,337.16L404,334.46L424.2,330.09L434.3,328.41L474.7,323.3L484.8,322.36L545.4,315.26L555.5,313.65L575.7,311.1L585.8,310.82L595.9,311.36L606,312.84L616.1,315.32L626.2,318.77L636.3,323.05L646.4,328.17L666.6,339.97L676.7,346.28L696.9,358.13L707,363.22L717.1,367.56L727.2,371.03L747.4,375.89L757.5,377.6L787.8,381.05L797.9,381.83L838.3,383.95L848.4,384.24L909,384.95L919.1,384.98L1010,385" style="vector-effect: none; fill: none; stroke: rgb(240, 173, 78); stroke-opacity: 1; stroke-width: 2px; opacity: 1;"/></g><g class="points"/><g class="text"/></g><g class="trace scatter traceb2e643" style="stroke-miterlimit: 2; opacity: 1;"><g class="fills"/><g class="errorbars"/><g class="lines"><path class="js-line" d="M0,385L202,384.32L212.1,383.87L232.3,382.29L242.4,381.07L262.6,377.58L272.7,375.29L303,366.83L313.1,363.69L393.9,337.45L404,334.78L424.2,330.39L434.3,328.7L464.6,324.69L474.7,323.64L525.2,318.44L535.3,317.18L575.7,311.57L585.8,311.21L595.9,311.67L606,313.13L616.1,315.56L626.2,318.94L636.3,323.19L646.4,328.28L666.6,340.09L676.7,346.39L696.9,358.26L707,363.32L717.1,367.61L727.2,371.06L747.4,375.98L757.5,377.67L787.8,381.07L797.9,381.85L838.3,383.92L848.4,384.22L909,384.9L919.1,384.93L999.9,384.54L1010,378.84" style="vector-effect: none; fill: none; stroke: rgb(240, 173, 78); stroke-opacity: 1; stroke-width: 2px; opacity: 1;"/></g><g class="points"/><g class="text"/></g><g class="trace scatter trace09df3b" style="stroke-miterlimit: 2; opacity: 1;"><g class="fills"/><g class="errorbars"/><g class="lines"><path class="js-line" d="M0,385L171.7,384.5L181.8,384.1L202,382.3L212.1,380.55L222.2,377.98L232.3,374.39L242.4,369.64L252.5,363.55L262.6,356.03L272.7,347.13L292.9,325.94L303,314.12L333.3,275.77L343.4,262.41L373.7,222.2L383.8,209.72L404,186.98L414.1,177.45L424.2,169.25L434.3,162.22L454.5,150.37L464.6,145.03L484.8,135.83L494.9,131.43L525.2,117.32L535.3,111.92L565.6,92.46L575.7,88.18L585.8,86.89L595.9,89.03L606,94.93L616.1,105.06L626.2,118.9L636.3,136.27L646.4,156.92L656.5,180L696.9,277.65L707,298.03L717.1,315.33L727.2,329.24L737.3,340.22L747.4,348.86L757.5,355.64L767.6,361.12L787.8,369.31L797.9,372.47L818.1,377.4L828.2,379.3L848.4,381.99L858.5,382.9L888.8,384.4L898.9,384.64L959.5,384.99L969.6,384.99L1010,384.99" style="vector-effect: none; fill: none; stroke: rgb(240, 173, 78); stroke-opacity: 1; stroke-width: 2px; opacity: 1;"/></g><g class="points"/><g class="text"/></g><g class="trace scatter trace5f42b1" style="stroke-miterlimit: 2; opacity: 1;"><g class="fills"/><g class="errorbars"/><g class="lines"><path class="js-line" d="M0,385L171.7,384.51L181.8,384.13L202,382.38L212.1,380.67L222.2,378.14L232.3,374.63L242.4,369.92L252.5,363.9L262.6,356.51L272.7,347.74L292.9,326.72L303,314.99L333.3,276.86L343.4,263.47L373.7,223.22L383.8,210.75L404,188.08L414.1,178.51L424.2,170.43L434.3,163.44L454.5,151.66L464.6,146.35L484.8,137.28L494.9,132.85L525.2,118.7L535.3,113.39L565.6,93.89L575.7,89.74L585.8,88.37L595.9,90.24L606,96.04L616.1,106.18L626.2,120.04L636.3,137.26L646.4,157.82L656.5,180.89L696.9,278.34L707,298.7L717.1,315.89L727.2,329.7L737.3,340.56L747.4,349.16L757.5,355.92L767.6,361.35L787.8,369.48L797.9,372.6L818.1,377.44L828.2,379.29L848.4,381.91L858.5,382.79L888.8,384.23L898.9,384.46L959.5,384.77L969.6,384.74L989.8,384.24L999.9,383.06L1010,360.4" style="vector-effect: none; fill: none; stroke: rgb(217, 83, 79); stroke-opacity: 1; stroke-width: 2px; opacity: 1;"/></g><g class="points"/><g class="text"/></g><g class="trace scatter trace46f88c" style="stroke-miterlimit: 2; opacity: 1;"><g class="fills"/><g class="errorbars"/><g class="lines"><path class="js-line" d="M0,385L171.7,384.53L181.8,384.16L202,382.48L212.1,380.83L222.2,378.41L232.3,375.07L242.4,370.62L252.5,364.87L262.6,357.79L272.7,349.45L292.9,329.57L303,318.48L323.2,294.8L333.3,282.38L383.8,220.02L393.9,208.88L404,198.56L414.1,189.52L424.2,181.91L434.3,175.33L454.5,164.23L464.6,159.28L484.8,150.77L494.9,146.74L525.2,133.69L535.3,128.65L565.6,110.64L575.7,106.89L585.8,105.76L595.9,107.67L606,113.25L616.1,122.86L626.2,135.93L636.3,152.17L646.4,171.59L656.5,193.3L696.9,284.71L707,303.73L717.1,319.94L727.2,332.91L737.3,343.18L747.4,351.29L757.5,357.65L767.6,362.74L787.8,370.39L797.9,373.33L818.1,377.93L828.2,379.69L848.4,382.2L858.5,383.04L888.8,384.43L898.9,384.66L959.5,384.99L969.6,384.99L1010,385" style="vector-effect: none; fill: none; stroke: rgb(217, 83, 79); stroke-opacity: 1; stroke-width: 2px; opacity: 1;"/></g><g class="points"/><g class="text"/></g><g class="trace scatter trace9fc458" style="stroke-miterlimit: 2; opacity: 1;"><g class="fills"/><g class="errorbars"/><g class="lines"><path class="js-line" d="M0,385L171.7,384.54L181.8,384.18L202,382.55L212.1,380.93L222.2,378.57L232.3,375.3L242.4,370.89L252.5,365.26L262.6,358.33L272.7,350.07L292.9,330.36L303,319.31L333.3,283.41L343.4,270.85L373.7,232.97L383.8,221.1L404,199.79L414.1,190.89L424.2,183.2L434.3,176.53L454.5,165.49L464.6,160.63L484.8,152.21L494.9,148.23L525.2,135.08L535.3,130.13L565.6,112.1L575.7,108.32L585.8,107.19L595.9,109.04L606,114.5L616.1,123.98L626.2,136.98L636.3,153.13L646.4,172.53L656.5,194.16L696.9,285.27L707,304.24L717.1,320.4L727.2,333.36L737.3,343.54L747.4,351.58L757.5,357.9L767.6,362.97L787.8,370.56L797.9,373.45L818.1,377.96L828.2,379.68L848.4,382.11L858.5,382.92L888.8,384.27L898.9,384.48L959.5,384.78L969.6,384.74L989.8,384.29L999.9,383.28L1010,360.07" style="vector-effect: none; fill: none; stroke: rgb(217, 83, 79); stroke-opacity: 1; stroke-width: 2px; opacity: 1;"/></g><g class="points"/><g class="text"/></g><g class="trace scatter trace81889f" style="stroke-miterlimit: 2; opacity: 1;"><g class="fills"/><g class="errorbars"/><g class="lines"><path class="js-line" d="M0,385L171.7,384.56L181.8,384.22L202,382.63L212.1,381.09L222.2,378.84L232.3,375.7L242.4,371.54L252.5,366.17L262.6,359.58L272.7,351.79L292.9,333.24L303,322.85L333.3,289.14L343.4,277.35L373.7,241.73L383.8,230.67L404,210.5L414.1,201.99L424.2,194.7L434.3,188.43L454.5,178.01L464.6,173.17L484.8,164.89L494.9,161.08L525.2,148.38L535.3,143.46L565.6,125.94L575.7,122.1L585.8,120.73L595.9,122.33L606,127.44L616.1,136.25L626.2,148.39L636.3,163.66L646.4,181.97L656.5,202.46L696.9,289.2L707,307.31L717.1,322.75L727.2,335.21L737.3,345.01L747.4,352.73L757.5,358.79L767.6,363.65L787.8,370.98L797.9,373.79L818.1,378.22L828.2,379.91L848.4,382.31L858.5,383.12L888.8,384.46L898.9,384.67L959.5,384.99L969.6,385L1010,385" style="vector-effect: none; fill: none; stroke: rgb(240, 173, 78); stroke-opacity: 1; stroke-width: 2px; opacity: 1;"/></g><g class="points"/><g class="text"/></g><g class="trace scatter trace6724de" style="stroke-miterlimit: 2; opacity: 1;"><g class="fills"/><g class="errorbars"/><g class="lines"><path class="js-line" d="M0,385L171.7,384.57L181.8,384.24L202,382.71L212.1,381.22L222.2,379.02L232.3,375.96L242.4,371.85L252.5,366.59L262.6,360.1L272.7,352.42L292.9,334.1L303,323.77L333.3,290.2L343.4,278.4L373.7,242.78L383.8,231.66L404,211.59L414.1,203.06L424.2,195.76L434.3,189.52L454.5,178.96L464.6,174.33L484.8,166.05L494.9,162.21L525.2,149.55L535.3,144.63L565.6,127.04L575.7,123.17L585.8,121.74L595.9,123.35L606,128.36L616.1,137.13L626.2,149.31L636.3,164.52L646.4,182.69L656.5,203.11L696.9,289.74L707,307.81L717.1,323.18L727.2,335.57L737.3,345.31L747.4,352.97L757.5,359.03L767.6,363.87L787.8,371.13L797.9,373.88L818.1,378.24L828.2,379.89L848.4,382.23L858.5,383L888.8,384.31L898.9,384.51L959.5,384.81L969.6,384.79L989.8,384.4L999.9,383.53L1010,363.46" style="vector-effect: none; fill: none; stroke: rgb(217, 83, 79); stroke-opacity: 1; stroke-width: 2px; opacity: 1;"/></g><g class="points"/><g class="text"/></g><g class="trace scatter trace34b0d6" style="stroke-miterlimit: 2; opacity: 1;"><g class="fills"/><g class="errorbars"/><g class="lines"><path class="js-line" d="M0,385L171.7,384.35L181.8,383.85L202,381.54L212.1,379.3L222.2,376.03L232.3,371.48L242.4,365.42L252.5,357.63L262.6,348.06L272.7,336.8L282.8,324L292.9,309.93L313.1,279.39L323.2,263.33L383.8,164.52L393.9,149.87L404,136.37L414.1,124.6L424.2,114.68L434.3,106.14L454.5,91.65L464.6,85.17L484.8,74.27L494.9,69.1L525.2,52.84L535.3,46.69L565.6,24.51L575.7,20.19L585.8,19.25L595.9,22.4L606,30.31L616.1,43.29L626.2,60.85L636.3,82.5L646.4,108.07L656.5,136.6L696.9,255.57L707,280.22L717.1,301.18L727.2,318L737.3,331.23L747.4,341.65L757.5,349.88L767.6,356.46L777.7,361.8L787.8,366.29L808,373.25L818.1,375.95L838.3,380.02L848.4,381.42L868.6,383.29L878.7,383.88L919.1,384.89L929.2,384.95L1010,384.99" style="vector-effect: none; fill: none; stroke: rgb(240, 173, 78); stroke-opacity: 1; stroke-width: 2px; opacity: 1;"/></g><g class="points"/><g class="text"/></g><g class="trace scatter trace824732" style="stroke-miterlimit: 2; opacity: 1;"><g class="fills"/><g class="errorbars"/><g class="lines"><path class="js-line" d="M0,385L171.7,384.37L181.8,383.88L202,381.66L212.1,379.48L222.2,376.28L232.3,371.81L242.4,365.85L252.5,358.23L262.6,348.83L272.7,337.69L282.8,325.04L292.9,311.14L313.1,280.71L323.2,264.73L353.5,214.52L363.6,197.67L383.8,165.95L393.9,151.32L404,137.97L414.1,126.05L424.2,116.01L434.3,107.45L454.5,93.1L464.6,86.75L484.8,75.79L494.9,70.65L525.2,54.58L535.3,48.48L565.6,26.2L575.7,21.6L585.8,20.76L595.9,23.88L606,31.69L616.1,44.7L626.2,62.31L636.3,83.96L646.4,109.44L656.5,137.75L696.9,256.44L707,281.05L717.1,301.86L727.2,318.5L737.3,331.65L747.4,342.04L757.5,350.23L767.6,356.78L787.8,366.47L797.9,370.21L818.1,376L828.2,378.2L848.4,381.3L858.5,382.35L888.8,384.09L898.9,384.36L949.4,384.76L959.5,384.74L989.8,384.15L999.9,382.72L1010,353.41" style="vector-effect: none; fill: none; stroke: rgb(240, 173, 78); stroke-opacity: 1; stroke-width: 2px; opacity: 1;"/></g><g class="points"/><g class="text"/></g><g class="trace scatter trace5c0edb" style="stroke-miterlimit: 2; opacity: 1;"><g class="fills"/><g class="errorbars"/><g class="lines"><path class="js-line" d="M0,385L181.8,384.47L191.9,384.07L212.1,382.34L222.2,380.8L242.4,375.86L252.5,372.2L272.7,362.54L282.8,356.57L303,343.14L313.1,335.95L353.5,305.76L363.6,298.11L383.8,283.85L393.9,277.28L414.1,266.04L424.2,261.58L444.4,254.65L454.5,251.58L474.7,246.2L484.8,243.93L535.3,231.84L545.4,228.54L565.6,221.97L575.7,219.93L585.8,219.53L595.9,220.94L606,224.46L616.1,230.34L626.2,238.29L636.3,248.09L646.4,259.63L656.5,272.51L696.9,326.46L707,337.67L717.1,347.16L727.2,354.8L737.3,360.81L747.4,365.53L767.6,372.18L777.7,374.63L797.9,378.37L808,379.8L838.3,382.83L848.4,383.46L888.8,384.7L898.9,384.82L999.9,385L1010,385" style="vector-effect: none; fill: none; stroke: rgb(240, 173, 78); stroke-opacity: 1; stroke-width: 2px; opacity: 1;"/></g><g class="points"/><g class="text"/></g><g class="trace scatter trace432d06" style="stroke-miterlimit: 2; opacity: 1;"><g class="fills"/><g class="errorbars"/><g class="lines"><path class="js-line" d="M0,385L181.8,384.49L191.9,384.1L212.1,382.42L222.2,380.92L242.4,376.06L252.5,372.48L272.7,362.92L282.8,357.04L303,343.71L313.1,336.53L383.8,284.41L393.9,277.73L414.1,266.6L424.2,262.13L444.4,255.01L454.5,252.04L484.8,244.59L494.9,242.4L535.3,232.56L545.4,229.16L565.6,222.48L575.7,220.55L585.8,220.08L595.9,221.44L606,224.98L616.1,230.84L626.2,238.76L636.3,248.53L646.4,260.08L656.5,272.91L696.9,326.84L707,338.04L717.1,347.48L727.2,355.06L737.3,361.05L747.4,365.73L767.6,372.39L777.7,374.8L797.9,378.48L808,379.88L838.3,382.8L848.4,383.39L888.8,384.57L898.9,384.69L979.7,384.68L989.8,384.43L999.9,383.7L1010,373.33" style="vector-effect: none; fill: none; stroke: rgb(240, 173, 78); stroke-opacity: 1; stroke-width: 2px; opacity: 1;"/></g><g class="points"/><g class="text"/></g><g class="trace scatter trace9aaffb" style="stroke-miterlimit: 2; opacity: 1;"><g class="fills"/><g class="errorbars"/><g class="lines"><path class="js-line" d="M0,385L202,384.5L212.1,384.17L242.4,382.16L252.5,381.03L282.8,376.25L292.9,374.25L343.4,363.24L353.5,360.95L393.9,352.62L404,350.89L434.3,347.06L444.4,346.16L484.8,343.22L494.9,342.6L545.4,339L555.5,337.96L575.7,336.53L585.8,336.47L606,337.97L616.1,339.73L636.3,344.93L646.4,348.28L676.7,360.12L686.8,364.13L707,371.09L717.1,373.86L737.3,377.86L747.4,379.25L777.7,381.92L787.8,382.51L838.3,384.35L848.4,384.53L929.2,384.99L939.3,385L1010,385" style="vector-effect: none; fill: none; stroke: rgb(240, 173, 78); stroke-opacity: 1; stroke-width: 2px; opacity: 1;"/></g><g class="points"/><g class="text"/></g><g class="trace scatter trace8071f2" style="stroke-miterlimit: 2; opacity: 1;"><g class="fills"/><g class="errorbars"/><g class="lines"><path class="js-line" d="M0,385L202,384.51L212.1,384.2L242.4,382.24L252.5,381.15L282.8,376.42L292.9,374.46L343.4,363.48L353.5,361.19L393.9,352.85L404,351.11L434.3,347.26L444.4,346.35L494.9,342.87L505,342.26L545.4,339.21L555.5,338.21L575.7,336.72L585.8,336.64L606,338.11L616.1,339.84L636.3,345.01L646.4,348.37L707,371.16L717.1,373.93L737.3,377.9L747.4,379.29L777.7,381.96L787.8,382.54L838.3,384.34L848.4,384.51L929.2,384.96L939.3,384.96L999.9,384.67L1010,380.76" style="vector-effect: none; fill: none; stroke: rgb(240, 173, 78); stroke-opacity: 1; stroke-width: 2px; opacity: 1;"/></g><g class="points"/><g class="text"/></g><g class="trace scatter tracea3192c" style="stroke-miterlimit: 2; opacity: 1;"><g class="fills"/><g class="errorbars"/><g class="lines"><path class="js-line" d="M0,385L252.5,384.26L262.6,384L343.4,380.81L353.5,380.36L424.2,377.76L434.3,377.54L585.8,375.44L595.9,375.54L626.2,376.54L636.3,377.11L737.3,383.62L747.4,383.88L828.2,384.83L838.3,384.88L1010,385" style="vector-effect: none; fill: none; stroke: rgb(240, 173, 78); stroke-opacity: 1; stroke-width: 2px; opacity: 1;"/></g><g class="points"/><g class="text"/></g><g class="trace scatter traced31e15" style="stroke-miterlimit: 2; opacity: 1;"><g class="fills"/><g class="errorbars"/><g class="lines"><path class="js-line" d="M0,385L252.5,384.27L262.6,384.02L343.4,380.83L353.5,380.38L434.3,377.57L444.4,377.38L595.9,375.56L606,375.77L646.4,377.79L656.5,378.56L717.1,382.85L727.2,383.28L777.7,384.42L787.8,384.53L919.1,384.99L929.2,384.99L1010,384.31" style="vector-effect: none; fill: none; stroke: rgb(240, 173, 78); stroke-opacity: 1; stroke-width: 2px; opacity: 1;"/></g><g class="points"/><g class="text"/></g><g class="trace scatter trace4effe9" style="stroke-miterlimit: 2; opacity: 1;"><g class="fills"/><g class="errorbars"/><g class="lines"><path class="js-line" d="M0,385L191.9,384.27L202,383.74L222.2,381.7L232.3,380.02L252.5,374.87L262.6,371.31L282.8,362.3L292.9,357.03L323.2,339.42L333.3,333.2L383.8,301.78L393.9,296.2L414.1,286.58L424.2,282.79L444.4,276.71L454.5,274.12L484.8,267.76L494.9,265.94L535.3,257.98L545.4,255.36L565.6,250.21L575.7,248.68L585.8,248.52L595.9,249.89L606,252.95L616.1,257.9L626.2,264.59L636.3,272.81L656.5,293.1L666.6,304.31L686.8,327.05L696.9,337.39L707,346.5L717.1,354.21L727.2,360.42L737.3,365.28L757.5,372.12L767.6,374.53L787.8,378.15L797.9,379.54L828.2,382.54L838.3,383.2L878.7,384.6L888.8,384.75L989.8,385L999.9,385L1010,385" style="vector-effect: none; fill: none; stroke: rgb(240, 173, 78); stroke-opacity: 1; stroke-width: 2px; opacity: 1;"/></g><g class="points"/><g class="text"/></g><g class="trace scatter trace21a609" style="stroke-miterlimit: 2; opacity: 1;"><g class="fills"/><g class="errorbars"/><g class="lines"><path class="js-line" d="M0,385L191.9,384.3L202,383.79L222.2,381.8L232.3,380.15L252.5,375.11L262.6,371.62L282.8,362.7L292.9,357.52L313.1,346.06L323.2,339.98L383.8,302.36L393.9,296.79L414.1,287.1L424.2,283.28L444.4,277.26L454.5,274.73L474.7,270.21L484.8,268.44L535.3,258.67L545.4,256.09L565.6,250.85L575.7,249.34L585.8,249.18L595.9,250.5L606,253.52L616.1,258.53L626.2,265.15L636.3,273.26L646.4,282.88L656.5,293.54L686.8,327.46L696.9,337.71L707,346.79L717.1,354.48L727.2,360.66L737.3,365.5L757.5,372.3L767.6,374.7L787.8,378.24L797.9,379.6L828.2,382.51L838.3,383.13L878.7,384.45L888.8,384.59L969.6,384.72L979.7,384.58L999.9,383.45L1010,373.52" style="vector-effect: none; fill: none; stroke: rgb(240, 173, 78); stroke-opacity: 1; stroke-width: 2px; opacity: 1;"/></g><g class="points"/><g class="text"/></g><g class="trace scatter tracec71a6c" style="stroke-miterlimit: 2; opacity: 1;"><g class="fills"/><g class="errorbars"/><g class="lines"><path class="js-line" d="M0,385L181.8,384.45L191.9,384.02L212.1,382.23L222.2,380.61L242.4,375.37L252.5,371.53L262.6,366.82L272.7,361.2L292.9,347.9L303,340.5L333.3,316.69L343.4,308.38L373.7,283.86L383.8,276.27L404,262.58L414.1,256.87L434.3,247.99L444.4,244.49L464.6,238.25L474.7,235.61L525.2,223.9L535.3,221.14L565.6,211.2L575.7,209.33L585.8,209.15L595.9,210.88L606,214.97L616.1,221.51L626.2,230.07L636.3,240.68L646.4,253.12L656.5,266.84L696.9,323.75L707,335.51L717.1,345.43L727.2,353.38L737.3,359.66L747.4,364.59L767.6,371.54L777.7,374.05L797.9,377.99L808,379.51L838.3,382.69L848.4,383.35L888.8,384.68L898.9,384.81L999.9,385L1010,385" style="vector-effect: none; fill: none; stroke: rgb(240, 173, 78); stroke-opacity: 1; stroke-width: 2px; opacity: 1;"/></g><g class="points"/><g class="text"/></g><g class="trace scatter trace0ec8b1" style="stroke-miterlimit: 2; opacity: 1;"><g class="fills"/><g class="errorbars"/><g class="lines"><path class="js-line" d="M0,385L181.8,384.46L191.9,384.06L212.1,382.3L222.2,380.72L242.4,375.59L252.5,371.82L262.6,367.16L272.7,361.64L292.9,348.46L303,341.06L333.3,317.39L343.4,309.08L373.7,284.39L383.8,276.75L404,263.12L414.1,257.38L434.3,248.4L444.4,244.89L474.7,236.13L484.8,233.77L525.2,224.39L535.3,221.64L565.6,211.71L575.7,209.81L585.8,209.68L595.9,211.41L606,215.34L616.1,221.84L626.2,230.45L636.3,240.96L646.4,253.38L656.5,267.16L696.9,324.05L707,335.77L717.1,345.64L727.2,353.54L737.3,359.77L747.4,364.7L767.6,371.66L777.7,374.16L797.9,378.03L808,379.51L838.3,382.63L848.4,383.26L888.8,384.53L898.9,384.66L979.7,384.63L989.8,384.34L999.9,383.61L1010,375.16" style="vector-effect: none; fill: none; stroke: rgb(240, 173, 78); stroke-opacity: 1; stroke-width: 2px; opacity: 1;"/></g><g class="points"/><g class="text"/></g><g class="trace scatter trace62914b" style="stroke-miterlimit: 2; opacity: 1;"><g class="fills"/><g class="errorbars"/><g class="lines"><path class="js-line" d="M0,385L191.9,384.36L202,383.89L222.2,382.11L232.3,380.65L252.5,376.16L262.6,373.08L282.8,365.28L292.9,360.74L323.2,345.69L333.3,340.43L383.8,314.27L393.9,309.66L414.1,301.88L424.2,298.81L444.4,293.93L454.5,291.9L484.8,286.91L494.9,285.49L535.3,279.25L545.4,277.12L565.6,272.85L575.7,271.68L585.8,271.61L595.9,272.72L606,275.31L616.1,279.49L626.2,284.98L636.3,291.71L656.5,308.52L666.6,317.85L686.8,336.68L696.9,345.22L707,352.82L717.1,359.26L727.2,364.42L737.3,368.47L757.5,374.17L767.6,376.2L787.8,379.23L797.9,380.39L828.2,382.92L838.3,383.47L878.7,384.66L888.8,384.79L1010,385" style="vector-effect: none; fill: none; stroke: rgb(240, 173, 78); stroke-opacity: 1; stroke-width: 2px; opacity: 1;"/></g><g class="points"/><g class="text"/></g><g class="trace scatter trace2813a9" style="stroke-miterlimit: 2; opacity: 1;"><g class="fills"/><g class="errorbars"/><g class="lines"><path class="js-line" d="M0,385L191.9,384.38L202,383.93L222.2,382.21L232.3,380.77L252.5,376.39L262.6,373.34L282.8,365.62L292.9,361.15L323.2,346.15L333.3,340.85L383.8,314.68L393.9,310.05L414.1,302.18L424.2,299.05L444.4,294.22L454.5,292.18L484.8,287.16L494.9,285.72L535.3,279.53L545.4,277.43L565.6,273.24L575.7,272.04L585.8,271.89L595.9,272.93L606,275.5L616.1,279.71L626.2,285.22L636.3,291.97L656.5,308.67L666.6,317.97L686.8,336.83L696.9,345.37L707,352.93L717.1,359.34L727.2,364.48L737.3,368.5L757.5,374.22L767.6,376.24L787.8,379.25L797.9,380.4L828.2,382.88L838.3,383.43L878.7,384.57L888.8,384.69L979.7,384.77L989.8,384.61L999.9,384.19L1010,379.08" style="vector-effect: none; fill: none; stroke: rgb(240, 173, 78); stroke-opacity: 1; stroke-width: 2px; opacity: 1;"/></g><g class="points"/><g class="text"/></g><g class="trace scatter traced4664c" style="stroke-miterlimit: 2; opacity: 1;"><g class="fills"/><g class="errorbars"/><g class="lines"><path class="js-line" d="M0,385L232.3,384.3L242.4,384L282.8,381.87L292.9,381.15L424.2,371.1L434.3,370.66L505,368.52L515.1,368.23L595.9,366.21L606,366.59L636.3,369.22L646.4,370.52L717.1,380.58L727.2,381.46L757.5,383.14L767.6,383.49L838.3,384.74L848.4,384.81L999.9,385L1010,385" style="vector-effect: none; fill: none; stroke: rgb(240, 173, 78); stroke-opacity: 1; stroke-width: 2px; opacity: 1;"/></g><g class="points"/><g class="text"/></g><g class="trace scatter tracee033fe" style="stroke-miterlimit: 2; opacity: 1;"><g class="fills"/><g class="errorbars"/><g class="lines"><path class="js-line" d="M0,385L232.3,384.33L242.4,384.02L282.8,381.92L292.9,381.21L424.2,371.14L434.3,370.69L505,368.59L515.1,368.31L595.9,366.23L606,366.62L636.3,369.25L646.4,370.55L717.1,380.6L727.2,381.48L757.5,383.16L767.6,383.5L838.3,384.73L848.4,384.8L989.8,384.95L999.9,384.9L1010,383.92" style="vector-effect: none; fill: none; stroke: rgb(240, 173, 78); stroke-opacity: 1; stroke-width: 2px; opacity: 1;"/></g><g class="points"/><g class="text"/></g><g class="trace scatter tracec6fb71" style="stroke-miterlimit: 2; opacity: 1;"><g class="fills"/><g class="errorbars"/><g class="lines"><path class="js-line" d="M0,385L212.1,384.43L222.2,384.11L252.5,382.27L262.6,381.32L292.9,377.52L303,376.03L404,360.25L414.1,359.12L454.5,355.93L464.6,355.35L555.5,350.26L565.6,349.53L585.8,348.98L595.9,349.24L616.1,351.21L626.2,352.91L646.4,357.51L656.5,360.28L707,374.5L717.1,376.58L737.3,379.61L747.4,380.66L777.7,382.65L787.8,383.11L848.4,384.64L858.5,384.75L979.7,385L989.8,385L1010,385" style="vector-effect: none; fill: none; stroke: rgb(240, 173, 78); stroke-opacity: 1; stroke-width: 2px; opacity: 1;"/></g><g class="points"/><g class="text"/></g><g class="trace scatter tracec8328a" style="stroke-miterlimit: 2; opacity: 1;"><g class="fills"/><g class="errorbars"/><g class="lines"><path class="js-line" d="M0,385L212.1,384.45L222.2,384.13L252.5,382.32L262.6,381.4L292.9,377.61L303,376.14L414.1,359.19L424.2,358.21L464.6,355.48L474.7,354.93L545.4,351.19L555.5,350.39L575.7,349.24L585.8,349.1L606,350.07L616.1,351.3L636.3,355.08L646.4,357.56L707,374.53L717.1,376.61L737.3,379.6L747.4,380.65L777.7,382.66L787.8,383.11L838.3,384.48L848.4,384.62L949.4,384.97L959.5,384.97L999.9,384.81L1010,383.08" style="vector-effect: none; fill: none; stroke: rgb(240, 173, 78); stroke-opacity: 1; stroke-width: 2px; opacity: 1;"/></g><g class="points"/><g class="text"/></g><g class="trace scatter tracea0fea9" style="stroke-miterlimit: 2; opacity: 1;"><g class="fills"/><g class="errorbars"/><g class="lines"><path class="js-line" d="M0,385L171.7,384.43L181.8,383.99L202,381.97L212.1,380.01L222.2,377.13L232.3,373.1L242.4,367.74L252.5,360.9L262.6,352.46L272.7,342.48L292.9,318.73L303,305.43L333.3,262.52L343.4,247.4L373.7,202.32L383.8,188.37L404,163.02L414.1,152.28L424.2,143.3L434.3,135.61L454.5,122.86L464.6,117.23L484.8,107.76L494.9,103.33L525.2,89.15L535.3,83.57L565.6,63.34L575.7,59.15L585.8,58.25L595.9,60.82L606,67.49L616.1,78.93L626.2,94.44L636.3,113.53L646.4,136.25L656.5,161.67L696.9,268.16L707,290.44L717.1,309.35L727.2,324.47L737.3,336.41L747.4,345.83L757.5,353.22L767.6,359.15L787.8,368.05L797.9,371.47L818.1,376.82L828.2,378.87L848.4,381.77L858.5,382.76L888.8,384.36L898.9,384.62L959.5,384.99L969.6,384.99L1010,385" style="vector-effect: none; fill: none; stroke: rgb(240, 173, 78); stroke-opacity: 1; stroke-width: 2px; opacity: 1;"/></g><g class="points"/><g class="text"/></g><g class="trace scatter traceae209f" style="stroke-miterlimit: 2; opacity: 1;"><g class="fills"/><g class="errorbars"/><g class="lines"><path class="js-line" d="M0,385L171.7,384.46L181.8,384.03L202,382.06L212.1,380.14L222.2,377.3L232.3,373.35L242.4,368.1L252.5,361.37L262.6,353.02L272.7,343.17L292.9,319.57L303,306.39L323.2,278.17L333.3,263.42L373.7,203.07L383.8,189.06L404,163.69L414.1,153.05L424.2,144.05L434.3,136.39L454.5,123.8L464.6,118.24L484.8,108.54L494.9,104.22L525.2,90.13L535.3,84.68L565.6,64.51L575.7,60.3L585.8,59.11L595.9,61.61L606,68.38L616.1,79.75L626.2,95.11L636.3,114.12L646.4,136.72L656.5,162.02L696.9,268.66L707,290.87L717.1,309.66L727.2,324.76L737.3,336.64L747.4,346.03L757.5,353.45L767.6,359.36L787.8,368.18L797.9,371.58L818.1,376.85L828.2,378.85L848.4,381.68L858.5,382.63L888.8,384.18L898.9,384.43L959.5,384.78L969.6,384.74L989.8,384.35L999.9,383.53L1010,367.45" style="vector-effect: none; fill: none; stroke: rgb(240, 173, 78); stroke-opacity: 1; stroke-width: 2px; opacity: 1;"/></g><g class="points"/><g class="text"/></g><g class="trace scatter trace4e34ee" style="stroke-miterlimit: 2; opacity: 1;"><g class="fills"/><g class="errorbars"/><g class="lines"><path class="js-line" d="M0,385L171.7,384.44L181.8,383.99L202,381.99L212.1,380.03L222.2,377.16L232.3,373.17L242.4,367.87L252.5,361.1L262.6,352.76L272.7,342.91L292.9,319.66L303,306.75L333.3,265.66L343.4,251.48L373.7,209.48L383.8,196.61L404,173.55L414.1,163.95L424.2,155.96L434.3,149.26L454.5,138.33L464.6,133.5L484.8,125.48L494.9,121.77L525.2,110.09L535.3,105.38L565.6,88.54L575.7,85.28L585.8,84.98L595.9,87.96L606,94.65L616.1,105.66L626.2,120.28L636.3,138.14L646.4,159.21L656.5,182.61L696.9,279.89L707,300.03L717.1,317.08L727.2,330.74L737.3,341.53L747.4,350.03L757.5,356.7L767.6,362.03L787.8,370.01L797.9,373.07L818.1,377.85L828.2,379.66L848.4,382.22L858.5,383.06L888.8,384.46L898.9,384.68L969.6,385L979.7,385L1010,385" style="vector-effect: none; fill: none; stroke: rgb(240, 173, 78); stroke-opacity: 1; stroke-width: 2px; opacity: 1;"/></g><g class="points"/><g class="text"/></g><g class="trace scatter trace2d054b" style="stroke-miterlimit: 2; opacity: 1;"><g class="fills"/><g class="errorbars"/><g class="lines"><path class="js-line" d="M0,385L171.7,384.46L181.8,384.04L202,382.09L212.1,380.19L222.2,377.38L232.3,373.48L242.4,368.27L252.5,361.6L262.6,353.39L272.7,343.7L292.9,320.68L303,307.83L333.3,266.79L343.4,252.49L373.7,210.54L383.8,197.63L404,174.54L414.1,165.1L424.2,157.1L434.3,150.31L454.5,139.36L464.6,134.65L484.8,126.68L494.9,122.97L525.2,111.31L535.3,106.75L565.6,89.97L575.7,86.56L585.8,86.19L595.9,89.13L606,95.75L616.1,106.58L626.2,121.15L636.3,138.89L646.4,159.81L656.5,183.1L686.8,257.63L696.9,280.33L707,300.46L717.1,317.47L727.2,331.08L737.3,341.81L747.4,350.25L757.5,356.89L767.6,362.24L777.7,366.56L797.9,373.18L808,375.71L828.2,379.61L838.3,381L858.5,382.9L868.6,383.49L909,384.61L919.1,384.7L979.7,384.48L989.8,384.04L999.9,382.73L1010,363.12" style="vector-effect: none; fill: none; stroke: rgb(240, 173, 78); stroke-opacity: 1; stroke-width: 2px; opacity: 1;"/></g><g class="points"/><g class="text"/></g><g class="trace scatter tracec36c33" style="stroke-miterlimit: 2; opacity: 1;"><g class="fills"/><g class="errorbars"/><g class="lines"><path class="js-line" d="M0,385L181.8,384.51L191.9,384.14L212.1,382.56L222.2,381.14L242.4,376.52L252.5,373.18L272.7,364.15L282.8,358.59L303,345.92L313.1,339.06L343.4,317.25L353.5,309.6L383.8,287.79L393.9,281.1L414.1,269.63L424.2,265.13L444.4,257.66L454.5,254.49L474.7,248.84L484.8,246.43L535.3,233.56L545.4,230.08L565.6,223.12L575.7,220.94L585.8,220.38L595.9,221.7L606,225.08L616.1,230.78L626.2,238.58L636.3,248.27L646.4,259.75L656.5,272.59L696.9,326.35L707,337.5L717.1,347L727.2,354.6L737.3,360.59L747.4,365.33L767.6,372.04L777.7,374.47L797.9,378.21L808,379.66L838.3,382.74L848.4,383.37L888.8,384.67L898.9,384.8L999.9,384.99L1010,385" style="vector-effect: none; fill: none; stroke: rgb(240, 173, 78); stroke-opacity: 1; stroke-width: 2px; opacity: 1;"/></g><g class="points"/><g class="text"/></g><g class="trace scatter tracebab312" style="stroke-miterlimit: 2; opacity: 1;"><g class="fills"/><g class="errorbars"/><g class="lines"><path class="js-line" d="M0,385L181.8,384.53L191.9,384.17L212.1,382.63L222.2,381.26L242.4,376.78L252.5,373.49L272.7,364.62L282.8,359.12L303,346.54L313.1,339.69L343.4,317.9L353.5,310.31L383.8,288.53L393.9,281.87L414.1,270.38L424.2,265.87L444.4,258.47L454.5,255.33L474.7,249.67L484.8,247.32L525.2,237.42L535.3,234.52L565.6,224.1L575.7,221.99L585.8,221.44L595.9,222.6L606,225.96L616.1,231.72L626.2,239.48L636.3,249.05L646.4,260.47L656.5,273.26L696.9,326.85L707,337.98L717.1,347.38L727.2,354.92L737.3,360.88L747.4,365.59L767.6,372.22L777.7,374.62L797.9,378.32L808,379.73L838.3,382.7L848.4,383.32L888.8,384.57L898.9,384.69L979.7,384.74L989.8,384.5L999.9,383.77L1010,367.32" style="vector-effect: none; fill: none; stroke: rgb(240, 173, 78); stroke-opacity: 1; stroke-width: 2px; opacity: 1;"/></g><g class="points"/><g class="text"/></g><g class="trace scatter trace725f23" style="stroke-miterlimit: 2; opacity: 1;"><g class="fills"/><g class="errorbars"/><g class="lines"><path class="js-line" d="M0,385L181.8,384.49L191.9,384.1L212.1,382.48L222.2,381.01L242.4,376.29L252.5,372.84L272.7,363.52L282.8,357.76L303,344.77L313.1,337.78L353.5,307.8L363.6,300.12L383.8,285.62L393.9,278.91L414.1,267.35L424.2,262.8L444.4,255.51L454.5,252.4L474.7,246.86L484.8,244.62L525.2,235.05L535.3,232.26L565.6,222.12L575.7,220.09L585.8,219.65L595.9,221.03L606,224.54L616.1,230.33L626.2,238.26L636.3,248.03L646.4,259.52L656.5,272.46L696.9,326.39L707,337.58L717.1,347.06L727.2,354.68L737.3,360.66L747.4,365.39L767.6,372.1L777.7,374.52L797.9,378.25L808,379.7L838.3,382.74L848.4,383.38L888.8,384.68L898.9,384.8L999.9,384.99L1010,385" style="vector-effect: none; fill: none; stroke: rgb(240, 173, 78); stroke-opacity: 1; stroke-width: 2px; opacity: 1;"/></g><g class="points"/><g class="text"/></g><g class="trace scatter trace7773f1" style="stroke-miterlimit: 2; opacity: 1;"><g class="fills"/><g class="errorbars"/><g class="lines"><path class="js-line" d="M0,385L181.8,384.51L191.9,384.14L212.1,382.57L222.2,381.15L242.4,376.57L252.5,373.18L272.7,364.05L282.8,358.43L303,345.6L313.1,338.62L343.4,316.43L353.5,308.7L383.8,286.51L393.9,279.87L414.1,268.34L424.2,263.77L444.4,256.53L454.5,253.43L474.7,247.99L484.8,245.75L525.2,236.3L535.3,233.48L565.6,223.42L575.7,221.31L585.8,220.9L595.9,222.24L606,225.71L616.1,231.51L626.2,239.33L636.3,249L646.4,260.51L656.5,273.34L696.9,326.98L707,338.1L717.1,347.53L727.2,355.05L737.3,360.97L747.4,365.66L767.6,372.32L777.7,374.71L797.9,378.37L808,379.78L838.3,382.72L848.4,383.33L888.8,384.56L898.9,384.69L979.7,384.72L989.8,384.46L999.9,383.57L1010,362.53" style="vector-effect: none; fill: none; stroke: rgb(240, 173, 78); stroke-opacity: 1; stroke-width: 2px; opacity: 1;"/></g><g class="points"/><g class="text"/></g><g class="trace scatter trace8d6306" style="stroke-miterlimit: 2; opacity: 1;"><g class="fills"/><g class="errorbars"/><g class="lines"><path class="js-line" d="M0,385L181.8,384.52L191.9,384.16L212.1,382.62L222.2,381.23L242.4,376.77L252.5,373.49L272.7,364.64L282.8,359.16L303,346.72L313.1,339.96L343.4,318.31L353.5,310.72L383.8,288.9L393.9,282.31L414.1,270.8L424.2,266.18L444.4,258.91L454.5,255.67L474.7,250.09L484.8,247.75L525.2,237.79L535.3,234.91L565.6,224.45L575.7,222.3L585.8,221.76L595.9,222.96L606,226.31L616.1,231.97L626.2,239.65L636.3,249.25L646.4,260.68L656.5,273.41L696.9,326.81L707,337.94L717.1,347.34L727.2,354.86L737.3,360.82L747.4,365.52L767.6,372.16L777.7,374.56L797.9,378.27L808,379.72L838.3,382.75L848.4,383.38L888.8,384.68L898.9,384.81L999.9,385L1010,385" style="vector-effect: none; fill: none; stroke: rgb(240, 173, 78); stroke-opacity: 1; stroke-width: 2px; opacity: 1;"/></g><g class="points"/><g class="text"/></g><g class="trace scatter trace0d7a91" style="stroke-miterlimit: 2; opacity: 1;"><g class="fills"/><g class="errorbars"/><g class="lines"><path class="js-line" d="M0,385L181.8,384.55L191.9,384.2L212.1,382.7L222.2,381.35L242.4,376.96L252.5,373.75L272.7,365.04L282.8,359.65L303,347.3L313.1,340.6L343.4,318.92L353.5,311.39L383.8,289.6L393.9,282.98L414.1,271.51L424.2,266.88L444.4,259.51L454.5,256.42L484.8,248.58L494.9,246.23L535.3,235.83L545.4,232.38L565.6,225.42L575.7,223.32L585.8,222.7L595.9,223.8L606,227.08L616.1,232.75L626.2,240.45L636.3,250.01L646.4,261.37L656.5,274.03L696.9,327.23L707,338.27L717.1,347.61L727.2,355.13L737.3,361.05L747.4,365.7L767.6,372.31L777.7,374.69L797.9,378.36L808,379.75L838.3,382.71L848.4,383.32L888.8,384.56L898.9,384.68L979.7,384.73L989.8,384.5L999.9,383.81L1010,369.16" style="vector-effect: none; fill: none; stroke: rgb(240, 173, 78); stroke-opacity: 1; stroke-width: 2px; opacity: 1;"/></g><g class="points"/><g class="text"/></g><g class="trace scatter trace57fcbb" style="stroke-miterlimit: 2; opacity: 1;"><g class="fills"/><g class="errorbars"/><g class="lines"><path class="js-line" d="M0,385L191.9,384.36L202,383.9L222.2,382.12L232.3,380.64L252.5,376.1L262.6,372.95L282.8,365.01L292.9,360.34L323.2,344.54L333.3,338.93L383.8,310.45L393.9,305.34L414.1,296.46L424.2,293.03L444.4,287.48L454.5,285.1L484.8,279.35L494.9,277.67L535.3,270.43L545.4,268.05L565.6,263.29L575.7,261.86L585.8,261.74L595.9,262.99L606,265.78L616.1,270.29L626.2,276.34L636.3,283.69L646.4,292.37L656.5,302.05L696.9,342.02L707,350.26L717.1,357.21L727.2,362.76L737.3,367.16L747.4,370.62L767.6,375.48L777.7,377.25L808,381.06L818.1,381.95L848.4,383.78L858.5,384.15L909,384.92L919.1,384.96L1010,385" style="vector-effect: none; fill: none; stroke: rgb(240, 173, 78); stroke-opacity: 1; stroke-width: 2px; opacity: 1;"/></g><g class="points"/><g class="text"/></g><g class="trace scatter traceaab43a" style="stroke-miterlimit: 2; opacity: 1;"><g class="fills"/><g class="errorbars"/><g class="lines"><path class="js-line" d="M0,385L191.9,384.38L202,383.93L222.2,382.19L232.3,380.75L252.5,376.3L262.6,373.21L282.8,365.34L292.9,360.7L323.2,345L333.3,339.38L383.8,310.81L393.9,305.67L414.1,296.83L424.2,293.34L444.4,287.73L454.5,285.37L484.8,279.61L494.9,277.97L535.3,270.68L545.4,268.32L565.6,263.49L575.7,262.15L585.8,261.96L595.9,263.13L606,265.98L616.1,270.46L626.2,276.5L636.3,283.92L656.5,302.27L666.6,312.42L686.8,332.88L696.9,342.16L707,350.39L717.1,357.3L727.2,362.83L737.3,367.2L757.5,373.38L767.6,375.53L787.8,378.76L797.9,380.01L828.2,382.69L838.3,383.27L878.7,384.53L888.8,384.67L969.6,384.86L979.7,384.79L999.9,384.13L1010,379.19" style="vector-effect: none; fill: none; stroke: rgb(240, 173, 78); stroke-opacity: 1; stroke-width: 2px; opacity: 1;"/></g><g class="points"/><g class="text"/></g><g class="trace scatter tracec63512" style="stroke-miterlimit: 2; opacity: 1;"><g class="fills"/><g class="errorbars"/><g class="lines"><path class="js-line" d="M0,385L191.9,384.35L202,383.88L222.2,382.07L232.3,380.57L252.5,375.97L262.6,372.82L282.8,364.76L292.9,360.04L323.2,344.23L333.3,338.58L383.8,310.07L393.9,304.98L414.1,296.18L424.2,292.75L444.4,287.25L454.5,284.89L484.8,279.11L494.9,277.51L535.3,270.26L545.4,267.92L565.6,263.21L575.7,261.81L585.8,261.56L595.9,262.76L606,265.57L616.1,270.11L626.2,276.15L636.3,283.57L656.5,301.94L666.6,312.03L686.8,332.55L696.9,341.85L707,350.12L717.1,357.12L727.2,362.7L737.3,367.11L757.5,373.27L767.6,375.44L787.8,378.71L797.9,379.97L828.2,382.71L838.3,383.31L878.7,384.62L888.8,384.75L989.8,385L999.9,385L1010,385" style="vector-effect: none; fill: none; stroke: rgb(240, 173, 78); stroke-opacity: 1; stroke-width: 2px; opacity: 1;"/></g><g class="points"/><g class="text"/></g><g class="trace scatter traceee4223" style="stroke-miterlimit: 2; opacity: 1;"><g class="fills"/><g class="errorbars"/><g class="lines"><path class="js-line" d="M0,385L191.9,384.37L202,383.92L222.2,382.16L232.3,380.7L252.5,376.2L262.6,373.07L282.8,365.09L292.9,360.43L323.2,344.66L333.3,339L383.8,310.38L393.9,305.25L414.1,296.43L424.2,292.96L444.4,287.42L454.5,285.13L484.8,279.42L494.9,277.77L535.3,270.48L545.4,268.16L565.6,263.37L575.7,261.95L585.8,261.84L595.9,263.1L606,265.86L616.1,270.33L626.2,276.34L636.3,283.76L656.5,302.14L666.6,312.27L686.8,332.77L696.9,342.07L707,350.29L717.1,357.22L727.2,362.79L737.3,367.16L757.5,373.35L767.6,375.51L787.8,378.73L797.9,379.98L828.2,382.68L838.3,383.27L878.7,384.54L888.8,384.67L969.6,384.87L979.7,384.8L999.9,384.23L1010,379.33" style="vector-effect: none; fill: none; stroke: rgb(240, 173, 78); stroke-opacity: 1; stroke-width: 2px; opacity: 1;"/></g><g class="points"/><g class="text"/></g><g class="trace scatter trace160d8e" style="stroke-miterlimit: 2; opacity: 1;"><g class="fills"/><g class="errorbars"/><g class="lines"><path class="js-line" d="M0,385L181.8,384.31L191.9,383.8L212.1,381.59L222.2,379.61L232.3,376.91L242.4,373.27L252.5,368.61L262.6,362.9L282.8,348.6L292.9,340.32L323.2,312.76L333.3,303.14L373.7,264.22L383.8,255.27L404,239.07L414.1,232.38L424.2,226.59L434.3,221.73L454.5,213.64L464.6,210.13L494.9,201.1L505,198.22L535.3,188.52L545.4,184.22L565.6,175.64L575.7,173.05L585.8,172.5L595.9,174.22L606,178.7L616.1,186.18L626.2,196.28L636.3,208.71L646.4,223.46L656.5,239.99L696.9,309.17L707,323.58L717.1,335.81L727.2,345.65L737.3,353.4L747.4,359.49L757.5,364.3L767.6,368.15L787.8,373.95L797.9,376.18L818.1,379.67L828.2,381.02L858.5,383.55L868.6,384L909,384.87L919.1,384.94L1010,385" style="vector-effect: none; fill: none; stroke: rgb(240, 173, 78); stroke-opacity: 1; stroke-width: 2px; opacity: 1;"/></g><g class="points"/><g class="text"/></g><g class="trace scatter trace234160" style="stroke-miterlimit: 2; opacity: 1;"><g class="fills"/><g class="errorbars"/><g class="lines"><path class="js-line" d="M0,385L181.8,384.34L191.9,383.83L212.1,381.71L222.2,379.79L232.3,377.12L242.4,373.58L252.5,369.04L262.6,363.45L282.8,349.32L292.9,341.09L323.2,313.77L333.3,304.18L373.7,265.24L383.8,256.24L404,240.06L414.1,233.28L434.3,222.77L444.4,218.47L474.7,208L484.8,205.15L525.2,193.2L535.3,189.72L565.6,176.88L575.7,174.26L585.8,173.66L595.9,175.19L606,179.65L616.1,187.14L626.2,197.15L636.3,209.53L646.4,224.27L656.5,240.65L696.9,309.63L707,324.01L717.1,336.2L727.2,345.96L737.3,353.65L747.4,359.72L757.5,364.5L767.6,368.36L787.8,374.08L797.9,376.29L818.1,379.7L828.2,381L858.5,383.44L868.6,383.88L909,384.73L919.1,384.79L989.8,384.46L999.9,383.61L1010,363.4" style="vector-effect: none; fill: none; stroke: rgb(240, 173, 78); stroke-opacity: 1; stroke-width: 2px; opacity: 1;"/></g><g class="points"/><g class="text"/></g><g class="trace scatter tracefc4876" style="stroke-miterlimit: 2; opacity: 1;"><g class="fills"/><g class="errorbars"/><g class="lines"><path class="js-line" d="M0,385L171.7,384.36L181.8,383.87L202,381.6L212.1,379.4L222.2,376.16L232.3,371.65L242.4,365.65L252.5,357.98L262.6,348.58L272.7,337.49L292.9,311.09L303,296.45L333.3,249.46L343.4,233.17L373.7,184.69L383.8,169.7L404,142.78L414.1,131.48L424.2,121.95L434.3,113.79L454.5,100.2L464.6,94.15L484.8,83.8L494.9,79.07L525.2,63.74L535.3,57.96L565.6,36.5L575.7,32.33L585.8,31.57L595.9,34.57L606,42.19L616.1,54.82L626.2,71.74L636.3,92.68L646.4,117.39L656.5,144.89L696.9,260.09L707,283.97L717.1,304.26L727.2,320.51L737.3,333.31L747.4,343.42L757.5,351.33L767.6,357.66L777.7,362.84L787.8,367.16L808,373.81L818.1,376.42L838.3,380.28L848.4,381.61L868.6,383.39L878.7,383.94L919.1,384.89L929.2,384.95L1010,385" style="vector-effect: none; fill: none; stroke: rgb(240, 173, 78); stroke-opacity: 1; stroke-width: 2px; opacity: 1;"/></g><g class="points"/><g class="text"/></g><g class="trace scatter trace468aa4" style="stroke-miterlimit: 2; opacity: 1;"><g class="fills"/><g class="errorbars"/><g class="lines"><path class="js-line" d="M0,385L171.7,384.38L181.8,383.9L202,381.69L212.1,379.55L222.2,376.38L232.3,371.99L242.4,366.12L252.5,358.58L262.6,349.32L272.7,338.32L292.9,312.27L303,297.69L333.3,250.8L343.4,234.55L373.7,186L383.8,171.05L404,144.08L414.1,132.76L424.2,123.25L434.3,115.13L454.5,101.63L464.6,95.69L484.8,85.22L494.9,80.57L525.2,65.31L535.3,59.51L565.6,38.04L575.7,33.78L585.8,32.97L595.9,35.92L606,43.44L616.1,56.01L626.2,73L636.3,93.76L646.4,118.3L656.5,145.79L696.9,260.75L707,284.55L717.1,304.76L727.2,320.94L737.3,333.69L747.4,343.77L757.5,351.66L767.6,357.95L777.7,363.08L787.8,367.33L808,373.92L818.1,376.46L838.3,380.18L848.4,381.47L868.6,383.2L878.7,383.72L919.1,384.66L929.2,384.71L989.8,384.19L999.9,382.92L1010,356.7" style="vector-effect: none; fill: none; stroke: rgb(240, 173, 78); stroke-opacity: 1; stroke-width: 2px; opacity: 1;"/></g><g class="points"/><g class="text"/></g><g class="trace scatter trace26119e" style="stroke-miterlimit: 2; opacity: 1;"><g class="fills"/><g class="errorbars"/><g class="lines"><path class="js-line" d="M0,385L171.7,384.42L181.8,383.97L202,381.91L212.1,379.91L222.2,376.98L232.3,372.89L242.4,367.44L252.5,360.48L262.6,352L272.7,341.88L292.9,317.99L303,304.61L333.3,262.06L343.4,247.2L373.7,203.15L383.8,189.59L404,164.97L414.1,154.62L424.2,145.88L434.3,138.45L454.5,125.76L464.6,120.05L484.8,110.24L494.9,105.73L525.2,91.12L535.3,85.6L565.6,65.42L575.7,61.31L585.8,60.4L595.9,62.97L606,69.77L616.1,81.25L626.2,96.68L636.3,115.75L646.4,138.47L656.5,163.76L696.9,269.66L707,291.69L717.1,310.33L727.2,325.34L737.3,337.22L747.4,346.51L757.5,353.82L767.6,359.7L787.8,368.43L797.9,371.79L818.1,377.03L828.2,379.03L848.4,381.85L858.5,382.82L888.8,384.37L898.9,384.62L959.5,384.99L969.6,385L1010,385" style="vector-effect: none; fill: none; stroke: rgb(240, 173, 78); stroke-opacity: 1; stroke-width: 2px; opacity: 1;"/></g><g class="points"/><g class="text"/></g><g class="trace scatter trace740ab6" style="stroke-miterlimit: 2; opacity: 1;"><g class="fills"/><g class="errorbars"/><g class="lines"><path class="js-line" d="M0,385L171.7,384.44L181.8,384L202,382.01L212.1,380.05L222.2,377.19L232.3,373.2L242.4,367.87L252.5,361.04L262.6,352.64L272.7,342.68L292.9,318.98L303,305.78L333.3,263.19L343.4,248.37L373.7,204.37L383.8,190.82L404,166.07L414.1,155.73L424.2,147.1L434.3,139.66L454.5,126.97L464.6,121.35L484.8,111.47L494.9,106.92L525.2,92.37L535.3,86.78L565.6,66.7L575.7,62.57L585.8,61.56L595.9,64.11L606,70.84L616.1,82.2L626.2,97.66L636.3,116.76L646.4,139.36L656.5,164.57L696.9,270.31L707,292.28L717.1,310.87L727.2,325.82L737.3,337.61L747.4,346.86L757.5,354.13L767.6,359.95L787.8,368.64L797.9,371.96L818.1,377.09L828.2,379.02L848.4,381.76L858.5,382.68L888.8,384.19L898.9,384.43L959.5,384.77L969.6,384.75L989.8,384.31L999.9,383.3L1010,360.02" style="vector-effect: none; fill: none; stroke: rgb(240, 173, 78); stroke-opacity: 1; stroke-width: 2px; opacity: 1;"/></g><g class="points"/><g class="text"/></g></g></g></g><path class="xlines-above crisp" d="M0,0" style="fill: none;"/><path class="ylines-above crisp" d="M0,0" style="fill: none;"/><g class="overlines-above"/><g class="xaxislayer-above"><g class="xtick"><text text-anchor="middle" x="0" y="451" transform="translate(64,0)" style="font-family: 'Lucida Grande', 'Open Sans', verdana, arial, sans-serif; font-size: 10px; fill: rgb(0, 0, 0); fill-opacity: 1; white-space: pre; opacity: 1;">0%</text></g><g class="xtick"><text text-anchor="middle" x="0" y="451" style="font-family: 'Lucida Grande', 'Open Sans', verdana, arial, sans-serif; font-size: 10px; fill: rgb(0, 0, 0); fill-opacity: 1; white-space: pre; opacity: 1;" transform="translate(266,0)">20%</text></g><g class="xtick"><text text-anchor="middle" x="0" y="451" style="font-family: 'Lucida Grande', 'Open Sans', verdana, arial, sans-serif; font-size: 10px; fill: rgb(0, 0, 0); fill-opacity: 1; white-space: pre; opacity: 1;" transform="translate(468,0)">40%</text></g><g class="xtick"><text text-anchor="middle" x="0" y="451" style="font-family: 'Lucida Grande', 'Open Sans', verdana, arial, sans-serif; font-size: 10px; fill: rgb(0, 0, 0); fill-opacity: 1; white-space: pre; opacity: 1;" transform="translate(670,0)">60%</text></g><g class="xtick"><text text-anchor="middle" x="0" y="451" style="font-family: 'Lucida Grande', 'Open Sans', verdana, arial, sans-serif; font-size: 10px; fill: rgb(0, 0, 0); fill-opacity: 1; white-space: pre; opacity: 1;" transform="translate(872,0)">80%</text></g><g class="xtick"><text text-anchor="middle" x="0" y="451" style="font-family: 'Lucida Grande', 'Open Sans', verdana, arial, sans-serif; font-size: 10px; fill: rgb(0, 0, 0); fill-opacity: 1; white-space: pre; opacity: 1;" transform="translate(1074,0)">100%</text></g></g><g class="yaxislayer-above"><g class="ytick"><text text-anchor="end" x="58" y="3.5" transform="translate(0,435)" style="font-family: 'Lucida Grande', 'Open Sans', verdana, arial, sans-serif; font-size: 10px; fill: rgb(0, 0, 0); fill-opacity: 1; white-space: pre; opacity: 1;">0</text></g><g class="ytick"><text text-anchor="end" x="58" y="3.5" style="font-family: 'Lucida Grande', 'Open Sans', verdana, arial, sans-serif; font-size: 10px; fill: rgb(0, 0, 0); fill-opacity: 1; white-space: pre; opacity: 1;" transform="translate(0,361.19)">5M</text></g><g class="ytick"><text text-anchor="end" x="58" y="3.5" style="font-family: 'Lucida Grande', 'Open Sans', verdana, arial, sans-serif; font-size: 10px; fill: rgb(0, 0, 0); fill-opacity: 1; white-space: pre; opacity: 1;" transform="translate(0,287.38)">10M</text></g><g class="ytick"><text text-anchor="end" x="58" y="3.5" style="font-family: 'Lucida Grande', 'Open Sans', verdana, arial, sans-serif; font-size: 10px; fill: rgb(0, 0, 0); fill-opacity: 1; white-space: pre; opacity: 1;" transform="translate(0,213.57)">15M</text></g><g class="ytick"><text text-anchor="end" x="58" y="3.5" style="font-family: 'Lucida Grande', 'Open Sans', verdana, arial, sans-serif; font-size: 10px; fill: rgb(0, 0, 0); fill-opacity: 1; white-space: pre; opacity: 1;" transform="translate(0,139.76)">20M</text></g><g class="ytick"><text text-anchor="end" x="58" y="3.5" style="font-family: 'Lucida Grande', 'Open Sans', verdana, arial, sans-serif; font-size: 10px; fill: rgb(0, 0, 0); fill-opacity: 1; white-space: pre; opacity: 1;" transform="translate(0,65.95)">25M</text></g></g><g class="overaxes-above"/></g></g><g class="polarlayer"/><g class="smithlayer"/><g class="ternarylayer"/><g class="geolayer"/><g class="funnelarealayer"/><g class="pielayer"/><g class="iciclelayer"/><g class="treemaplayer"/><g class="sunburstlayer"/><g class="glimages"/><defs id="topdefs-26fcd1"><g class="clips"/></defs><g class="layer-above"><g class="imagelayer"/><g class="shapelayer"/></g><g class="infolayer"><g class="g-gtitle"><text class="gtitle" x="550" y="25" text-anchor="middle" dy="0em" style="opacity: 1; font-family: 'Lucida Grande', 'Open Sans', verdana, arial, sans-serif; font-size: 20px; fill: rgb(42, 63, 95); fill-opacity: 1; white-space: pre;"><tspan class="line" dy="0em" x="550" y="25">FastQC: Per Sequence GC Content</tspan><tspan class="line" dy="1.3em" x="550" y="25">​<tspan style="font-size:70%" dy="-0.6em">Counts, 82 samples</tspan><tspan dy="0.42em">​</tspan></tspan></text></g><g class="g-xtitle"><text class="xtitle" x="569" y="472.3" text-anchor="middle" style="opacity: 0.3; font-family: 'Lucida Grande', 'Open Sans', verdana, arial, sans-serif; font-size: 14px; fill: rgb(0, 0, 0); fill-opacity: 1; white-space: pre;">% GC</text></g><g class="g-ytitle"><text class="ytitle" transform="rotate(-90,22.240625,242.5)" x="22.240625" y="242.5" text-anchor="middle" style="opacity: 0.3; font-family: 'Lucida Grande', 'Open Sans', verdana, arial, sans-serif; font-size: 14px; fill: rgb(0, 0, 0); fill-opacity: 1; white-space: pre;">Count</text></g></g></svg>